Grandstander-ExtraLight.ufo
<glyph name="exclam" format="2">
  <advance width="708.0"/>
  <unicode hex="0021"/>
  <outline>
    <contour>
      <point x="342.625" y="357.0" type="curve"/>
      <point x="344.0" y="638.0"/>
      <point x="363.5" y="1266.125"/>
      <point x="389.625" y="1465.375" type="curve"/>
      <point x="261.5" y="1472.125" type="line"/>
      <point x="242.25" y="1294.25"/>
      <point x="236.625" y="682.75"/>
      <point x="240.0" y="362.625" type="curve"/>
      <point x="256.75" y="359.625"/>
      <point x="322.75" y="357.0"/>
    </contour>
    <contour>
      <point x="298.75" y="-26.875" type="curve" smooth="yes"/>
      <point x="370.75" y="-26.875"/>
      <point x="427.25" y="22.0"/>
      <point x="427.25" y="93.375" type="curve" smooth="yes"/>
      <point x="427.25" y="164.25"/>
      <point x="369.125" y="214.625"/>
      <point x="296.5" y="214.625" type="curve" smooth="yes"/>
      <point x="230.625" y="214.625"/>
      <point x="163.0" y="173.0"/>
      <point x="163.0" y="98.0" type="curve" smooth="yes"/>
      <point x="163.0" y="26.125"/>
      <point x="212.375" y="-26.875"/>
    </contour>
  </outline>
</glyph>
<glyph name="quotedbl" format="2">
  <advance width="764.0"/>
  <unicode hex="0022"/>
  <outline>
    <contour>
      <point x="287.625" y="1047.625" type="curve"/>
      <point x="298.625" y="1127.75"/>
      <point x="303.375" y="1267.5"/>
      <point x="303.375" y="1406.875" type="curve" smooth="yes"/>
      <point x="303.375" y="1429.625"/>
      <point x="303.125" y="1448.125"/>
      <point x="302.625" y="1460.5" type="curve"/>
      <point x="292.0" y="1462.0"/>
      <point x="280.875" y="1462.25"/>
      <point x="269.625" y="1462.25" type="curve" smooth="yes"/>
      <point x="237.375" y="1462.25"/>
      <point x="212.0" y="1456.25"/>
      <point x="193.625" y="1449.5" type="curve"/>
      <point x="193.625" y="1375.625"/>
      <point x="213.5" y="1138.0"/>
      <point x="224.625" y="1052.125" type="curve"/>
      <point x="241.25" y="1049.625"/>
      <point x="263.0" y="1047.625"/>
    </contour>
    <contour>
      <point x="434.375" y="1052.875" type="curve"/>
      <point x="448.625" y="1052.0"/>
      <point x="474.125" y="1051.75"/>
      <point x="501.75" y="1053.625" type="curve"/>
      <point x="519.875" y="1171.75"/>
      <point x="534.75" y="1336.875"/>
      <point x="534.75" y="1421.5" type="curve" smooth="yes"/>
      <point x="534.75" y="1435.0"/>
      <point x="534.625" y="1447.0"/>
      <point x="533.625" y="1455.625" type="curve"/>
      <point x="506.75" y="1457.125"/>
      <point x="459.375" y="1454.25"/>
      <point x="435.875" y="1452.5" type="curve"/>
      <point x="432.25" y="1405.0"/>
      <point x="430.5" y="1281.0"/>
      <point x="430.5" y="1184.625" type="curve" smooth="yes"/>
      <point x="430.5" y="1139.375"/>
      <point x="432.25" y="1083.625"/>
    </contour>
  </outline>
</glyph>
<glyph name="numbersign" format="2">
  <advance width="1511.0"/>
  <unicode hex="0023"/>
  <outline>
    <contour>
      <point x="63.75" y="886.25" type="curve"/>
      <point x="244.5" y="887.0"/>
      <point x="479.875" y="896.375"/>
      <point x="723.125" y="907.625" type="curve" smooth="yes"/>
      <point x="968.875" y="919.125"/>
      <point x="1226.25" y="929.25"/>
      <point x="1448.0" y="930.5" type="curve"/>
      <point x="1455.25" y="961.625"/>
      <point x="1458.75" y="1020.625"/>
      <point x="1458.75" y="1055.25" type="curve"/>
      <point x="1227.0" y="1054.625"/>
      <point x="991.625" y="1039.875"/>
      <point x="756.0" y="1024.75" type="curve" smooth="yes"/>
      <point x="529.25" y="1010.0"/>
      <point x="293.5" y="994.75"/>
      <point x="71.5" y="993.625" type="curve"/>
      <point x="67.75" y="973.375"/>
      <point x="63.75" y="920.875"/>
    </contour>
    <contour>
      <point x="1414.5" y="459.625" type="curve"/>
      <point x="1421.0" y="481.125"/>
      <point x="1428.5" y="542.375"/>
      <point x="1428.5" y="588.375" type="curve"/>
      <point x="1266.875" y="590.25"/>
      <point x="1102.125" y="592.75"/>
      <point x="935.875" y="595.375" type="curve" smooth="yes"/>
      <point x="776.0" y="598.0"/>
      <point x="614.625" y="599.5"/>
      <point x="453.75" y="598.875" type="curve" smooth="yes"/>
      <point x="312.75" y="598.125"/>
      <point x="172.625" y="596.375"/>
      <point x="34.25" y="591.125" type="curve"/>
      <point x="29.25" y="562.0"/>
      <point x="24.5" y="512.625"/>
      <point x="24.5" y="481.25" type="curve"/>
      <point x="94.25" y="484.0"/>
      <point x="171.25" y="485.25"/>
      <point x="254.625" y="485.25" type="curve" smooth="yes"/>
      <point x="424.75" y="485.25"/>
      <point x="618.875" y="484.875"/>
      <point x="813.875" y="477.125" type="curve" smooth="yes"/>
      <point x="1021.875" y="469.0"/>
      <point x="1230.25" y="461.25"/>
    </contour>
    <contour>
      <point x="444.125" y="-1.75" type="curve"/>
      <point x="479.0" y="-1.75"/>
      <point x="540.125" y="2.25"/>
      <point x="568.625" y="7.75" type="curve"/>
      <point x="568.625" y="473.875"/>
      <point x="573.75" y="1101.5"/>
      <point x="592.375" y="1476.75" type="curve"/>
      <point x="556.5" y="1476.75"/>
      <point x="514.5" y="1475.5"/>
      <point x="484.875" y="1469.375" type="curve"/>
      <point x="453.375" y="1023.125"/>
      <point x="444.125" y="372.25"/>
    </contour>
    <contour>
      <point x="970.0" y="79.875" type="curve"/>
      <point x="1006.375" y="79.875"/>
      <point x="1064.75" y="88.375"/>
      <point x="1091.625" y="93.125" type="curve"/>
      <point x="1070.375" y="371.125"/>
      <point x="1061.5" y="703.875"/>
      <point x="1061.5" y="1004.25" type="curve" smooth="yes"/>
      <point x="1061.5" y="1181.0"/>
      <point x="1063.625" y="1347.125"/>
      <point x="1068.875" y="1483.75" type="curve"/>
      <point x="1027.875" y="1483.75"/>
      <point x="982.375" y="1480.125"/>
      <point x="953.375" y="1475.125" type="curve"/>
      <point x="943.875" y="1300.625"/>
      <point x="939.25" y="1107.5"/>
      <point x="939.25" y="907.125" type="curve" smooth="yes"/>
      <point x="939.25" y="635.125"/>
      <point x="948.125" y="348.0"/>
    </contour>
  </outline>
</glyph>
<glyph name="dollar" format="2">
  <advance width="1027.0"/>
  <unicode hex="0024"/>
  <anchor x="505.0" y="95.5" name="bottom"/>
  <anchor x="522.5" y="1253.625" name="top"/>
  <outline>
    <contour>
      <point x="543.25" y="-82.0" type="line"/>
      <point x="545.875" y="-30.125"/>
      <point x="554.25" y="87.375"/>
      <point x="559.25" y="131.375" type="curve"/>
      <point x="453.5" y="138.125" type="line"/>
      <point x="447.375" y="104.125"/>
      <point x="429.25" y="-45.125"/>
      <point x="427.5" y="-74.375" type="curve"/>
    </contour>
    <contour>
      <point x="470.125" y="1219.0" type="curve"/>
      <point x="573.375" y="1219.25" type="line"/>
      <point x="576.0" y="1257.25"/>
      <point x="576.875" y="1362.5"/>
      <point x="576.625" y="1411.5" type="curve"/>
      <point x="476.0" y="1408.125" type="line"/>
      <point x="475.5" y="1374.0"/>
      <point x="472.125" y="1250.0"/>
    </contour>
    <component base="s" xOffset="6.25" yOffset="156.75"/>
  </outline>
</glyph>
<glyph name="percent" format="2">
  <advance width="1385.0"/>
  <unicode hex="0025"/>
  <outline>
    <contour>
      <point x="191.0" y="-10.375" type="curve"/>
      <point x="363.625" y="193.75"/>
      <point x="1027.625" y="1127.125"/>
      <point x="1170.625" y="1363.5" type="curve"/>
      <point x="1152.5" y="1383.875"/>
      <point x="1117.875" y="1408.375"/>
      <point x="1091.375" y="1419.375" type="curve"/>
      <point x="931.25" y="1143.125"/>
      <point x="385.625" y="386.5"/>
      <point x="122.25" y="38.875" type="curve"/>
      <point x="139.25" y="23.375"/>
      <point x="171.375" y="2.125"/>
    </contour>
    <contour>
      <point x="973.25" y="206.625" type="curve" smooth="yes"/>
      <point x="865.375" y="206.625"/>
      <point x="816.25" y="278.25"/>
      <point x="816.25" y="377.5" type="curve" smooth="yes"/>
      <point x="816.25" y="460.0"/>
      <point x="882.625" y="528.375"/>
      <point x="964.25" y="528.375" type="curve" smooth="yes"/>
      <point x="1062.75" y="528.375"/>
      <point x="1121.0" y="468.125"/>
      <point x="1121.0" y="374.25" type="curve" smooth="yes"/>
      <point x="1121.0" y="262.875"/>
      <point x="1066.875" y="206.625"/>
    </contour>
    <contour>
      <point x="973.5" y="130.5" type="curve" smooth="yes"/>
      <point x="1097.0" y="130.5"/>
      <point x="1207.125" y="219.5"/>
      <point x="1207.125" y="366.375" type="curve" smooth="yes"/>
      <point x="1207.125" y="502.75"/>
      <point x="1128.375" y="612.25"/>
      <point x="967.75" y="612.25" type="curve" smooth="yes"/>
      <point x="843.25" y="612.25"/>
      <point x="733.25" y="506.75"/>
      <point x="733.25" y="370.375" type="curve" smooth="yes"/>
      <point x="733.25" y="215.125"/>
      <point x="825.625" y="130.5"/>
    </contour>
    <contour>
      <point x="391.25" y="809.125" type="curve" smooth="yes"/>
      <point x="511.5" y="809.125"/>
      <point x="633.375" y="883.375"/>
      <point x="633.375" y="1041.0" type="curve" smooth="yes"/>
      <point x="633.375" y="1181.75"/>
      <point x="545.5" y="1269.75"/>
      <point x="405.625" y="1269.75" type="curve" smooth="yes"/>
      <point x="275.75" y="1269.75"/>
      <point x="160.25" y="1189.5"/>
      <point x="160.25" y="1041.625" type="curve" smooth="yes"/>
      <point x="160.25" y="908.875"/>
      <point x="249.0" y="809.125"/>
    </contour>
    <contour>
      <point x="401.0" y="891.375" type="curve" smooth="yes"/>
      <point x="299.25" y="891.375"/>
      <point x="247.75" y="946.25"/>
      <point x="247.75" y="1049.125" type="curve" smooth="yes"/>
      <point x="247.75" y="1144.625"/>
      <point x="321.75" y="1194.875"/>
      <point x="412.875" y="1194.875" type="curve" smooth="yes"/>
      <point x="489.25" y="1194.875"/>
      <point x="545.875" y="1135.25"/>
      <point x="545.875" y="1037.0" type="curve" smooth="yes"/>
      <point x="545.875" y="943.75"/>
      <point x="485.875" y="891.375"/>
    </contour>
  </outline>
</glyph>
<glyph name="ampersand" format="2">
  <advance width="1395.0"/>
  <unicode hex="0026"/>
  <outline>
    <contour>
      <point x="525.375" y="-98.75" type="curve" smooth="yes"/>
      <point x="825.875" y="-98.75"/>
      <point x="991.125" y="93.375"/>
      <point x="1025.25" y="137.375" type="curve"/>
      <point x="1057.875" y="98.0"/>
      <point x="1145.375" y="-6.625"/>
      <point x="1187.5" y="-53.5" type="curve"/>
      <point x="1206.75" y="-42.5"/>
      <point x="1262.0" y="10.5"/>
      <point x="1279.125" y="31.75" type="curve"/>
      <point x="1230.125" y="86.625"/>
      <point x="1143.625" y="181.875"/>
      <point x="1092.375" y="236.5" type="curve"/>
      <point x="1156.75" y="328.875"/>
      <point x="1244.25" y="476.5"/>
      <point x="1257.125" y="508.0" type="curve"/>
      <point x="1230.875" y="533.0"/>
      <point x="1189.75" y="562.625"/>
      <point x="1162.75" y="577.625" type="curve"/>
      <point x="1149.625" y="550.375"/>
      <point x="1055.25" y="378.625"/>
      <point x="1015.75" y="323.75" type="curve"/>
      <point x="909.0" y="442.875"/>
      <point x="677.75" y="702.625"/>
      <point x="583.75" y="809.25" type="curve"/>
      <point x="715.625" y="923.5"/>
      <point x="810.75" y="1010.875"/>
      <point x="810.75" y="1173.25" type="curve" smooth="yes"/>
      <point x="810.75" y="1292.0"/>
      <point x="732.625" y="1418.25"/>
      <point x="547.0" y="1418.25" type="curve" smooth="yes"/>
      <point x="392.0" y="1418.25"/>
      <point x="252.125" y="1343.25"/>
      <point x="252.125" y="1154.125" type="curve" smooth="yes"/>
      <point x="252.125" y="1017.25"/>
      <point x="366.875" y="878.125"/>
      <point x="416.0" y="831.125" type="curve"/>
      <point x="260.75" y="731.25"/>
      <point x="58.0" y="561.0"/>
      <point x="58.0" y="317.0" type="curve" smooth="yes"/>
      <point x="58.0" y="67.875"/>
      <point x="232.75" y="-98.75"/>
    </contour>
    <contour>
      <point x="547.625" y="6.125" type="curve" smooth="yes"/>
      <point x="343.875" y="6.125"/>
      <point x="174.0" y="129.25"/>
      <point x="174.0" y="312.75" type="curve" smooth="yes"/>
      <point x="174.0" y="539.75"/>
      <point x="359.875" y="672.625"/>
      <point x="488.75" y="757.25" type="curve"/>
      <point x="577.75" y="651.25"/>
      <point x="831.5" y="354.25"/>
      <point x="952.25" y="228.375" type="curve"/>
      <point x="921.25" y="184.0"/>
      <point x="786.5" y="6.125"/>
    </contour>
    <contour>
      <point x="511.125" y="879.25" type="curve"/>
      <point x="439.625" y="954.25"/>
      <point x="362.375" y="1055.75"/>
      <point x="362.375" y="1158.25" type="curve" smooth="yes"/>
      <point x="362.375" y="1252.375"/>
      <point x="437.25" y="1322.75"/>
      <point x="539.125" y="1322.75" type="curve" smooth="yes"/>
      <point x="660.375" y="1322.75"/>
      <point x="700.5" y="1250.125"/>
      <point x="700.5" y="1172.625" type="curve" smooth="yes"/>
      <point x="700.5" y="1050.875"/>
      <point x="618.75" y="952.375"/>
    </contour>
  </outline>
</glyph>
<glyph name="quotesingle" format="2">
  <advance width="462.0"/>
  <unicode hex="0027"/>
  <outline>
    <contour>
      <point x="283.25" y="1384.25" type="curve" smooth="yes"/>
      <point x="283.25" y="1411.875"/>
      <point x="283.125" y="1437.0"/>
      <point x="281.875" y="1458.875" type="curve"/>
      <point x="269.125" y="1460.375"/>
      <point x="253.5" y="1461.5"/>
      <point x="237.625" y="1461.5" type="curve" smooth="yes"/>
      <point x="212.25" y="1461.5"/>
      <point x="185.625" y="1459.0"/>
      <point x="162.625" y="1455.5" type="curve"/>
      <point x="162.625" y="1379.25"/>
      <point x="179.75" y="1165.375"/>
      <point x="192.75" y="1033.625" type="curve"/>
      <point x="202.5" y="1032.25"/>
      <point x="218.25" y="1030.125"/>
      <point x="234.0" y="1030.125" type="curve" smooth="yes"/>
      <point x="244.0" y="1030.125"/>
      <point x="254.125" y="1030.375"/>
      <point x="263.0" y="1031.75" type="curve"/>
      <point x="275.25" y="1134.75"/>
      <point x="283.25" y="1274.5"/>
    </contour>
  </outline>
</glyph>
<glyph name="parenleft" format="2">
  <advance width="677.0"/>
  <unicode hex="0028"/>
  <outline>
    <contour>
      <point x="369.875" y="-479.75" type="curve"/>
      <point x="387.5" y="-471.0"/>
      <point x="438.375" y="-429.875"/>
      <point x="459.625" y="-410.75" type="curve"/>
      <point x="328.0" y="-253.875"/>
      <point x="228.125" y="89.875"/>
      <point x="228.125" y="485.75" type="curve" smooth="yes"/>
      <point x="228.125" y="822.875"/>
      <point x="298.625" y="1185.625"/>
      <point x="454.125" y="1471.25" type="curve"/>
      <point x="434.375" y="1482.875"/>
      <point x="373.375" y="1504.375"/>
      <point x="345.125" y="1510.375" type="curve"/>
      <point x="198.125" y="1248.125"/>
      <point x="115.5" y="860.625"/>
      <point x="115.5" y="494.625" type="curve" smooth="yes"/>
      <point x="115.5" y="93.625"/>
      <point x="211.25" y="-281.625"/>
    </contour>
  </outline>
</glyph>
<glyph name="parenright" format="2">
  <advance width="651.0"/>
  <unicode hex="0029"/>
  <outline>
    <contour>
      <point x="331.125" y="599.875" type="curve" smooth="yes"/>
      <point x="331.125" y="199.75"/>
      <point x="253.375" y="-123.625"/>
      <point x="94.625" y="-380.875" type="curve"/>
      <point x="115.0" y="-393.625"/>
      <point x="169.75" y="-415.75"/>
      <point x="194.625" y="-422.625" type="curve"/>
      <point x="363.375" y="-163.25"/>
      <point x="450.125" y="283.375"/>
      <point x="450.125" y="595.25" type="curve" smooth="yes"/>
      <point x="450.125" y="918.0"/>
      <point x="361.625" y="1264.125"/>
      <point x="184.0" y="1513.625" type="curve"/>
      <point x="147.0" y="1504.5"/>
      <point x="96.75" y="1487.5"/>
      <point x="72.75" y="1472.625" type="curve"/>
      <point x="198.375" y="1325.875"/>
      <point x="331.125" y="981.875"/>
    </contour>
  </outline>
</glyph>
<glyph name="asterisk" format="2">
  <advance width="929.625"/>
  <unicode hex="002A"/>
  <outline>
    <contour>
      <point x="744.625" y="1016.5" type="curve"/>
      <point x="766.75" y="1048.5"/>
      <point x="786.75" y="1081.75"/>
      <point x="797.375" y="1113.75" type="curve"/>
      <point x="701.375" y="1166.75"/>
      <point x="555.375" y="1235.625"/>
      <point x="452.375" y="1282.625" type="curve"/>
      <point x="360.375" y="1345.625"/>
      <point x="233.125" y="1426.25"/>
      <point x="148.125" y="1479.0" type="curve"/>
      <point x="128.0" y="1446.625"/>
      <point x="107.5" y="1409.25"/>
      <point x="90.5" y="1372.375" type="curve"/>
      <point x="183.875" y="1319.5"/>
      <point x="304.25" y="1262.375"/>
      <point x="402.625" y="1219.375" type="curve"/>
      <point x="499.0" y="1156.125"/>
      <point x="642.875" y="1072.5"/>
    </contour>
    <contour>
      <point x="456.875" y="885.5" type="curve" smooth="yes"/>
      <point x="478.75" y="885.5"/>
      <point x="499.625" y="887.875"/>
      <point x="512.75" y="890.125" type="curve"/>
      <point x="512.375" y="977.375"/>
      <point x="503.875" y="1141.375"/>
      <point x="498.25" y="1248.25" type="curve"/>
      <point x="506.625" y="1347.375"/>
      <point x="511.5" y="1456.625"/>
      <point x="511.5" y="1561.75" type="curve"/>
      <point x="498.25" y="1564.875"/>
      <point x="477.0" y="1567.0"/>
      <point x="455.625" y="1567.0" type="curve" smooth="yes"/>
      <point x="434.25" y="1567.0"/>
      <point x="412.75" y="1564.875"/>
      <point x="396.875" y="1561.75" type="curve"/>
      <point x="397.625" y="1463.25"/>
      <point x="401.125" y="1356.75"/>
      <point x="413.125" y="1248.25" type="curve"/>
      <point x="407.75" y="1128.5"/>
      <point x="401.0" y="996.5"/>
      <point x="396.625" y="890.125" type="curve"/>
      <point x="410.625" y="887.0"/>
      <point x="434.25" y="885.5"/>
    </contour>
    <contour>
      <point x="143.5" y="1016.75" type="curve"/>
      <point x="247.5" y="1074.75"/>
      <point x="387.0" y="1154.75"/>
      <point x="486.0" y="1216.125" type="curve"/>
      <point x="584.0" y="1261.0"/>
      <point x="710.25" y="1321.875"/>
      <point x="802.375" y="1371.375" type="curve"/>
      <point x="788.75" y="1407.375"/>
      <point x="767.25" y="1450.625"/>
      <point x="746.25" y="1478.625" type="curve"/>
      <point x="660.375" y="1428.625"/>
      <point x="529.125" y="1349.125"/>
      <point x="438.25" y="1285.25" type="curve"/>
      <point x="333.375" y="1236.0"/>
      <point x="186.375" y="1166.125"/>
      <point x="90.375" y="1113.125" type="curve"/>
      <point x="101.875" y="1086.375"/>
      <point x="128.5" y="1037.5"/>
    </contour>
  </outline>
</glyph>
<glyph name="plus" format="2">
  <advance width="1050.0"/>
  <unicode hex="002B"/>
  <outline>
    <contour>
      <point x="938.625" y="702.125" type="curve"/>
      <point x="939.25" y="719.25"/>
      <point x="940.625" y="766.5"/>
      <point x="938.875" y="798.125" type="curve"/>
      <point x="819.25" y="778.5"/>
      <point x="573.125" y="762.75"/>
      <point x="322.125" y="762.75" type="curve" smooth="yes"/>
      <point x="222.125" y="762.75"/>
      <point x="136.5" y="765.375"/>
      <point x="91.875" y="770.125" type="curve"/>
      <point x="91.875" y="751.25"/>
      <point x="96.75" y="696.625"/>
      <point x="104.0" y="672.25" type="curve"/>
      <point x="178.0" y="664.125"/>
      <point x="290.875" y="660.125"/>
      <point x="404.25" y="660.125" type="curve" smooth="yes"/>
      <point x="653.125" y="660.125"/>
      <point x="838.625" y="678.125"/>
    </contour>
    <contour>
      <point x="523.875" y="1178.625" type="curve"/>
      <point x="511.875" y="1179.5"/>
      <point x="438.625" y="1179.5"/>
      <point x="423.0" y="1179.125" type="curve"/>
      <point x="446.0" y="1024.375"/>
      <point x="460.5" y="815.5"/>
      <point x="460.5" y="629.375" type="curve" smooth="yes"/>
      <point x="460.5" y="494.25"/>
      <point x="454.125" y="366.5"/>
      <point x="442.125" y="266.125" type="curve"/>
      <point x="468.0" y="265.5"/>
      <point x="525.875" y="264.375"/>
      <point x="541.25" y="267.0" type="curve"/>
      <point x="557.375" y="399.25"/>
      <point x="565.5" y="541.375"/>
      <point x="565.5" y="678.25" type="curve" smooth="yes"/>
      <point x="565.5" y="859.0"/>
      <point x="551.875" y="1034.5"/>
    </contour>
  </outline>
</glyph>
<glyph name="comma" format="2">
  <advance width="667.0"/>
  <unicode hex="002C"/>
  <outline>
    <contour>
      <point x="294.625" y="-216.5" type="curve"/>
      <point x="379.5" y="-138.125"/>
      <point x="446.5" y="-11.25"/>
      <point x="446.5" y="111.375" type="curve" smooth="yes"/>
      <point x="446.5" y="211.75"/>
      <point x="380.125" y="268.125"/>
      <point x="275.875" y="268.125" type="curve" smooth="yes"/>
      <point x="180.0" y="268.125"/>
      <point x="133.75" y="206.5"/>
      <point x="133.75" y="146.75" type="curve" smooth="yes"/>
      <point x="133.75" y="93.875"/>
      <point x="153.625" y="28.5"/>
      <point x="249.0" y="28.5" type="curve" smooth="yes"/>
      <point x="325.875" y="28.5"/>
      <point x="346.0" y="69.75"/>
      <point x="353.0" y="108.75" type="curve"/>
      <point x="355.75" y="103.375"/>
      <point x="358.5" y="94.25"/>
      <point x="358.5" y="82.5" type="curve" smooth="yes"/>
      <point x="358.375" y="9.5"/>
      <point x="288.5" y="-117.25"/>
      <point x="236.125" y="-170.125" type="curve"/>
      <point x="246.625" y="-184.375"/>
      <point x="285.75" y="-214.375"/>
    </contour>
  </outline>
</glyph>
<glyph name="hyphen" format="2">
  <advance width="872.625"/>
  <unicode hex="002D"/>
  <outline>
    <contour>
      <point x="815.25" y="744.25" type="curve"/>
      <point x="758.125" y="747.75"/>
      <point x="650.625" y="748.375"/>
      <point x="519.75" y="748.375" type="curve" smooth="yes"/>
      <point x="322.5" y="748.375"/>
      <point x="168.75" y="736.375"/>
      <point x="58.625" y="726.25" type="curve"/>
      <point x="57.125" y="701.0"/>
      <point x="56.75" y="655.125"/>
      <point x="59.375" y="628.625" type="curve"/>
      <point x="224.625" y="639.75"/>
      <point x="577.25" y="648.125"/>
      <point x="815.875" y="648.125" type="curve"/>
      <point x="817.625" y="672.75"/>
      <point x="817.5" y="714.625"/>
    </contour>
  </outline>
</glyph>
<glyph name="period" format="2">
  <advance width="632.0"/>
  <unicode hex="002E"/>
  <outline>
    <contour>
      <point x="223.0" y="214.5" type="curve" smooth="yes"/>
      <point x="149.125" y="214.5"/>
      <point x="87.0" y="157.5"/>
      <point x="87.0" y="88.5" type="curve" smooth="yes"/>
      <point x="87.0" y="15.625"/>
      <point x="160.5" y="-38.0"/>
      <point x="229.75" y="-38.0" type="curve" smooth="yes"/>
      <point x="295.0" y="-38.0"/>
      <point x="348.5" y="6.375"/>
      <point x="348.5" y="78.5" type="curve" smooth="yes"/>
      <point x="348.5" y="158.125"/>
      <point x="296.75" y="214.5"/>
    </contour>
  </outline>
</glyph>
<glyph name="slash" format="2">
  <advance width="969.0"/>
  <unicode hex="002F"/>
  <outline>
    <contour>
      <point x="804.875" y="1478.75" type="curve"/>
      <point x="604.875" y="962.875"/>
      <point x="262.5" y="287.25"/>
      <point x="7.25" y="-104.625" type="curve"/>
      <point x="28.375" y="-119.625"/>
      <point x="77.5" y="-142.375"/>
      <point x="108.875" y="-150.75" type="curve"/>
      <point x="316.625" y="156.625"/>
      <point x="657.125" y="806.0"/>
      <point x="915.375" y="1431.375" type="curve"/>
      <point x="894.875" y="1451.125"/>
      <point x="852.875" y="1468.375"/>
    </contour>
  </outline>
</glyph>
<glyph name="zero" format="2">
  <advance width="1087.0"/>
  <unicode hex="0030"/>
  <outline>
    <contour>
      <point x="506.125" y="-32.0" type="curve" smooth="yes"/>
      <point x="790.375" y="-32.0"/>
      <point x="871.625" y="275.875"/>
      <point x="871.625" y="628.5" type="curve" smooth="yes"/>
      <point x="871.625" y="1016.875"/>
      <point x="790.5" y="1338.0"/>
      <point x="506.125" y="1338.0" type="curve" smooth="yes"/>
      <point x="223.125" y="1338.0"/>
      <point x="124.75" y="1031.5"/>
      <point x="124.75" y="636.25" type="curve" smooth="yes"/>
      <point x="124.75" y="306.25"/>
      <point x="228.375" y="-32.0"/>
    </contour>
    <contour>
      <point x="504.375" y="79.875" type="curve" smooth="yes"/>
      <point x="318.875" y="79.875"/>
      <point x="242.5" y="322.25"/>
      <point x="242.5" y="674.875" type="curve" smooth="yes"/>
      <point x="242.5" y="914.25"/>
      <point x="316.5" y="1230.75"/>
      <point x="501.75" y="1230.75" type="curve" smooth="yes"/>
      <point x="688.0" y="1230.75"/>
      <point x="759.25" y="953.125"/>
      <point x="759.25" y="672.875" type="curve" smooth="yes"/>
      <point x="759.25" y="400.875"/>
      <point x="734.25" y="79.875"/>
    </contour>
  </outline>
</glyph>
<glyph name="one" format="2">
  <advance width="809.0"/>
  <unicode hex="0031"/>
  <outline>
    <contour>
      <point x="444.875" y="119.375" type="curve"/>
      <point x="447.875" y="210.75"/>
      <point x="448.375" y="306.125"/>
      <point x="448.375" y="402.0" type="curve" smooth="yes"/>
      <point x="448.375" y="832.625"/>
      <point x="431.375" y="1289.75"/>
      <point x="428.75" y="1312.375" type="curve"/>
      <point x="410.375" y="1314.625"/>
      <point x="369.125" y="1317.125"/>
      <point x="336.5" y="1317.125" type="curve"/>
      <point x="263.75" y="1256.5"/>
      <point x="62.75" y="1056.375"/>
      <point x="30.25" y="1022.875" type="curve"/>
      <point x="42.875" y="996.0"/>
      <point x="73.25" y="940.375"/>
      <point x="85.5" y="923.875" type="curve"/>
      <point x="110.0" y="950.75"/>
      <point x="301.5" y="1151.75"/>
      <point x="330.5" y="1178.375" type="curve"/>
      <point x="329.25" y="1044.625"/>
      <point x="336.875" y="195.875"/>
      <point x="337.75" y="117.5" type="curve"/>
      <point x="302.625" y="116.125"/>
      <point x="134.5" y="103.25"/>
      <point x="92.375" y="95.875" type="curve"/>
      <point x="91.875" y="69.5"/>
      <point x="95.25" y="12.875"/>
      <point x="97.875" y="-12.0" type="curve"/>
      <point x="170.875" y="-6.5"/>
      <point x="612.5" y="9.0"/>
      <point x="683.625" y="9.0" type="curve"/>
      <point x="689.125" y="35.75"/>
      <point x="693.75" y="89.375"/>
      <point x="694.625" y="112.25" type="curve"/>
      <point x="656.75" y="115.0"/>
      <point x="512.375" y="119.375"/>
    </contour>
  </outline>
</glyph>
<glyph name="two" format="2">
  <advance width="995.0"/>
  <unicode hex="0032"/>
  <outline>
    <contour>
      <point x="872.25" y="144.5" type="curve"/>
      <point x="732.5" y="139.0"/>
      <point x="321.75" y="109.625"/>
      <point x="232.875" y="99.5" type="curve"/>
      <point x="267.0" y="139.25"/>
      <point x="476.0" y="404.0"/>
      <point x="596.625" y="571.0" type="curve" smooth="yes"/>
      <point x="727.375" y="753.375"/>
      <point x="831.0" y="933.5"/>
      <point x="831.0" y="1096.375" type="curve" smooth="yes"/>
      <point x="831.0" y="1257.25"/>
      <point x="703.75" y="1364.0"/>
      <point x="528.25" y="1364.0" type="curve" smooth="yes"/>
      <point x="301.125" y="1364.0"/>
      <point x="125.25" y="1223.25"/>
      <point x="41.25" y="1016.125" type="curve"/>
      <point x="64.375" y="994.625"/>
      <point x="114.375" y="959.0"/>
      <point x="134.875" y="949.75" type="curve"/>
      <point x="204.75" y="1131.125"/>
      <point x="319.625" y="1259.0"/>
      <point x="516.5" y="1259.0" type="curve" smooth="yes"/>
      <point x="625.5" y="1259.0"/>
      <point x="722.875" y="1206.375"/>
      <point x="722.875" y="1076.625" type="curve" smooth="yes"/>
      <point x="722.875" y="915.0"/>
      <point x="541.75" y="667.5"/>
      <point x="414.625" y="504.5" type="curve" smooth="yes"/>
      <point x="291.0" y="345.125"/>
      <point x="142.5" y="157.625"/>
      <point x="73.125" y="80.625" type="curve"/>
      <point x="76.25" y="42.5"/>
      <point x="84.125" y="5.0"/>
      <point x="89.125" y="-17.0" type="curve"/>
      <point x="868.75" y="27.0" type="line"/>
      <point x="874.0" y="49.0"/>
      <point x="876.0" y="118.625"/>
    </contour>
  </outline>
</glyph>
<glyph name="three" format="2">
  <advance width="1032.0"/>
  <unicode hex="0033"/>
  <outline>
    <contour>
      <point x="477.0" y="-3.0" type="curve" smooth="yes"/>
      <point x="730.5" y="-3.0"/>
      <point x="911.125" y="150.0"/>
      <point x="911.125" y="398.0" type="curve" smooth="yes"/>
      <point x="911.125" y="619.875"/>
      <point x="736.75" y="709.375"/>
      <point x="548.25" y="721.125" type="curve"/>
      <point x="671.125" y="744.5"/>
      <point x="840.875" y="844.625"/>
      <point x="840.875" y="1024.25" type="curve" smooth="yes"/>
      <point x="840.875" y="1225.25"/>
      <point x="696.25" y="1335.0"/>
      <point x="494.0" y="1335.0" type="curve" smooth="yes"/>
      <point x="272.375" y="1335.0"/>
      <point x="109.375" y="1206.625"/>
      <point x="26.0" y="1122.125" type="curve"/>
      <point x="44.5" y="1100.625"/>
      <point x="87.75" y="1062.125"/>
      <point x="112.375" y="1044.875" type="curve"/>
      <point x="190.875" y="1146.5"/>
      <point x="324.0" y="1227.0"/>
      <point x="488.5" y="1227.0" type="curve" smooth="yes"/>
      <point x="647.75" y="1227.0"/>
      <point x="723.875" y="1133.75"/>
      <point x="723.875" y="1014.25" type="curve" smooth="yes"/>
      <point x="723.875" y="837.25"/>
      <point x="490.875" y="749.5"/>
      <point x="257.0" y="749.5" type="curve"/>
      <point x="257.0" y="718.0"/>
      <point x="262.625" y="665.5"/>
      <point x="268.625" y="645.5" type="curve"/>
      <point x="600.375" y="645.5"/>
      <point x="802.5" y="625.0"/>
      <point x="802.5" y="383.375" type="curve" smooth="yes"/>
      <point x="802.5" y="206.875"/>
      <point x="664.5" y="101.25"/>
      <point x="470.375" y="101.25" type="curve" smooth="yes"/>
      <point x="308.5" y="101.25"/>
      <point x="184.5" y="183.75"/>
      <point x="153.875" y="311.5" type="curve"/>
      <point x="117.125" y="296.25"/>
      <point x="70.25" y="266.375"/>
      <point x="44.0" y="243.0" type="curve"/>
      <point x="85.625" y="99.5"/>
      <point x="272.625" y="-3.0"/>
    </contour>
  </outline>
</glyph>
<glyph name="four" format="2">
  <advance width="1104.0"/>
  <unicode hex="0034"/>
  <outline>
    <contour>
      <point x="975.25" y="414.125" type="curve"/>
      <point x="975.25" y="461.125"/>
      <point x="969.0" y="513.25"/>
      <point x="964.125" y="531.375" type="curve"/>
      <point x="947.125" y="531.5"/>
      <point x="791.0" y="525.625"/>
      <point x="708.875" y="521.25" type="curve"/>
      <point x="708.875" y="817.5"/>
      <point x="733.5" y="1277.125"/>
      <point x="738.75" y="1341.125" type="curve"/>
      <point x="719.0" y="1342.0"/>
      <point x="667.25" y="1342.625"/>
      <point x="644.625" y="1341.625" type="curve"/>
      <point x="568.125" y="1256.75"/>
      <point x="183.0" y="650.75"/>
      <point x="97.125" y="461.875" type="curve"/>
      <point x="98.875" y="435.75"/>
      <point x="106.375" y="376.125"/>
      <point x="112.75" y="345.75" type="curve"/>
      <point x="161.5" y="352.625"/>
      <point x="397.25" y="384.25"/>
      <point x="595.625" y="400.0" type="curve"/>
      <point x="592.25" y="338.5"/>
      <point x="588.5" y="192.25"/>
      <point x="588.5" y="-11.75" type="curve"/>
      <point x="604.25" y="-10.875"/>
      <point x="682.125" y="-5.5"/>
      <point x="718.5" y="-1.625" type="curve"/>
      <point x="716.375" y="28.125"/>
      <point x="711.0" y="177.75"/>
      <point x="711.0" y="408.625" type="curve"/>
      <point x="784.875" y="411.5"/>
      <point x="909.5" y="414.125"/>
    </contour>
    <contour>
      <point x="638.25" y="1174.25" type="curve"/>
      <point x="621.75" y="1073.0"/>
      <point x="603.625" y="626.25"/>
      <point x="603.375" y="513.375" type="curve"/>
      <point x="534.875" y="509.875"/>
      <point x="250.125" y="479.625"/>
      <point x="220.5" y="474.75" type="curve"/>
      <point x="239.25" y="540.0"/>
      <point x="544.625" y="1039.625"/>
    </contour>
  </outline>
</glyph>
<glyph name="five" format="2">
  <advance width="1137.0"/>
  <unicode hex="0035"/>
  <outline>
    <contour>
      <point x="100.25" y="168.625" type="curve"/>
      <point x="214.25" y="57.375"/>
      <point x="366.75" y="12.875"/>
      <point x="545.75" y="12.875" type="curve" smooth="yes"/>
      <point x="844.625" y="12.875"/>
      <point x="1016.625" y="207.5"/>
      <point x="1016.625" y="507.5" type="curve" smooth="yes"/>
      <point x="1016.625" y="743.5"/>
      <point x="888.5" y="955.125"/>
      <point x="654.25" y="955.125" type="curve" smooth="yes"/>
      <point x="467.25" y="955.125"/>
      <point x="348.625" y="801.375"/>
      <point x="328.875" y="728.125" type="curve"/>
      <point x="328.875" y="772.125"/>
      <point x="309.625" y="1027.875"/>
      <point x="292.375" y="1154.0" type="curve"/>
      <point x="342.375" y="1166.0"/>
      <point x="560.5" y="1193.125"/>
      <point x="874.0" y="1216.75" type="curve"/>
      <point x="874.0" y="1251.75"/>
      <point x="862.0" y="1302.75"/>
      <point x="855.875" y="1321.625" type="curve"/>
      <point x="726.0" y="1311.625"/>
      <point x="327.125" y="1263.375"/>
      <point x="167.25" y="1227.625" type="curve"/>
      <point x="201.5" y="983.875"/>
      <point x="219.875" y="774.75"/>
      <point x="219.875" y="576.875" type="curve"/>
      <point x="236.375" y="575.75"/>
      <point x="258.875" y="575.625"/>
      <point x="278.0" y="575.625" type="curve" smooth="yes"/>
      <point x="297.875" y="575.625"/>
      <point x="323.125" y="577.125"/>
      <point x="336.25" y="579.625" type="curve"/>
      <point x="341.25" y="651.375"/>
      <point x="442.75" y="848.125"/>
      <point x="642.375" y="848.125" type="curve" smooth="yes"/>
      <point x="814.25" y="848.125"/>
      <point x="905.75" y="686.625"/>
      <point x="905.75" y="505.25" type="curve" smooth="yes"/>
      <point x="905.75" y="282.125"/>
      <point x="767.125" y="125.0"/>
      <point x="549.75" y="125.0" type="curve" smooth="yes"/>
      <point x="329.75" y="125.0"/>
      <point x="228.75" y="216.875"/>
      <point x="182.625" y="268.5" type="curve"/>
      <point x="163.25" y="250.375"/>
      <point x="111.625" y="193.875"/>
    </contour>
  </outline>
</glyph>
<glyph name="six" format="2">
  <advance width="1154.0"/>
  <unicode hex="0036"/>
  <outline>
    <contour>
      <point x="784.625" y="1244.875" type="curve"/>
      <point x="778.375" y="1275.0"/>
      <point x="751.125" y="1325.625"/>
      <point x="730.5" y="1344.875" type="curve"/>
      <point x="250.25" y="1113.375"/>
      <point x="118.875" y="751.25"/>
      <point x="118.875" y="456.375" type="curve" smooth="yes"/>
      <point x="118.875" y="181.75"/>
      <point x="254.375" y="-9.0"/>
      <point x="524.25" y="-9.0" type="curve" smooth="yes"/>
      <point x="801.625" y="-9.0"/>
      <point x="975.375" y="200.5"/>
      <point x="975.375" y="488.0" type="curve" smooth="yes"/>
      <point x="975.375" y="734.5"/>
      <point x="822.875" y="831.375"/>
      <point x="641.375" y="831.375" type="curve" smooth="yes"/>
      <point x="490.25" y="831.375"/>
      <point x="314.5" y="748.125"/>
      <point x="241.5" y="627.75" type="curve"/>
      <point x="270.375" y="769.75"/>
      <point x="426.375" y="1094.625"/>
    </contour>
    <contour>
      <point x="299.875" y="574.75" type="curve" smooth="yes"/>
      <point x="375.375" y="663.0"/>
      <point x="503.625" y="728.5"/>
      <point x="639.5" y="728.5" type="curve" smooth="yes"/>
      <point x="794.25" y="728.5"/>
      <point x="867.0" y="633.75"/>
      <point x="867.0" y="473.0" type="curve" smooth="yes"/>
      <point x="867.0" y="282.375"/>
      <point x="738.5" y="102.5"/>
      <point x="534.25" y="102.5" type="curve" smooth="yes"/>
      <point x="343.75" y="102.5"/>
      <point x="235.375" y="224.625"/>
      <point x="235.375" y="411.375" type="curve" smooth="yes"/>
      <point x="235.375" y="474.75"/>
      <point x="258.375" y="526.0"/>
    </contour>
  </outline>
</glyph>
<glyph name="seven" format="2">
  <advance width="1012.0"/>
  <unicode hex="0037"/>
  <outline>
    <contour>
      <point x="255.25" y="-4.75" type="curve"/>
      <point x="400.0" y="386.125"/>
      <point x="540.0" y="727.875"/>
      <point x="932.375" y="1267.5" type="curve"/>
      <point x="929.375" y="1286.5"/>
      <point x="918.25" y="1342.25"/>
      <point x="911.125" y="1363.25" type="curve"/>
      <point x="739.0" y="1363.25"/>
      <point x="333.125" y="1287.375"/>
      <point x="56.125" y="1224.375" type="curve"/>
      <point x="56.125" y="1205.75"/>
      <point x="65.0" y="1119.75"/>
      <point x="69.375" y="1100.25" type="curve"/>
      <point x="95.75" y="1108.625"/>
      <point x="460.625" y="1201.0"/>
      <point x="801.75" y="1247.5" type="curve"/>
      <point x="577.125" y="1003.75"/>
      <point x="245.375" y="366.125"/>
      <point x="130.75" y="29.625" type="curve"/>
      <point x="146.25" y="22.5"/>
      <point x="228.375" y="0.375"/>
    </contour>
  </outline>
</glyph>
<glyph name="eight" format="2">
  <advance width="1243.0"/>
  <unicode hex="0038"/>
  <outline>
    <contour>
      <point x="597.625" y="-9.25" type="curve" smooth="yes"/>
      <point x="888.25" y="-9.25"/>
      <point x="1046.0" y="147.375"/>
      <point x="1046.0" y="395.75" type="curve" smooth="yes"/>
      <point x="1046.0" y="594.375"/>
      <point x="902.875" y="693.75"/>
      <point x="787.0" y="712.625" type="curve"/>
      <point x="911.375" y="756.875"/>
      <point x="1001.5" y="864.5"/>
      <point x="1001.5" y="1042.875" type="curve" smooth="yes"/>
      <point x="1001.5" y="1265.625"/>
      <point x="828.625" y="1372.375"/>
      <point x="593.0" y="1372.375" type="curve" smooth="yes"/>
      <point x="341.625" y="1372.375"/>
      <point x="159.625" y="1250.5"/>
      <point x="159.625" y="1010.75" type="curve" smooth="yes"/>
      <point x="159.625" y="842.375"/>
      <point x="247.125" y="753.5"/>
      <point x="335.0" y="712.375" type="curve"/>
      <point x="210.125" y="669.0"/>
      <point x="105.0" y="535.625"/>
      <point x="105.0" y="377.0" type="curve" smooth="yes"/>
      <point x="105.0" y="138.875"/>
      <point x="262.375" y="-9.25"/>
    </contour>
    <contour>
      <point x="583.625" y="90.5" type="curve" smooth="yes"/>
      <point x="411.125" y="90.5"/>
      <point x="221.625" y="145.125"/>
      <point x="221.625" y="382.375" type="curve" smooth="yes"/>
      <point x="221.625" y="615.75"/>
      <point x="432.25" y="664.125"/>
      <point x="578.75" y="664.125" type="curve" smooth="yes"/>
      <point x="791.125" y="664.125"/>
      <point x="934.5" y="591.0"/>
      <point x="934.5" y="380.875" type="curve" smooth="yes"/>
      <point x="934.5" y="181.125"/>
      <point x="774.125" y="90.5"/>
    </contour>
    <contour>
      <point x="586.375" y="760.125" type="curve" smooth="yes"/>
      <point x="409.0" y="760.125"/>
      <point x="277.125" y="804.0"/>
      <point x="277.125" y="1000.375" type="curve" smooth="yes"/>
      <point x="277.125" y="1160.375"/>
      <point x="379.0" y="1274.375"/>
      <point x="580.625" y="1274.375" type="curve" smooth="yes"/>
      <point x="769.875" y="1274.375"/>
      <point x="891.125" y="1206.875"/>
      <point x="891.125" y="1029.125" type="curve" smooth="yes"/>
      <point x="891.125" y="855.625"/>
      <point x="755.0" y="760.125"/>
    </contour>
  </outline>
</glyph>
<glyph name="nine" format="2">
  <advance width="1067.0"/>
  <unicode hex="0039"/>
  <outline>
    <contour>
      <point x="783.875" y="6.375" type="curve"/>
      <point x="875.625" y="269.0"/>
      <point x="925.75" y="533.625"/>
      <point x="925.75" y="877.625" type="curve" smooth="yes"/>
      <point x="925.75" y="1192.125"/>
      <point x="817.875" y="1364.0"/>
      <point x="539.125" y="1364.0" type="curve" smooth="yes"/>
      <point x="287.125" y="1364.0"/>
      <point x="104.125" y="1168.375"/>
      <point x="104.125" y="905.875" type="curve" smooth="yes"/>
      <point x="104.125" y="660.75"/>
      <point x="216.375" y="474.125"/>
      <point x="462.0" y="474.125" type="curve" smooth="yes"/>
      <point x="663.125" y="474.125"/>
      <point x="769.75" y="577.375"/>
      <point x="805.0" y="640.625" type="curve"/>
      <point x="802.875" y="401.625"/>
      <point x="686.25" y="89.5"/>
      <point x="647.625" y="-1.75" type="curve"/>
      <point x="690.0" y="-1.75"/>
      <point x="761.375" y="1.5"/>
    </contour>
    <contour>
      <point x="547.375" y="1271.625" type="curve" smooth="yes"/>
      <point x="727.75" y="1271.625"/>
      <point x="813.25" y="1143.75"/>
      <point x="813.25" y="928.625" type="curve" smooth="yes"/>
      <point x="813.25" y="725.25"/>
      <point x="686.125" y="576.625"/>
      <point x="479.0" y="576.625" type="curve" smooth="yes"/>
      <point x="305.375" y="576.625"/>
      <point x="215.125" y="700.875"/>
      <point x="215.125" y="901.625" type="curve" smooth="yes"/>
      <point x="215.125" y="1120.125"/>
      <point x="331.25" y="1271.625"/>
    </contour>
  </outline>
</glyph>
<glyph name="colon" format="2">
  <advance width="564.0"/>
  <unicode hex="003A"/>
  <outline>
    <contour>
      <point x="241.375" y="-9.125" type="curve" smooth="yes"/>
      <point x="313.375" y="-9.125"/>
      <point x="372.125" y="38.375"/>
      <point x="372.125" y="103.875" type="curve" smooth="yes"/>
      <point x="372.125" y="172.0"/>
      <point x="319.625" y="232.125"/>
      <point x="239.375" y="232.125" type="curve" smooth="yes"/>
      <point x="166.625" y="232.125"/>
      <point x="103.25" y="172.5"/>
      <point x="103.25" y="104.5" type="curve" smooth="yes"/>
      <point x="103.25" y="38.75"/>
      <point x="171.75" y="-9.125"/>
    </contour>
    <component base="period" xOffset="26.125" yOffset="761.375"/>
  </outline>
</glyph>
<glyph name="semicolon" format="2">
  <advance width="593.0"/>
  <unicode hex="003B"/>
  <outline>
    <contour>
      <point x="251.625" y="926.25" type="curve" smooth="yes"/>
      <point x="177.75" y="926.25"/>
      <point x="115.625" y="869.25"/>
      <point x="115.625" y="800.25" type="curve" smooth="yes"/>
      <point x="115.625" y="727.375"/>
      <point x="189.125" y="673.75"/>
      <point x="258.375" y="673.75" type="curve" smooth="yes"/>
      <point x="323.625" y="673.75"/>
      <point x="377.125" y="718.125"/>
      <point x="377.125" y="790.25" type="curve" smooth="yes"/>
      <point x="377.125" y="869.875"/>
      <point x="325.375" y="926.25"/>
    </contour>
    <contour>
      <point x="260.5" y="-298.5" type="curve"/>
      <point x="344.125" y="-220.875"/>
      <point x="410.375" y="-95.125"/>
      <point x="410.375" y="25.875" type="curve" smooth="yes"/>
      <point x="410.375" y="124.75"/>
      <point x="345.125" y="180.625"/>
      <point x="241.875" y="180.625" type="curve" smooth="yes"/>
      <point x="146.875" y="180.625"/>
      <point x="101.875" y="119.5"/>
      <point x="101.875" y="60.875" type="curve" smooth="yes"/>
      <point x="101.875" y="8.75"/>
      <point x="121.125" y="-55.875"/>
      <point x="215.75" y="-55.875" type="curve" smooth="yes"/>
      <point x="292.25" y="-55.875"/>
      <point x="312.25" y="-14.625"/>
      <point x="319.0" y="24.25" type="curve"/>
      <point x="321.75" y="18.875"/>
      <point x="324.5" y="9.75"/>
      <point x="324.5" y="-1.875" type="curve" smooth="yes"/>
      <point x="324.375" y="-74.625"/>
      <point x="255.25" y="-200.875"/>
      <point x="203.25" y="-253.625" type="curve"/>
      <point x="213.375" y="-267.25"/>
      <point x="251.75" y="-296.375"/>
    </contour>
  </outline>
</glyph>
<glyph name="less" format="2">
  <advance width="807.0"/>
  <unicode hex="003C"/>
  <outline>
    <contour>
      <point x="672.875" y="1099.125" type="curve"/>
      <point x="587.875" y="1039.625"/>
      <point x="251.125" y="776.75"/>
      <point x="21.0" y="591.75" type="curve"/>
      <point x="17.0" y="512.375" type="line"/>
      <point x="235.125" y="442.75"/>
      <point x="469.625" y="352.5"/>
      <point x="667.75" y="271.5" type="curve"/>
      <point x="673.625" y="288.625"/>
      <point x="685.75" y="331.0"/>
      <point x="687.5" y="349.375" type="curve"/>
      <point x="621.375" y="390.375"/>
      <point x="292.25" y="515.625"/>
      <point x="92.25" y="579.375" type="curve"/>
      <point x="88.75" y="537.125" type="line"/>
      <point x="301.75" y="711.625"/>
      <point x="501.5" y="863.5"/>
      <point x="723.25" y="1026.75" type="curve"/>
      <point x="715.0" y="1047.25"/>
      <point x="693.125" y="1083.375"/>
    </contour>
  </outline>
</glyph>
<glyph name="equal" format="2">
  <advance width="1050.0"/>
  <unicode hex="003D"/>
  <outline>
    <contour>
      <point x="50.625" y="1012.875" type="curve"/>
      <point x="44.5" y="989.25"/>
      <point x="40.125" y="945.625"/>
      <point x="40.125" y="918.25" type="curve"/>
      <point x="204.25" y="936.625"/>
      <point x="823.125" y="967.25"/>
      <point x="1004.375" y="967.25" type="curve"/>
      <point x="1004.375" y="990.5"/>
      <point x="999.875" y="1043.625"/>
      <point x="996.25" y="1066.25" type="curve"/>
      <point x="761.25" y="1066.25"/>
      <point x="193.75" y="1041.875"/>
    </contour>
    <contour>
      <point x="42.75" y="566.25" type="curve"/>
      <point x="39.25" y="538.75"/>
      <point x="37.75" y="492.25"/>
      <point x="38.875" y="471.125" type="curve"/>
      <point x="281.75" y="486.625"/>
      <point x="816.25" y="487.125"/>
      <point x="1011.125" y="487.125" type="curve"/>
      <point x="1011.125" y="510.375"/>
      <point x="1005.375" y="562.875"/>
      <point x="1000.75" y="586.375" type="curve"/>
      <point x="918.25" y="591.25"/>
      <point x="789.25" y="595.0"/>
      <point x="648.0" y="595.0" type="curve" smooth="yes"/>
      <point x="445.25" y="595.0"/>
      <point x="213.375" y="587.125"/>
    </contour>
  </outline>
</glyph>
<glyph name="greater" format="2">
  <advance width="790.0"/>
  <unicode hex="003E"/>
  <outline>
    <contour>
      <point x="103.375" y="1022.75" type="curve"/>
      <point x="221.625" y="948.875"/>
      <point x="529.125" y="755.875"/>
      <point x="681.5" y="656.75" type="curve"/>
      <point x="694.0" y="696.875" type="line"/>
      <point x="449.875" y="567.0"/>
      <point x="95.75" y="380.375"/>
      <point x="32.75" y="354.75" type="curve"/>
      <point x="32.75" y="335.5"/>
      <point x="48.625" y="293.125"/>
      <point x="58.5" y="278.375" type="curve"/>
      <point x="97.625" y="288.375"/>
      <point x="480.125" y="479.75"/>
      <point x="757.25" y="627.0" type="curve"/>
      <point x="757.0" y="712.0" type="line"/>
      <point x="532.75" y="865.0"/>
      <point x="216.5" y="1064.25"/>
      <point x="163.5" y="1078.25" type="curve"/>
      <point x="145.25" y="1067.625"/>
      <point x="118.125" y="1040.375"/>
    </contour>
  </outline>
</glyph>
<glyph name="question" format="2">
  <advance width="1036.0"/>
  <unicode hex="003F"/>
  <outline>
    <contour>
      <point x="532.75" y="370.875" type="curve"/>
      <point x="533.5" y="602.375"/>
      <point x="620.875" y="713.5"/>
      <point x="707.375" y="786.75" type="curve" smooth="yes"/>
      <point x="784.0" y="851.75"/>
      <point x="875.5" y="961.875"/>
      <point x="875.5" y="1128.125" type="curve" smooth="yes"/>
      <point x="875.5" y="1353.125"/>
      <point x="736.125" y="1472.0"/>
      <point x="489.375" y="1472.0" type="curve" smooth="yes"/>
      <point x="267.0" y="1472.0"/>
      <point x="66.125" y="1365.375"/>
      <point x="29.375" y="1140.375" type="curve"/>
      <point x="129.75" y="1096.25" type="line"/>
      <point x="151.0" y="1203.375"/>
      <point x="220.625" y="1368.125"/>
      <point x="490.375" y="1368.125" type="curve" smooth="yes"/>
      <point x="671.125" y="1368.125"/>
      <point x="758.5" y="1276.875"/>
      <point x="758.5" y="1119.25" type="curve" smooth="yes"/>
      <point x="758.5" y="1021.5"/>
      <point x="711.5" y="929.125"/>
      <point x="611.75" y="846.625" type="curve" smooth="yes"/>
      <point x="465.625" y="725.375"/>
      <point x="410.0" y="546.5"/>
      <point x="410.0" y="378.5" type="curve"/>
      <point x="446.25" y="372.375"/>
      <point x="492.5" y="370.875"/>
    </contour>
    <contour>
      <point x="488.0" y="-10.0" type="curve" smooth="yes"/>
      <point x="548.75" y="-10.0"/>
      <point x="603.875" y="48.375"/>
      <point x="603.875" y="116.375" type="curve" smooth="yes"/>
      <point x="603.875" y="180.5"/>
      <point x="556.125" y="222.75"/>
      <point x="483.5" y="222.75" type="curve" smooth="yes"/>
      <point x="428.0" y="222.75"/>
      <point x="371.125" y="173.5"/>
      <point x="371.125" y="109.25" type="curve" smooth="yes"/>
      <point x="371.125" y="37.75"/>
      <point x="422.125" y="-10.0"/>
    </contour>
  </outline>
</glyph>
<glyph name="at" format="2">
  <advance width="1920.0"/>
  <unicode hex="0040"/>
  <outline>
    <contour>
      <point x="834.0" y="-41.0" type="curve" smooth="yes"/>
      <point x="1145.75" y="-41.0"/>
      <point x="1336.0" y="65.5"/>
      <point x="1403.0" y="178.0" type="curve"/>
      <point x="1319.25" y="253.75" type="line"/>
      <point x="1257.75" y="150.75"/>
      <point x="1119.375" y="59.0"/>
      <point x="840.875" y="59.0" type="curve" smooth="yes"/>
      <point x="417.25" y="59.0"/>
      <point x="181.25" y="280.125"/>
      <point x="181.25" y="621.75" type="curve" smooth="yes"/>
      <point x="181.25" y="1072.5"/>
      <point x="526.625" y="1393.25"/>
      <point x="960.625" y="1393.25" type="curve" smooth="yes"/>
      <point x="1372.0" y="1393.25"/>
      <point x="1640.5" y="1174.625"/>
      <point x="1640.5" y="771.5" type="curve" smooth="yes"/>
      <point x="1640.5" y="629.25"/>
      <point x="1587.5" y="460.375"/>
      <point x="1448.75" y="460.375" type="curve" smooth="yes"/>
      <point x="1356.5" y="460.375"/>
      <point x="1321.875" y="500.5"/>
      <point x="1298.5" y="594.25" type="curve" smooth="yes"/>
      <point x="1288.25" y="634.875"/>
      <point x="1224.875" y="926.5"/>
      <point x="1190.75" y="1122.125" type="curve"/>
      <point x="1170.0" y="1121.75"/>
      <point x="1113.625" y="1117.625"/>
      <point x="1086.875" y="1115.0" type="curve"/>
      <point x="1089.625" y="1092.25"/>
      <point x="1093.625" y="1055.125"/>
      <point x="1096.875" y="1027.0" type="curve"/>
      <point x="1061.375" y="1056.25"/>
      <point x="1000.0" y="1089.875"/>
      <point x="891.625" y="1089.875" type="curve" smooth="yes"/>
      <point x="685.875" y="1089.875"/>
      <point x="525.5" y="910.25"/>
      <point x="525.5" y="695.75" type="curve" smooth="yes"/>
      <point x="525.5" y="493.625"/>
      <point x="656.25" y="355.25"/>
      <point x="867.125" y="355.25" type="curve" smooth="yes"/>
      <point x="1028.875" y="355.25"/>
      <point x="1174.125" y="433.875"/>
      <point x="1203.25" y="551.5" type="curve"/>
      <point x="1229.0" y="426.875"/>
      <point x="1324.0" y="365.0"/>
      <point x="1445.0" y="365.0" type="curve" smooth="yes"/>
      <point x="1648.25" y="365.0"/>
      <point x="1745.875" y="550.875"/>
      <point x="1745.875" y="760.5" type="curve" smooth="yes"/>
      <point x="1745.875" y="1216.625"/>
      <point x="1427.5" y="1497.0"/>
      <point x="972.25" y="1497.0" type="curve" smooth="yes"/>
      <point x="456.375" y="1497.0"/>
      <point x="65.5" y="1141.375"/>
      <point x="65.5" y="616.875" type="curve" smooth="yes"/>
      <point x="65.5" y="182.625"/>
      <point x="390.0" y="-41.0"/>
    </contour>
    <contour>
      <point x="866.125" y="459.0" type="curve" smooth="yes"/>
      <point x="746.375" y="459.0"/>
      <point x="642.625" y="542.375"/>
      <point x="642.625" y="695.25" type="curve" smooth="yes"/>
      <point x="642.625" y="870.5"/>
      <point x="750.125" y="993.125"/>
      <point x="909.25" y="993.125" type="curve" smooth="yes"/>
      <point x="984.125" y="993.125"/>
      <point x="1063.5" y="966.625"/>
      <point x="1110.625" y="925.125" type="curve"/>
      <point x="1168.125" y="658.0" type="line"/>
      <point x="1126.375" y="538.375"/>
      <point x="1027.5" y="459.0"/>
    </contour>
  </outline>
</glyph>
<glyph name="A" format="2">
  <advance width="1024.75"/>
  <unicode hex="0041"/>
  <anchor x="556.875" y="0.0" name="bottom"/>
  <anchor x="932.875" y="-3.5" name="ogonek"/>
  <anchor x="579.0" y="1323.5" name="top"/>
  <outline>
    <contour>
      <point x="217.125" y="-15.0" type="curve"/>
      <point x="232.125" y="86.75"/>
      <point x="271.5" y="300.5"/>
      <point x="312.375" y="495.75" type="curve"/>
      <point x="350.375" y="503.75"/>
      <point x="663.5" y="530.0"/>
      <point x="769.5" y="530.25" type="curve"/>
      <point x="779.125" y="432.375"/>
      <point x="798.5" y="80.0"/>
      <point x="803.625" y="-15.0" type="curve"/>
      <point x="844.875" y="-15.0"/>
      <point x="899.25" y="-11.0"/>
      <point x="932.875" y="-3.5" type="curve"/>
      <point x="889.375" y="641.25"/>
      <point x="841.875" y="1089.0"/>
      <point x="790.75" y="1323.0" type="curve"/>
      <point x="752.5" y="1327.75"/>
      <point x="703.25" y="1330.125"/>
      <point x="662.375" y="1330.125" type="curve" smooth="yes"/>
      <point x="544.875" y="1330.125"/>
      <point x="424.625" y="1313.0"/>
      <point x="378.75" y="1304.25" type="curve"/>
      <point x="295.625" y="989.0"/>
      <point x="121.75" y="178.25"/>
      <point x="89.625" y="-6.375" type="curve"/>
      <point x="117.75" y="-11.375"/>
      <point x="175.375" y="-15.0"/>
    </contour>
    <contour>
      <point x="330.875" y="597.0" type="curve"/>
      <point x="393.75" y="909.75"/>
      <point x="451.0" y="1140.25"/>
      <point x="467.125" y="1201.5" type="curve"/>
      <point x="506.0" y="1207.0"/>
      <point x="648.625" y="1219.0"/>
      <point x="703.375" y="1219.0" type="curve"/>
      <point x="728.75" y="1081.0"/>
      <point x="756.875" y="738.375"/>
      <point x="764.125" y="639.625" type="curve"/>
      <point x="629.75" y="634.375"/>
      <point x="420.875" y="615.875"/>
    </contour>
  </outline>
</glyph>
<glyph name="B" format="2">
  <advance width="1174.0"/>
  <unicode hex="0042"/>
  <anchor x="587.0" y="0.0" name="bottom"/>
  <anchor x="587.0" y="1291.0" name="top"/>
  <outline>
    <contour>
      <point x="182.625" y="13.875" type="curve"/>
      <point x="231.75" y="6.5"/>
      <point x="291.125" y="3.75"/>
      <point x="352.75" y="3.75" type="curve" smooth="yes"/>
      <point x="717.0" y="3.75"/>
      <point x="1040.375" y="65.625"/>
      <point x="1040.375" y="393.25" type="curve" smooth="yes"/>
      <point x="1040.375" y="562.5"/>
      <point x="890.75" y="672.875"/>
      <point x="722.75" y="674.75" type="curve" smooth="yes"/>
      <point x="714.25" y="674.875"/>
      <point x="707.25" y="674.875"/>
      <point x="701.125" y="674.0" type="curve"/>
      <point x="814.0" y="702.125"/>
      <point x="916.75" y="866.375"/>
      <point x="916.75" y="1008.75" type="curve" smooth="yes"/>
      <point x="916.75" y="1217.625"/>
      <point x="762.25" y="1306.0"/>
      <point x="556.5" y="1306.0" type="curve" smooth="yes"/>
      <point x="396.375" y="1306.0"/>
      <point x="264.5" y="1293.0"/>
      <point x="194.375" y="1285.0" type="curve"/>
      <point x="194.375" y="1256.0"/>
      <point x="182.625" y="195.0"/>
    </contour>
    <contour>
      <point x="311.625" y="116.625" type="curve"/>
      <point x="316.625" y="601.625" type="line"/>
      <point x="360.75" y="606.625"/>
      <point x="507.375" y="608.625"/>
      <point x="541.375" y="608.625" type="curve" smooth="yes"/>
      <point x="733.75" y="608.625"/>
      <point x="926.875" y="570.0"/>
      <point x="926.875" y="393.375" type="curve" smooth="yes"/>
      <point x="926.875" y="152.375"/>
      <point x="652.5" y="116.5"/>
      <point x="356.75" y="116.5" type="curve" smooth="yes"/>
      <point x="335.75" y="116.5"/>
      <point x="319.375" y="116.5"/>
    </contour>
    <contour>
      <point x="314.25" y="702.125" type="curve"/>
      <point x="312.5" y="1194.875" type="line"/>
      <point x="357.0" y="1201.625"/>
      <point x="450.25" y="1213.75"/>
      <point x="539.25" y="1213.75" type="curve" smooth="yes"/>
      <point x="702.625" y="1213.75"/>
      <point x="803.625" y="1160.625"/>
      <point x="803.625" y="995.75" type="curve" smooth="yes"/>
      <point x="803.625" y="893.25"/>
      <point x="747.5" y="792.25"/>
      <point x="670.25" y="752.0" type="curve" smooth="yes"/>
      <point x="603.375" y="712.625"/>
      <point x="511.875" y="703.875"/>
    </contour>
  </outline>
</glyph>
<glyph name="C" format="2">
  <advance width="1137.0"/>
  <unicode hex="0043"/>
  <anchor x="569.0" y="0.0" name="bottom"/>
  <anchor x="542.75" y="1299.75" name="top"/>
  <outline>
    <contour>
      <point x="1044.5" y="279.75" type="curve"/>
      <point x="1030.625" y="300.125"/>
      <point x="979.0" y="344.75"/>
      <point x="956.25" y="358.125" type="curve"/>
      <point x="888.75" y="264.125"/>
      <point x="766.875" y="111.75"/>
      <point x="560.5" y="111.75" type="curve" smooth="yes"/>
      <point x="374.5" y="111.75"/>
      <point x="195.0" y="349.375"/>
      <point x="195.0" y="666.125" type="curve" smooth="yes"/>
      <point x="195.0" y="1069.625"/>
      <point x="390.75" y="1208.625"/>
      <point x="557.125" y="1208.625" type="curve" smooth="yes"/>
      <point x="812.625" y="1208.625"/>
      <point x="887.125" y="1060.625"/>
      <point x="910.625" y="1012.5" type="curve"/>
      <point x="935.75" y="1028.5"/>
      <point x="989.125" y="1068.5"/>
      <point x="1006.5" y="1090.125" type="curve"/>
      <point x="931.375" y="1232.0"/>
      <point x="758.0" y="1326.0"/>
      <point x="571.75" y="1326.0" type="curve" smooth="yes"/>
      <point x="237.125" y="1326.0"/>
      <point x="60.0" y="1035.875"/>
      <point x="60.0" y="673.875" type="curve" smooth="yes"/>
      <point x="60.0" y="305.875"/>
      <point x="250.5" y="-7.875"/>
      <point x="563.125" y="-7.875" type="curve" smooth="yes"/>
      <point x="788.5" y="-7.875"/>
      <point x="943.5" y="124.0"/>
    </contour>
  </outline>
</glyph>
<glyph name="D" format="2">
  <advance width="1198.0"/>
  <unicode hex="0044"/>
  <anchor x="599.0" y="0.0" name="bottom"/>
  <anchor x="353.0" y="646.0" name="center"/>
  <anchor x="505.875" y="1291.0" name="top"/>
  <outline>
    <contour>
      <point x="242.875" y="-27.875" type="curve"/>
      <point x="782.125" y="-11.25"/>
      <point x="993.0" y="175.0"/>
      <point x="993.0" y="641.25" type="curve" smooth="yes"/>
      <point x="993.0" y="1032.75"/>
      <point x="863.25" y="1325.0"/>
      <point x="400.25" y="1325.0" type="curve" smooth="yes"/>
      <point x="317.125" y="1325.0"/>
      <point x="167.25" y="1308.125"/>
      <point x="123.875" y="1299.0" type="curve"/>
      <point x="126.0" y="1253.5"/>
      <point x="216.0" y="213.875"/>
    </contour>
    <contour>
      <point x="351.875" y="94.0" type="curve"/>
      <point x="314.75" y="442.875"/>
      <point x="283.75" y="860.25"/>
      <point x="259.625" y="1216.875" type="curve"/>
      <point x="299.75" y="1219.625"/>
      <point x="339.75" y="1221.375"/>
      <point x="376.375" y="1221.375" type="curve" smooth="yes"/>
      <point x="756.625" y="1221.375"/>
      <point x="877.25" y="1005.875"/>
      <point x="877.25" y="651.0" type="curve" smooth="yes"/>
      <point x="877.25" y="292.375"/>
      <point x="739.875" y="122.875"/>
    </contour>
  </outline>
</glyph>
<glyph name="E" format="2">
  <advance width="957.0"/>
  <unicode hex="0045"/>
  <anchor x="481.5" y="0.0" name="bottom"/>
  <anchor x="688.625" y="0.875" name="ogonek"/>
  <anchor x="481.5" y="1312.25" name="top"/>
  <anchor x="22.5" y="1291.0" name="topleft"/>
  <outline>
    <contour>
      <point x="820.25" y="-9.75" type="curve"/>
      <point x="826.125" y="10.625"/>
      <point x="834.75" y="67.5"/>
      <point x="836.5" y="108.625" type="curve"/>
      <point x="763.875" y="114.375"/>
      <point x="591.125" y="121.25"/>
      <point x="441.75" y="121.25" type="curve" smooth="yes"/>
      <point x="384.375" y="121.25"/>
      <point x="296.875" y="120.375"/>
      <point x="260.625" y="118.625" type="curve"/>
      <point x="260.625" y="249.125"/>
      <point x="261.0" y="622.75"/>
      <point x="261.25" y="673.375" type="curve"/>
      <point x="340.875" y="676.0"/>
      <point x="658.875" y="675.125"/>
      <point x="708.125" y="674.75" type="curve"/>
      <point x="702.0" y="783.0" type="line"/>
      <point x="610.625" y="782.75"/>
      <point x="337.875" y="771.875"/>
      <point x="264.125" y="769.25" type="curve"/>
      <point x="264.125" y="846.0"/>
      <point x="266.75" y="1090.5"/>
      <point x="271.5" y="1169.625" type="curve"/>
      <point x="835.25" y="1214.625" type="line"/>
      <point x="839.125" y="1252.5"/>
      <point x="841.0" y="1276.75"/>
      <point x="841.0" y="1319.5" type="curve"/>
      <point x="786.0" y="1319.5"/>
      <point x="492.875" y="1302.625"/>
      <point x="147.625" y="1251.0" type="curve"/>
      <point x="141.75" y="1175.75"/>
      <point x="137.25" y="945.875"/>
      <point x="137.25" y="591.25" type="curve" smooth="yes"/>
      <point x="137.25" y="408.625"/>
      <point x="140.375" y="205.625"/>
      <point x="147.625" y="5.625" type="curve"/>
      <point x="218.0" y="6.375"/>
      <point x="305.125" y="6.25"/>
      <point x="375.5" y="5.375" type="curve" smooth="yes"/>
      <point x="530.75" y="4.5"/>
      <point x="667.625" y="-0.875"/>
    </contour>
  </outline>
</glyph>
<glyph name="F" format="2">
  <advance width="949.0"/>
  <unicode hex="0046"/>
  <anchor x="475.0" y="0.0" name="bottom"/>
  <anchor x="475.0" y="1291.0" name="top"/>
  <outline>
    <contour>
      <point x="324.125" y="-22.75" type="line"/>
      <point x="322.875" y="195.125"/>
      <point x="310.375" y="466.125"/>
      <point x="298.5" y="640.375" type="curve"/>
      <point x="426.75" y="640.375"/>
      <point x="635.25" y="630.25"/>
      <point x="759.625" y="617.0" type="curve"/>
      <point x="761.625" y="641.75"/>
      <point x="764.25" y="684.375"/>
      <point x="764.25" y="715.75" type="curve"/>
      <point x="741.25" y="719.0"/>
      <point x="551.0" y="740.375"/>
      <point x="293.875" y="740.375" type="curve"/>
      <point x="288.25" y="880.625"/>
      <point x="278.875" y="1093.0"/>
      <point x="269.625" y="1188.625" type="curve"/>
      <point x="561.5" y="1188.625"/>
      <point x="738.0" y="1172.5"/>
      <point x="813.375" y="1163.375" type="curve"/>
      <point x="813.375" y="1191.875"/>
      <point x="811.75" y="1245.125"/>
      <point x="807.125" y="1280.0" type="curve"/>
      <point x="700.625" y="1292.875"/>
      <point x="613.625" y="1300.875"/>
      <point x="490.875" y="1304.375" type="curve" smooth="yes"/>
      <point x="399.625" y="1307.0"/>
      <point x="289.875" y="1307.625"/>
      <point x="141.5" y="1306.25" type="curve"/>
      <point x="162.875" y="916.125"/>
      <point x="189.125" y="424.375"/>
      <point x="190.375" y="-8.375" type="curve"/>
    </contour>
  </outline>
</glyph>
<glyph name="G" format="2">
  <advance width="1275.0"/>
  <unicode hex="0047"/>
  <anchor x="673.0" y="0.0" name="bottom"/>
  <anchor x="673.0" y="1291.0" name="top"/>
  <outline>
    <contour>
      <point x="712.0" y="-48.0" type="curve" smooth="yes"/>
      <point x="1046.0" y="-48.0"/>
      <point x="1180.625" y="164.375"/>
      <point x="1180.625" y="483.625" type="curve" smooth="yes"/>
      <point x="1180.625" y="539.625"/>
      <point x="1176.5" y="600.125"/>
      <point x="1168.5" y="660.75" type="curve"/>
      <point x="991.375" y="697.125"/>
      <point x="710.125" y="723.375"/>
      <point x="555.0" y="732.125" type="curve"/>
      <point x="553.875" y="704.0"/>
      <point x="555.75" y="652.25"/>
      <point x="557.5" y="628.125" type="curve"/>
      <point x="682.0" y="621.125"/>
      <point x="991.875" y="580.125"/>
      <point x="1061.125" y="567.375" type="curve"/>
      <point x="1063.125" y="541.0"/>
      <point x="1064.125" y="506.0"/>
      <point x="1064.125" y="478.875" type="curve" smooth="yes"/>
      <point x="1064.125" y="265.75"/>
      <point x="988.625" y="68.875"/>
      <point x="710.875" y="68.875" type="curve" smooth="yes"/>
      <point x="369.0" y="68.875"/>
      <point x="209.5" y="287.75"/>
      <point x="209.5" y="665.5" type="curve" smooth="yes"/>
      <point x="209.5" y="1068.75"/>
      <point x="455.375" y="1220.0"/>
      <point x="629.5" y="1220.0" type="curve" smooth="yes"/>
      <point x="784.5" y="1220.0"/>
      <point x="885.125" y="1192.0"/>
      <point x="990.25" y="1025.625" type="curve"/>
      <point x="1019.875" y="1045.125"/>
      <point x="1063.5" y="1090.125"/>
      <point x="1077.0" y="1110.625" type="curve"/>
      <point x="1025.5" y="1203.5"/>
      <point x="892.75" y="1338.0"/>
      <point x="644.25" y="1338.0" type="curve" smooth="yes"/>
      <point x="279.625" y="1338.0"/>
      <point x="81.25" y="1051.0"/>
      <point x="81.25" y="646.0" type="curve" smooth="yes"/>
      <point x="81.25" y="213.5"/>
      <point x="287.5" y="-48.0"/>
    </contour>
  </outline>
</glyph>
<glyph name="H" format="2">
  <advance width="1094.0"/>
  <unicode hex="0048"/>
  <anchor x="547.0" y="0.0" name="bottom"/>
  <anchor x="518.125" y="1063.0" name="center"/>
  <anchor x="547.0" y="1291.0" name="top"/>
  <anchor x="20.0" y="1291.0" name="topleft"/>
  <outline>
    <contour>
      <point x="177.625" y="-1.125" type="curve"/>
      <point x="219.75" y="-1.125"/>
      <point x="291.0" y="3.25"/>
      <point x="311.375" y="6.25" type="curve"/>
      <point x="309.5" y="32.875"/>
      <point x="286.5" y="390.375"/>
      <point x="275.5" y="619.375" type="curve"/>
      <point x="346.625" y="619.375"/>
      <point x="682.375" y="628.125"/>
      <point x="752.125" y="630.125" type="curve"/>
      <point x="752.125" y="507.0"/>
      <point x="754.75" y="159.125"/>
      <point x="754.75" y="-1.5" type="curve"/>
      <point x="790.125" y="-1.5"/>
      <point x="844.625" y="0.0"/>
      <point x="871.375" y="3.25" type="curve"/>
      <point x="868.125" y="62.5"/>
      <point x="868.0" y="165.5"/>
      <point x="869.25" y="283.0" type="curve" smooth="yes"/>
      <point x="870.75" y="617.875"/>
      <point x="890.375" y="1130.75"/>
      <point x="914.375" y="1299.0" type="curve"/>
      <point x="894.5" y="1303.125"/>
      <point x="850.75" y="1305.25"/>
      <point x="816.875" y="1305.25" type="curve" smooth="yes"/>
      <point x="802.375" y="1305.25"/>
      <point x="788.625" y="1305.125"/>
      <point x="780.125" y="1304.0" type="curve"/>
      <point x="767.25" y="1145.75"/>
      <point x="758.875" y="887.25"/>
      <point x="754.125" y="753.375" type="curve"/>
      <point x="673.25" y="750.75"/>
      <point x="344.0" y="736.5"/>
      <point x="270.125" y="728.5" type="curve"/>
      <point x="268.875" y="754.0"/>
      <point x="265.75" y="882.875"/>
      <point x="265.75" y="1018.875" type="curve" smooth="yes"/>
      <point x="265.75" y="1112.0"/>
      <point x="268.25" y="1213.25"/>
      <point x="275.25" y="1290.0" type="curve"/>
      <point x="241.125" y="1290.0"/>
      <point x="167.75" y="1285.0"/>
      <point x="143.5" y="1282.0" type="curve"/>
      <point x="139.5" y="1237.625"/>
      <point x="138.375" y="1168.125"/>
      <point x="138.375" y="1083.5" type="curve" smooth="yes"/>
      <point x="138.375" y="741.125"/>
      <point x="163.125" y="148.75"/>
    </contour>
  </outline>
</glyph>
<glyph name="I" format="2">
  <advance width="554.75"/>
  <unicode hex="0049"/>
  <anchor x="301.25" y="0.0" name="bottom"/>
  <anchor x="334.5" y="-3.0" name="ogonek"/>
  <anchor x="301.25" y="1291.0" name="top"/>
  <anchor x="73.375" y="1291.0" name="topleft"/>
  <outline>
    <contour>
      <point x="334.5" y="-3.0" type="curve"/>
      <point x="337.125" y="52.0"/>
      <point x="337.875" y="452.0"/>
      <point x="337.875" y="578.625" type="curve" smooth="yes"/>
      <point x="337.875" y="763.5"/>
      <point x="331.5" y="1053.625"/>
      <point x="324.875" y="1320.375" type="curve"/>
      <point x="292.5" y="1320.375"/>
      <point x="231.25" y="1318.75"/>
      <point x="213.0" y="1316.75" type="curve"/>
      <point x="210.375" y="1050.0"/>
      <point x="209.875" y="814.125"/>
      <point x="209.875" y="640.375" type="curve" smooth="yes"/>
      <point x="209.875" y="450.5"/>
      <point x="213.125" y="158.25"/>
      <point x="218.0" y="2.5" type="curve"/>
      <point x="242.375" y="-1.125"/>
      <point x="311.375" y="-3.0"/>
    </contour>
  </outline>
</glyph>
<glyph name="J" format="2">
  <advance width="1178.0"/>
  <unicode hex="004A"/>
  <anchor x="589.0" y="0.0" name="bottom"/>
  <anchor x="824.25" y="1314.625" name="top"/>
  <outline>
    <contour>
      <point x="522.125" y="-19.0" type="curve" smooth="yes"/>
      <point x="821.75" y="-19.0"/>
      <point x="957.75" y="230.375"/>
      <point x="957.75" y="588.625" type="curve" smooth="yes"/>
      <point x="957.75" y="788.625"/>
      <point x="927.875" y="1135.0"/>
      <point x="912.0" y="1310.25" type="curve"/>
      <point x="897.375" y="1312.125"/>
      <point x="872.125" y="1314.125"/>
      <point x="847.125" y="1314.125" type="curve" smooth="yes"/>
      <point x="821.875" y="1314.125"/>
      <point x="794.25" y="1311.25"/>
      <point x="776.5" y="1307.0" type="curve"/>
      <point x="780.375" y="1285.0"/>
      <point x="831.5" y="774.25"/>
      <point x="831.5" y="568.125" type="curve" smooth="yes"/>
      <point x="831.5" y="297.75"/>
      <point x="743.875" y="100.625"/>
      <point x="531.875" y="100.625" type="curve" smooth="yes"/>
      <point x="320.5" y="100.625"/>
      <point x="210.75" y="277.625"/>
      <point x="164.5" y="464.625" type="curve"/>
      <point x="128.0" y="450.0"/>
      <point x="69.375" y="422.0"/>
      <point x="42.25" y="404.375" type="curve"/>
      <point x="115.0" y="170.0"/>
      <point x="261.0" y="-19.0"/>
    </contour>
  </outline>
</glyph>
<glyph name="K" format="2">
  <advance width="1067.75"/>
  <unicode hex="004B"/>
  <anchor x="558.0" y="0.0" name="bottom"/>
  <anchor x="558.0" y="1291.0" name="top"/>
  <outline>
    <contour>
      <point x="201.125" y="-32.0" type="curve"/>
      <point x="247.875" y="-29.5"/>
      <point x="308.75" y="-22.625"/>
      <point x="330.875" y="-19.75" type="curve"/>
      <point x="330.875" y="4.375"/>
      <point x="316.5" y="367.375"/>
      <point x="302.875" y="594.5" type="curve"/>
      <point x="321.875" y="604.5"/>
      <point x="362.75" y="633.375"/>
      <point x="384.75" y="650.375" type="curve"/>
      <point x="612.125" y="417.125"/>
      <point x="832.0" y="29.375"/>
      <point x="844.5" y="1.125" type="curve"/>
      <point x="875.25" y="12.625"/>
      <point x="934.0" y="43.125"/>
      <point x="958.375" y="62.25" type="curve"/>
      <point x="920.625" y="135.375"/>
      <point x="665.125" y="532.0"/>
      <point x="472.625" y="718.125" type="curve"/>
      <point x="742.75" y="919.5"/>
      <point x="921.25" y="1136.625"/>
      <point x="973.375" y="1210.75" type="curve"/>
      <point x="953.5" y="1220.375"/>
      <point x="908.5" y="1253.0"/>
      <point x="877.875" y="1278.75" type="curve"/>
      <point x="736.5" y="1053.25"/>
      <point x="453.5" y="831.625"/>
      <point x="294.5" y="720.625" type="curve"/>
      <point x="281.25" y="953.25"/>
      <point x="262.25" y="1237.375"/>
      <point x="256.0" y="1297.0" type="curve"/>
      <point x="245.0" y="1299.625"/>
      <point x="223.5" y="1301.375"/>
      <point x="201.25" y="1301.375" type="curve" smooth="yes"/>
      <point x="178.375" y="1301.375"/>
      <point x="152.25" y="1299.875"/>
      <point x="138.0" y="1296.0" type="curve"/>
      <point x="163.25" y="902.0"/>
      <point x="201.125" y="90.375"/>
    </contour>
  </outline>
</glyph>
<glyph name="L" format="2">
  <advance width="961.0"/>
  <unicode hex="004C"/>
  <anchor x="493.5" y="0.0" name="bottom"/>
  <anchor x="493.5" y="646.0" name="center"/>
  <anchor x="252.625" y="1296.75" name="top"/>
  <anchor x="536.75" y="892.875" name="topright"/>
  <outline>
    <contour>
      <point x="183.75" y="5.625" type="curve"/>
      <point x="292.125" y="4.25"/>
      <point x="389.75" y="5.125"/>
      <point x="497.5" y="9.5" type="curve" smooth="yes"/>
      <point x="603.625" y="13.875"/>
      <point x="720.75" y="20.5"/>
      <point x="863.25" y="33.125" type="curve"/>
      <point x="866.75" y="65.375"/>
      <point x="868.25" y="116.5"/>
      <point x="868.5" y="147.625" type="curve"/>
      <point x="685.625" y="147.625"/>
      <point x="443.625" y="135.0"/>
      <point x="317.5" y="127.625" type="curve"/>
      <point x="320.0" y="173.75"/>
      <point x="321.75" y="266.0"/>
      <point x="322.25" y="380.75" type="curve" smooth="yes"/>
      <point x="324.625" y="664.625"/>
      <point x="320.875" y="1066.5"/>
      <point x="306.875" y="1292.0" type="curve"/>
      <point x="297.5" y="1293.5"/>
      <point x="266.875" y="1296.5"/>
      <point x="243.0" y="1296.5" type="curve" smooth="yes"/>
      <point x="221.5" y="1296.5"/>
      <point x="196.0" y="1294.25"/>
      <point x="183.75" y="1292.5" type="curve"/>
      <point x="189.0" y="1150.5"/>
      <point x="191.875" y="883.75"/>
      <point x="191.875" y="625.125" type="curve" smooth="yes"/>
      <point x="191.875" y="366.375"/>
      <point x="189.0" y="115.625"/>
    </contour>
  </outline>
</glyph>
<glyph name="M" format="2">
  <advance width="1393.125"/>
  <unicode hex="004D"/>
  <anchor x="724.25" y="0.0" name="bottom"/>
  <anchor x="724.25" y="1291.0" name="top"/>
  <outline>
    <contour>
      <point x="161.625" y="-18.375" type="curve"/>
      <point x="204.875" y="-18.375"/>
      <point x="262.875" y="-15.5"/>
      <point x="292.375" y="-13.375" type="curve"/>
      <point x="292.375" y="80.125"/>
      <point x="294.625" y="756.0"/>
      <point x="296.0" y="1099.875" type="curve"/>
      <point x="360.25" y="903.75"/>
      <point x="623.5" y="42.875"/>
      <point x="629.75" y="18.375" type="curve"/>
      <point x="660.25" y="12.625"/>
      <point x="703.25" y="12.25"/>
      <point x="743.0" y="12.25" type="curve"/>
      <point x="789.25" y="93.125"/>
      <point x="1053.875" y="860.875"/>
      <point x="1109.25" y="1077.625" type="curve"/>
      <point x="1111.375" y="987.25"/>
      <point x="1115.0" y="743.125"/>
      <point x="1114.375" y="560.0" type="curve" smooth="yes"/>
      <point x="1113.75" y="361.625"/>
      <point x="1108.5" y="162.25"/>
      <point x="1093.125" y="-1.375" type="curve"/>
      <point x="1124.875" y="-4.625"/>
      <point x="1179.5" y="-7.625"/>
      <point x="1218.375" y="-7.625" type="curve"/>
      <point x="1228.875" y="117.625"/>
      <point x="1231.75" y="402.125"/>
      <point x="1231.75" y="650.625" type="curve" smooth="yes"/>
      <point x="1231.75" y="891.875"/>
      <point x="1224.375" y="1127.125"/>
      <point x="1198.25" y="1256.375" type="curve"/>
      <point x="1169.25" y="1260.5"/>
      <point x="1089.625" y="1265.5"/>
      <point x="1052.25" y="1265.5" type="curve"/>
      <point x="1010.25" y="1077.75"/>
      <point x="764.25" y="344.25"/>
      <point x="695.375" y="141.5" type="curve"/>
      <point x="657.125" y="343.5"/>
      <point x="361.125" y="1245.0"/>
      <point x="355.0" y="1262.0" type="curve"/>
      <point x="341.125" y="1262.0"/>
      <point x="239.0" y="1260.875"/>
      <point x="186.75" y="1254.5" type="curve"/>
      <point x="179.5" y="1082.25"/>
      <point x="161.625" y="349.75"/>
    </contour>
  </outline>
</glyph>
<glyph name="N" format="2">
  <advance width="1282.0"/>
  <unicode hex="004E"/>
  <anchor x="641.0" y="0.0" name="bottom"/>
  <anchor x="641.0" y="1291.0" name="top"/>
  <outline>
    <contour>
      <point x="325.75" y="-5.25" type="curve"/>
      <point x="325.75" y="130.625"/>
      <point x="312.125" y="964.5"/>
      <point x="305.125" y="1091.25" type="curve"/>
      <point x="408.875" y="917.5"/>
      <point x="860.75" y="123.0"/>
      <point x="929.25" y="0.0" type="curve"/>
      <point x="945.125" y="-2.0"/>
      <point x="964.0" y="-2.375"/>
      <point x="984.5" y="-2.375" type="curve" smooth="yes"/>
      <point x="1001.625" y="-2.375"/>
      <point x="1020.375" y="-2.25"/>
      <point x="1043.25" y="-1.125" type="curve"/>
      <point x="1048.375" y="25.375"/>
      <point x="1051.625" y="127.5"/>
      <point x="1051.625" y="249.0" type="curve" smooth="yes"/>
      <point x="1051.625" y="523.5"/>
      <point x="1040.375" y="1020.875"/>
      <point x="1031.625" y="1241.125" type="curve"/>
      <point x="1001.75" y="1252.25"/>
      <point x="945.0" y="1262.25"/>
      <point x="896.0" y="1262.25" type="curve"/>
      <point x="942.75" y="200.125" type="line"/>
      <point x="802.5" y="465.0"/>
      <point x="548.75" y="928.5"/>
      <point x="328.75" y="1261.375" type="curve"/>
      <point x="300.875" y="1267.0"/>
      <point x="216.375" y="1272.75"/>
      <point x="183.25" y="1272.75" type="curve"/>
      <point x="183.75" y="1229.125"/>
      <point x="184.125" y="1134.75"/>
      <point x="184.125" y="1025.375" type="curve" smooth="yes"/>
      <point x="184.125" y="690.375"/>
      <point x="189.0" y="69.625"/>
      <point x="192.25" y="-5.25" type="curve"/>
      <point x="223.5" y="-6.5"/>
      <point x="291.375" y="-7.0"/>
    </contour>
  </outline>
</glyph>
<glyph name="O" format="2">
  <advance width="1354.0"/>
  <unicode hex="004F"/>
  <anchor x="677.0" y="0.0" name="bottom"/>
  <anchor x="618.75" y="646.0" name="center"/>
  <anchor x="875.0" y="0.0" name="ogonek"/>
  <anchor x="677.0" y="1291.0" name="top"/>
  <anchor x="20.0" y="1291.0" name="topleft"/>
  <anchor x="994.0" y="1175.125" name="topright"/>
  <outline>
    <contour>
      <point x="654.875" y="-51.0" type="curve" smooth="yes"/>
      <point x="1024.375" y="-51.0"/>
      <point x="1187.375" y="247.375"/>
      <point x="1187.375" y="606.5" type="curve" smooth="yes"/>
      <point x="1187.375" y="972.75"/>
      <point x="1049.5" y="1320.0"/>
      <point x="654.875" y="1320.0" type="curve" smooth="yes"/>
      <point x="293.625" y="1320.0"/>
      <point x="125.0" y="1032.0"/>
      <point x="125.0" y="616.25" type="curve" smooth="yes"/>
      <point x="125.0" y="247.375"/>
      <point x="291.875" y="-51.0"/>
    </contour>
    <contour>
      <point x="647.875" y="67.375" type="curve" smooth="yes"/>
      <point x="384.25" y="67.375"/>
      <point x="251.5" y="316.5"/>
      <point x="251.5" y="608.0" type="curve" smooth="yes"/>
      <point x="251.5" y="952.625"/>
      <point x="359.625" y="1208.5"/>
      <point x="664.0" y="1208.5" type="curve" smooth="yes"/>
      <point x="977.875" y="1208.5"/>
      <point x="1070.625" y="901.5"/>
      <point x="1070.625" y="601.625" type="curve" smooth="yes"/>
      <point x="1070.625" y="313.0"/>
      <point x="955.125" y="67.375"/>
    </contour>
  </outline>
</glyph>
<glyph name="P" format="2">
  <advance width="1010.0"/>
  <unicode hex="0050"/>
  <anchor x="505.0" y="0.0" name="bottom"/>
  <anchor x="505.0" y="1291.0" name="top"/>
  <outline>
    <contour>
      <point x="120.125" y="-23.25" type="curve"/>
      <point x="148.625" y="-24.875"/>
      <point x="214.25" y="-26.25"/>
      <point x="248.25" y="-26.25" type="curve"/>
      <point x="248.625" y="256.125"/>
      <point x="259.375" y="559.25"/>
      <point x="263.75" y="645.875" type="curve"/>
      <point x="325.125" y="637.75"/>
      <point x="391.875" y="634.125"/>
      <point x="449.0" y="634.125" type="curve" smooth="yes"/>
      <point x="721.375" y="634.125"/>
      <point x="879.125" y="732.125"/>
      <point x="879.125" y="988.875" type="curve" smooth="yes"/>
      <point x="879.125" y="1193.875"/>
      <point x="738.625" y="1285.0"/>
      <point x="498.75" y="1285.0" type="curve" smooth="yes"/>
      <point x="352.25" y="1285.0"/>
      <point x="249.625" y="1267.25"/>
      <point x="161.375" y="1249.0" type="curve"/>
      <point x="145.25" y="945.25"/>
      <point x="120.125" y="318.125"/>
    </contour>
    <contour>
      <point x="266.125" y="755.0" type="curve"/>
      <point x="267.875" y="793.0"/>
      <point x="277.875" y="1145.25"/>
      <point x="277.75" y="1169.25" type="curve"/>
      <point x="372.875" y="1181.875"/>
      <point x="448.125" y="1187.5"/>
      <point x="509.25" y="1187.5" type="curve" smooth="yes"/>
      <point x="665.25" y="1187.5"/>
      <point x="770.625" y="1136.125"/>
      <point x="770.625" y="978.875" type="curve" smooth="yes"/>
      <point x="770.625" y="786.875"/>
      <point x="613.375" y="739.25"/>
      <point x="459.75" y="739.25" type="curve" smooth="yes"/>
      <point x="389.875" y="739.25"/>
      <point x="320.75" y="746.625"/>
    </contour>
  </outline>
</glyph>
<glyph name="Q" format="2">
  <advance width="1291.0"/>
  <unicode hex="0051"/>
  <anchor x="646.0" y="0.0" name="bottom"/>
  <anchor x="646.0" y="1291.0" name="top"/>
  <outline>
    <contour>
      <point x="1115.125" y="-50.5" type="curve"/>
      <point x="1135.5" y="-21.5"/>
      <point x="1157.0" y="25.125"/>
      <point x="1169.25" y="56.875" type="curve"/>
      <point x="1089.625" y="78.875"/>
      <point x="1007.75" y="120.125"/>
      <point x="953.25" y="169.625" type="curve"/>
      <point x="1043.5" y="270.875"/>
      <point x="1095.25" y="435.625"/>
      <point x="1095.25" y="617.625" type="curve" smooth="yes"/>
      <point x="1095.25" y="1015.875"/>
      <point x="938.75" y="1299.0"/>
      <point x="583.625" y="1299.0" type="curve" smooth="yes"/>
      <point x="263.375" y="1299.0"/>
      <point x="116.375" y="990.25"/>
      <point x="116.375" y="648.75" type="curve" smooth="yes"/>
      <point x="116.375" y="311.5"/>
      <point x="260.625" y="4.375"/>
      <point x="588.5" y="4.375" type="curve" smooth="yes"/>
      <point x="761.625" y="4.375"/>
      <point x="843.125" y="74.5"/>
      <point x="869.125" y="102.5" type="curve"/>
      <point x="906.0" y="69.5"/>
      <point x="1057.125" y="-29.375"/>
    </contour>
    <contour>
      <point x="797.375" y="181.0" type="curve"/>
      <point x="777.625" y="158.875"/>
      <point x="719.375" y="110.375"/>
      <point x="603.875" y="110.375" type="curve" smooth="yes"/>
      <point x="333.125" y="110.375"/>
      <point x="241.75" y="355.875"/>
      <point x="241.75" y="651.125" type="curve" smooth="yes"/>
      <point x="241.75" y="949.125"/>
      <point x="354.75" y="1196.0"/>
      <point x="587.375" y="1196.0" type="curve" smooth="yes"/>
      <point x="863.875" y="1196.0"/>
      <point x="980.25" y="939.5"/>
      <point x="980.25" y="620.375" type="curve" smooth="yes"/>
      <point x="980.25" y="461.875"/>
      <point x="938.0" y="328.875"/>
      <point x="873.375" y="236.125" type="curve"/>
      <point x="788.375" y="314.875"/>
      <point x="715.625" y="444.75"/>
      <point x="675.0" y="528.0" type="curve"/>
      <point x="654.875" y="515.125"/>
      <point x="609.75" y="478.5"/>
      <point x="594.625" y="463.625" type="curve"/>
      <point x="642.25" y="370.0"/>
      <point x="727.5" y="241.375"/>
    </contour>
  </outline>
</glyph>
<glyph name="R" format="2">
  <advance width="1094.0"/>
  <unicode hex="0052"/>
  <anchor x="547.0" y="0.0" name="bottom"/>
  <anchor x="490.875" y="1318.75" name="top"/>
  <outline>
    <contour>
      <point x="204.25" y="-28.375" type="curve"/>
      <point x="248.875" y="-28.375"/>
      <point x="314.625" y="-26.125"/>
      <point x="344.625" y="-20.75" type="curve"/>
      <point x="331.5" y="146.625"/>
      <point x="304.75" y="571.375"/>
      <point x="301.375" y="614.375" type="curve"/>
      <point x="345.0" y="614.5"/>
      <point x="489.0" y="628.75"/>
      <point x="585.125" y="655.625" type="curve"/>
      <point x="635.375" y="555.875"/>
      <point x="778.25" y="209.125"/>
      <point x="817.625" y="-15.75" type="curve"/>
      <point x="837.625" y="-14.625"/>
      <point x="908.125" y="9.875"/>
      <point x="937.0" y="30.375" type="curve"/>
      <point x="904.625" y="178.25"/>
      <point x="761.625" y="572.25"/>
      <point x="684.625" y="689.75" type="curve"/>
      <point x="829.0" y="741.5"/>
      <point x="887.5" y="868.75"/>
      <point x="887.5" y="1005.875" type="curve" smooth="yes"/>
      <point x="887.5" y="1264.875"/>
      <point x="704.375" y="1322.25"/>
      <point x="509.25" y="1322.25" type="curve" smooth="yes"/>
      <point x="389.875" y="1322.25"/>
      <point x="226.375" y="1311.25"/>
      <point x="137.25" y="1303.0" type="curve"/>
      <point x="161.375" y="884.125"/>
      <point x="190.75" y="267.375"/>
    </contour>
    <contour>
      <point x="294.25" y="719.375" type="curve"/>
      <point x="290.375" y="767.375"/>
      <point x="259.625" y="1153.375"/>
      <point x="255.25" y="1211.25" type="curve"/>
      <point x="282.5" y="1214.25"/>
      <point x="451.125" y="1227.25"/>
      <point x="494.125" y="1227.25" type="curve" smooth="yes"/>
      <point x="637.5" y="1227.25"/>
      <point x="773.375" y="1204.0"/>
      <point x="773.375" y="1003.5" type="curve" smooth="yes"/>
      <point x="773.375" y="872.875"/>
      <point x="740.125" y="794.5"/>
      <point x="509.5" y="742.25" type="curve" smooth="yes"/>
      <point x="427.0" y="723.875"/>
      <point x="363.625" y="719.375"/>
    </contour>
  </outline>
</glyph>
<glyph name="S" format="2">
  <advance width="1152.0"/>
  <unicode hex="0053"/>
  <anchor x="576.0" y="0.0" name="bottom"/>
  <anchor x="519.5" y="1321.5" name="top"/>
  <outline>
    <contour>
      <point x="570.875" y="-10.125" type="curve" smooth="yes"/>
      <point x="867.875" y="-10.125"/>
      <point x="1021.625" y="204.25"/>
      <point x="1021.625" y="397.25" type="curve" smooth="yes"/>
      <point x="1021.625" y="655.625"/>
      <point x="768.625" y="728.75"/>
      <point x="511.25" y="800.875" type="curve" smooth="yes"/>
      <point x="393.0" y="833.5"/>
      <point x="229.75" y="883.125"/>
      <point x="229.75" y="1028.5" type="curve" smooth="yes"/>
      <point x="229.75" y="1159.75"/>
      <point x="329.125" y="1247.625"/>
      <point x="494.25" y="1247.625" type="curve" smooth="yes"/>
      <point x="723.375" y="1247.625"/>
      <point x="855.375" y="1129.0"/>
      <point x="893.625" y="1081.125" type="curve"/>
      <point x="911.125" y="1096.875"/>
      <point x="946.5" y="1148.25"/>
      <point x="956.25" y="1169.75" type="curve"/>
      <point x="918.875" y="1227.25"/>
      <point x="736.25" y="1349.0"/>
      <point x="512.125" y="1349.0" type="curve" smooth="yes"/>
      <point x="293.5" y="1349.0"/>
      <point x="109.25" y="1251.875"/>
      <point x="109.25" y="1048.875" type="curve" smooth="yes"/>
      <point x="109.25" y="843.625"/>
      <point x="256.75" y="754.125"/>
      <point x="490.0" y="690.5" type="curve" smooth="yes"/>
      <point x="692.375" y="636.625"/>
      <point x="899.0" y="561.875"/>
      <point x="899.0" y="391.125" type="curve" smooth="yes"/>
      <point x="899.0" y="258.75"/>
      <point x="801.5" y="98.875"/>
      <point x="562.875" y="98.875" type="curve" smooth="yes"/>
      <point x="321.875" y="98.875"/>
      <point x="167.5" y="315.5"/>
      <point x="129.75" y="386.5" type="curve"/>
      <point x="104.375" y="370.0"/>
      <point x="53.5" y="327.0"/>
      <point x="36.5" y="308.25" type="curve"/>
      <point x="87.875" y="202.5"/>
      <point x="288.375" y="-10.125"/>
    </contour>
  </outline>
</glyph>
<glyph name="T" format="2">
  <advance width="1039.0"/>
  <unicode hex="0054"/>
  <anchor x="549.75" y="0.0" name="bottom"/>
  <anchor x="520.0" y="646.0" name="center"/>
  <anchor x="520.0" y="1291.0" name="top"/>
  <outline>
    <contour>
      <point x="43.125" y="1208.625" type="curve"/>
      <point x="136.0" y="1213.0"/>
      <point x="351.25" y="1220.375"/>
      <point x="465.0" y="1223.0" type="curve"/>
      <point x="464.875" y="1186.75"/>
      <point x="464.75" y="1137.75"/>
      <point x="464.75" y="1080.0" type="curve" smooth="yes"/>
      <point x="464.75" y="767.5"/>
      <point x="474.625" y="187.75"/>
      <point x="484.625" y="-14.0" type="curve"/>
      <point x="512.75" y="-14.0"/>
      <point x="588.75" y="-10.75"/>
      <point x="616.375" y="-6.125" type="curve"/>
      <point x="613.5" y="77.875"/>
      <point x="588.875" y="1050.25"/>
      <point x="586.125" y="1222.25" type="curve"/>
      <point x="711.75" y="1221.875"/>
      <point x="936.5" y="1218.375"/>
      <point x="996.625" y="1215.75" type="curve"/>
      <point x="998.5" y="1243.75"/>
      <point x="1000.0" y="1288.625"/>
      <point x="996.5" y="1322.875" type="curve"/>
      <point x="883.75" y="1336.375"/>
      <point x="744.625" y="1340.625"/>
      <point x="600.875" y="1340.625" type="curve" smooth="yes"/>
      <point x="398.25" y="1340.625"/>
      <point x="187.25" y="1331.5"/>
      <point x="34.0" y="1323.875" type="curve"/>
      <point x="34.0" y="1295.625"/>
      <point x="37.75" y="1238.375"/>
    </contour>
  </outline>
</glyph>
<glyph name="U" format="2">
  <advance width="1212.0"/>
  <unicode hex="0055"/>
  <anchor x="606.0" y="0.0" name="bottom"/>
  <anchor x="780.375" y="0.0" name="ogonek"/>
  <anchor x="606.0" y="1329.25" name="top"/>
  <anchor x="991.625" y="1174.0" name="topright"/>
  <outline>
    <contour>
      <point x="594.75" y="-41.0" type="curve" smooth="yes"/>
      <point x="968.5" y="-41.0"/>
      <point x="1037.5" y="318.25"/>
      <point x="1037.5" y="835.375" type="curve" smooth="yes"/>
      <point x="1037.5" y="999.25"/>
      <point x="1026.0" y="1192.375"/>
      <point x="1007.5" y="1313.5" type="curve"/>
      <point x="978.5" y="1322.375"/>
      <point x="915.125" y="1329.75"/>
      <point x="871.625" y="1329.75" type="curve"/>
      <point x="895.75" y="1156.625"/>
      <point x="905.75" y="884.625"/>
      <point x="905.75" y="725.75" type="curve" smooth="yes"/>
      <point x="905.75" y="311.875"/>
      <point x="815.25" y="85.25"/>
      <point x="610.625" y="85.25" type="curve" smooth="yes"/>
      <point x="457.25" y="85.25"/>
      <point x="359.875" y="180.375"/>
      <point x="312.25" y="383.625" type="curve" smooth="yes"/>
      <point x="288.5" y="483.375"/>
      <point x="277.375" y="611.25"/>
      <point x="277.375" y="767.875" type="curve" smooth="yes"/>
      <point x="277.375" y="942.125"/>
      <point x="287.0" y="1186.0"/>
      <point x="303.375" y="1358.625" type="curve"/>
      <point x="285.375" y="1362.125"/>
      <point x="254.5" y="1365.375"/>
      <point x="222.5" y="1365.375" type="curve" smooth="yes"/>
      <point x="201.5" y="1365.375"/>
      <point x="179.375" y="1363.0"/>
      <point x="162.0" y="1360.375" type="curve"/>
      <point x="156.375" y="1244.625"/>
      <point x="145.625" y="990.5"/>
      <point x="145.625" y="821.875" type="curve" smooth="yes"/>
      <point x="145.625" y="625.0"/>
      <point x="156.875" y="454.125"/>
      <point x="193.0" y="318.625" type="curve" smooth="yes"/>
      <point x="250.625" y="94.875"/>
      <point x="371.0" y="-41.0"/>
    </contour>
  </outline>
</glyph>
<glyph name="V" format="2">
  <advance width="1168.125"/>
  <unicode hex="0056"/>
  <anchor x="585.75" y="0.0" name="bottom"/>
  <anchor x="585.75" y="1291.0" name="top"/>
  <outline>
    <contour>
      <point x="587.875" y="-19.375" type="curve" smooth="yes"/>
      <point x="621.25" y="-19.375"/>
      <point x="648.375" y="-18.375"/>
      <point x="667.25" y="-16.0" type="curve"/>
      <point x="678.375" y="13.375"/>
      <point x="855.25" y="463.25"/>
      <point x="1054.375" y="1322.875" type="curve"/>
      <point x="1020.375" y="1343.75"/>
      <point x="967.125" y="1355.5"/>
      <point x="922.625" y="1359.875" type="curve"/>
      <point x="918.375" y="1331.75"/>
      <point x="784.0" y="637.5"/>
      <point x="585.5" y="96.375" type="curve"/>
      <point x="449.875" y="406.125"/>
      <point x="251.875" y="1189.5"/>
      <point x="232.0" y="1360.75" type="curve"/>
      <point x="199.5" y="1360.75"/>
      <point x="123.25" y="1350.5"/>
      <point x="95.375" y="1341.25" type="curve"/>
      <point x="125.625" y="1160.25"/>
      <point x="300.375" y="415.875"/>
      <point x="495.875" y="-10.0" type="curve"/>
      <point x="516.0" y="-16.0"/>
      <point x="555.125" y="-19.375"/>
    </contour>
  </outline>
</glyph>
<glyph name="W" format="2">
  <advance width="1344.0"/>
  <unicode hex="0057"/>
  <anchor x="672.0" y="0.0" name="bottom"/>
  <anchor x="672.0" y="1291.0" name="top"/>
  <outline>
    <contour>
      <point x="886.125" y="-16.75" type="curve"/>
      <point x="1015.25" y="-6.625" type="line"/>
      <point x="1037.75" y="54.125"/>
      <point x="1153.25" y="727.875"/>
      <point x="1153.25" y="1356.875" type="curve"/>
      <point x="1023.375" y="1344.75" type="line"/>
      <point x="1023.375" y="1018.125"/>
      <point x="991.75" y="465.0"/>
      <point x="937.625" y="153.25" type="curve"/>
      <point x="898.75" y="316.125"/>
      <point x="743.625" y="838.125"/>
      <point x="737.875" y="856.625" type="curve"/>
      <point x="624.0" y="856.625" type="line"/>
      <point x="606.875" y="825.0"/>
      <point x="371.5" y="359.375"/>
      <point x="318.0" y="184.5" type="curve"/>
      <point x="290.375" y="582.75"/>
      <point x="286.25" y="939.375"/>
      <point x="286.25" y="1340.0" type="curve"/>
      <point x="156.625" y="1345.5" type="line"/>
      <point x="156.625" y="908.5"/>
      <point x="176.375" y="544.875"/>
      <point x="225.5" y="-4.375" type="curve"/>
      <point x="340.375" y="-6.625" type="line"/>
      <point x="362.0" y="41.25"/>
      <point x="636.25" y="624.375"/>
      <point x="669.25" y="701.25" type="curve"/>
      <point x="698.875" y="615.125"/>
      <point x="833.75" y="167.875"/>
    </contour>
  </outline>
</glyph>
<glyph name="X" format="2">
  <advance width="1130.5"/>
  <unicode hex="0058"/>
  <anchor x="581.5" y="0.0" name="bottom"/>
  <anchor x="581.5" y="1291.0" name="top"/>
  <outline>
    <contour>
      <point x="533.125" y="645.125" type="curve"/>
      <point x="488.875" y="568.875"/>
      <point x="277.375" y="280.5"/>
      <point x="90.75" y="41.125" type="curve"/>
      <point x="135.0" y="17.875"/>
      <point x="172.625" y="2.125"/>
      <point x="218.75" y="-3.0" type="curve"/>
      <point x="231.875" y="14.0"/>
      <point x="575.5" y="502.5"/>
      <point x="600.125" y="550.5" type="curve"/>
      <point x="726.625" y="348.625"/>
      <point x="850.75" y="111.875"/>
      <point x="913.375" y="-19.875" type="curve"/>
      <point x="950.875" y="-16.5"/>
      <point x="999.5" y="-5.625"/>
      <point x="1037.375" y="18.875" type="curve"/>
      <point x="950.75" y="179.375"/>
      <point x="736.25" y="552.25"/>
      <point x="666.625" y="652.0" type="curve"/>
      <point x="709.875" y="711.5"/>
      <point x="931.75" y="1023.625"/>
      <point x="1030.875" y="1262.125" type="curve"/>
      <point x="1005.125" y="1279.5"/>
      <point x="961.875" y="1299.25"/>
      <point x="911.875" y="1310.5" type="curve"/>
      <point x="889.0" y="1245.75"/>
      <point x="754.125" y="950.625"/>
      <point x="606.0" y="744.875" type="curve"/>
      <point x="439.75" y="1040.0"/>
      <point x="292.75" y="1253.625"/>
      <point x="235.5" y="1330.375" type="curve"/>
      <point x="197.5" y="1324.125"/>
      <point x="143.75" y="1304.875"/>
      <point x="102.25" y="1285.75" type="curve"/>
      <point x="155.0" y="1222.25"/>
      <point x="374.375" y="933.5"/>
    </contour>
  </outline>
</glyph>
<glyph name="Y" format="2">
  <advance width="1065.0"/>
  <unicode hex="0059"/>
  <anchor x="574.25" y="0.0" name="bottom"/>
  <anchor x="574.25" y="1291.0" name="top"/>
  <anchor x="61.25" y="1291.0" name="topleft"/>
  <outline>
    <contour>
      <point x="487.5" y="500.75" type="curve"/>
      <point x="480.0" y="336.25"/>
      <point x="470.375" y="82.375"/>
      <point x="470.375" y="-5.75" type="curve"/>
      <point x="496.75" y="-9.625"/>
      <point x="522.625" y="-11.375"/>
      <point x="546.75" y="-11.375" type="curve" smooth="yes"/>
      <point x="567.75" y="-11.375"/>
      <point x="589.75" y="-9.625"/>
      <point x="605.0" y="-7.75" type="curve"/>
      <point x="602.625" y="22.5"/>
      <point x="602.75" y="162.75"/>
      <point x="602.75" y="251.75" type="curve" smooth="yes"/>
      <point x="602.75" y="321.625"/>
      <point x="602.125" y="459.5"/>
      <point x="601.375" y="506.125" type="curve"/>
      <point x="786.125" y="876.25"/>
      <point x="916.5" y="1115.125"/>
      <point x="999.5" y="1234.875" type="curve"/>
      <point x="969.625" y="1257.75"/>
      <point x="925.25" y="1287.375"/>
      <point x="875.25" y="1303.75" type="curve"/>
      <point x="816.5" y="1189.0"/>
      <point x="588.625" y="735.125"/>
      <point x="539.625" y="638.625" type="curve"/>
      <point x="457.75" y="798.75"/>
      <point x="264.5" y="1249.75"/>
      <point x="243.875" y="1318.875" type="curve"/>
      <point x="201.75" y="1314.5"/>
      <point x="154.875" y="1303.625"/>
      <point x="110.25" y="1286.75" type="curve"/>
      <point x="141.125" y="1210.75"/>
      <point x="437.375" y="577.25"/>
    </contour>
  </outline>
</glyph>
<glyph name="Z" format="2">
  <advance width="1044.0"/>
  <unicode hex="005A"/>
  <anchor x="522.0" y="0.0" name="bottom"/>
  <anchor x="522.0" y="646.0" name="center"/>
  <anchor x="522.0" y="1291.0" name="top"/>
  <outline>
    <contour>
      <point x="885.375" y="-14.0" type="curve"/>
      <point x="888.125" y="-0.375"/>
      <point x="892.0" y="28.125"/>
      <point x="893.75" y="57.625" type="curve" smooth="yes"/>
      <point x="895.5" y="81.875"/>
      <point x="895.875" y="106.625"/>
      <point x="895.375" y="124.0" type="curve"/>
      <point x="837.625" y="121.625"/>
      <point x="765.625" y="120.125"/>
      <point x="691.0" y="120.125" type="curve" smooth="yes"/>
      <point x="507.625" y="120.125"/>
      <point x="283.75" y="126.5"/>
      <point x="181.75" y="134.875" type="curve"/>
      <point x="277.875" y="243.875"/>
      <point x="725.0" y="873.375"/>
      <point x="902.5" y="1229.875" type="curve"/>
      <point x="904.75" y="1243.75"/>
      <point x="907.0" y="1267.125"/>
      <point x="907.0" y="1292.0" type="curve" smooth="yes"/>
      <point x="907.0" y="1304.625"/>
      <point x="906.625" y="1318.625"/>
      <point x="904.75" y="1330.0" type="curve"/>
      <point x="866.625" y="1330.5"/>
      <point x="734.625" y="1328.125"/>
      <point x="709.75" y="1327.25" type="curve" smooth="yes"/>
      <point x="532.625" y="1322.0"/>
      <point x="296.0" y="1306.875"/>
      <point x="107.125" y="1294.0" type="curve"/>
      <point x="105.75" y="1282.25"/>
      <point x="105.375" y="1260.125"/>
      <point x="105.375" y="1236.5" type="curve" smooth="yes"/>
      <point x="105.375" y="1214.75"/>
      <point x="105.875" y="1191.25"/>
      <point x="107.25" y="1179.0" type="curve"/>
      <point x="332.125" y="1197.5"/>
      <point x="703.875" y="1222.875"/>
      <point x="777.5" y="1222.875" type="curve"/>
      <point x="678.5" y="1039.75"/>
      <point x="233.875" y="352.625"/>
      <point x="43.875" y="132.5" type="curve"/>
      <point x="43.875" y="106.25"/>
      <point x="46.25" y="46.5"/>
      <point x="47.75" y="22.0" type="curve"/>
      <point x="371.625" y="-4.75"/>
      <point x="649.375" y="-14.0"/>
    </contour>
  </outline>
</glyph>
<glyph name="bracketleft" format="2">
  <advance width="735.0"/>
  <unicode hex="005B"/>
  <outline>
    <contour>
      <point x="326.5" y="-526.875" type="curve" smooth="yes"/>
      <point x="433.5" y="-526.875"/>
      <point x="537.125" y="-523.125"/>
      <point x="606.0" y="-516.875" type="curve"/>
      <point x="608.875" y="-498.875"/>
      <point x="613.25" y="-456.625"/>
      <point x="613.25" y="-429.875" type="curve"/>
      <point x="552.25" y="-431.625"/>
      <point x="458.5" y="-431.5"/>
      <point x="378.375" y="-431.25" type="curve" smooth="yes"/>
      <point x="295.625" y="-430.875"/>
      <point x="224.75" y="-430.5"/>
      <point x="207.375" y="-430.625" type="curve"/>
      <point x="191.25" y="-267.375"/>
      <point x="181.75" y="107.25"/>
      <point x="181.75" y="485.0" type="curve" smooth="yes"/>
      <point x="181.75" y="884.0"/>
      <point x="192.375" y="1289.25"/>
      <point x="218.25" y="1474.625" type="curve"/>
      <point x="378.375" y="1490.125"/>
      <point x="604.875" y="1505.0"/>
      <point x="680.375" y="1507.625" type="curve"/>
      <point x="682.625" y="1520.25"/>
      <point x="684.125" y="1535.25"/>
      <point x="685.25" y="1550.875" type="curve" smooth="yes"/>
      <point x="686.0" y="1568.0"/>
      <point x="685.75" y="1582.375"/>
      <point x="684.0" y="1594.5" type="curve"/>
      <point x="532.875" y="1594.25"/>
      <point x="244.0" y="1575.75"/>
      <point x="113.0" y="1550.5" type="curve"/>
      <point x="78.5" y="1302.125"/>
      <point x="62.0" y="930.25"/>
      <point x="62.0" y="537.375" type="curve" smooth="yes"/>
      <point x="62.0" y="173.0"/>
      <point x="75.375" y="-207.875"/>
      <point x="101.0" y="-521.25" type="curve"/>
      <point x="168.625" y="-524.75"/>
      <point x="248.125" y="-526.875"/>
    </contour>
  </outline>
</glyph>
<glyph name="backslash" format="2">
  <advance width="725.0"/>
  <unicode hex="005C"/>
  <outline>
    <contour>
      <point x="722.375" y="-31.125" type="curve"/>
      <point x="563.75" y="196.25"/>
      <point x="179.625" y="1249.0"/>
      <point x="128.875" y="1469.125" type="curve"/>
      <point x="94.75" y="1467.875"/>
      <point x="40.125" y="1454.0"/>
      <point x="25.25" y="1443.0" type="curve"/>
      <point x="179.875" y="901.5"/>
      <point x="377.75" y="385.5"/>
      <point x="618.375" y="-82.5" type="curve"/>
      <point x="643.0" y="-75.875"/>
      <point x="694.25" y="-53.875"/>
    </contour>
  </outline>
</glyph>
<glyph name="bracketright" format="2">
  <advance width="619.0"/>
  <unicode hex="005D"/>
  <outline>
    <contour>
      <point x="612.25" y="503.375" type="curve" smooth="yes"/>
      <point x="612.25" y="998.75"/>
      <point x="571.5" y="1375.75"/>
      <point x="530.5" y="1585.0" type="curve"/>
      <point x="400.875" y="1602.875"/>
      <point x="280.25" y="1608.5"/>
      <point x="148.0" y="1608.5" type="curve" smooth="yes"/>
      <point x="106.375" y="1608.5"/>
      <point x="46.75" y="1608.375"/>
      <point x="19.5" y="1608.125" type="curve"/>
      <point x="16.5" y="1584.25"/>
      <point x="14.875" y="1548.75"/>
      <point x="14.875" y="1527.375" type="curve"/>
      <point x="24.5" y="1524.75"/>
      <point x="46.375" y="1522.25"/>
      <point x="76.25" y="1520.0" type="curve" smooth="yes"/>
      <point x="174.5" y="1519.75"/>
      <point x="341.875" y="1518.0"/>
      <point x="435.5" y="1503.125" type="curve"/>
      <point x="471.375" y="1322.625"/>
      <point x="495.5" y="894.875"/>
      <point x="495.5" y="464.0" type="curve" smooth="yes"/>
      <point x="495.5" y="148.125"/>
      <point x="482.25" y="-171.125"/>
      <point x="451.75" y="-395.875" type="curve"/>
      <point x="410.75" y="-406.75"/>
      <point x="150.25" y="-427.375"/>
      <point x="39.625" y="-427.375" type="curve"/>
      <point x="37.875" y="-443.375"/>
      <point x="36.625" y="-496.25"/>
      <point x="37.25" y="-516.375" type="curve"/>
      <point x="159.0" y="-516.375"/>
      <point x="405.0" y="-506.0"/>
      <point x="560.0" y="-475.875" type="curve"/>
      <point x="595.75" y="-136.5"/>
      <point x="612.25" y="199.0"/>
    </contour>
  </outline>
</glyph>
<glyph name="asciicircum" format="2">
  <advance width="1032.0"/>
  <unicode hex="005E"/>
  <outline>
    <contour>
      <point x="605.625" y="1325.0" type="curve"/>
      <point x="595.25" y="1327.875"/>
      <point x="571.0" y="1331.75"/>
      <point x="544.625" y="1331.75" type="curve" smooth="yes"/>
      <point x="523.75" y="1331.75"/>
      <point x="500.875" y="1330.25"/>
      <point x="483.125" y="1326.0" type="curve"/>
      <point x="367.125" y="1217.0"/>
      <point x="140.5" y="976.0"/>
      <point x="17.0" y="812.0" type="curve"/>
      <point x="38.875" y="790.75"/>
      <point x="69.625" y="768.25"/>
      <point x="93.75" y="756.25" type="curve"/>
      <point x="171.625" y="858.875"/>
      <point x="444.25" y="1160.875"/>
      <point x="566.0" y="1273.625" type="curve"/>
      <point x="522.5" y="1269.75" type="line"/>
      <point x="596.875" y="1210.875"/>
      <point x="865.625" y="860.5"/>
      <point x="912.125" y="757.625" type="curve"/>
      <point x="943.125" y="767.875"/>
      <point x="973.75" y="784.375"/>
      <point x="993.0" y="805.0" type="curve"/>
      <point x="920.0" y="972.5"/>
      <point x="693.75" y="1240.5"/>
    </contour>
  </outline>
</glyph>
<glyph name="underscore" format="2">
  <advance width="1549.0"/>
  <unicode hex="005F"/>
  <outline>
    <contour>
      <point x="465.25" y="8.125" type="curve" smooth="yes"/>
      <point x="390.125" y="8.125"/>
      <point x="96.625" y="8.125"/>
      <point x="34.25" y="10.125" type="curve"/>
      <point x="35.125" y="-17.375"/>
      <point x="40.0" y="-74.25"/>
      <point x="42.5" y="-88.375" type="curve"/>
      <point x="222.25" y="-91.25"/>
      <point x="927.5" y="-96.875"/>
      <point x="1176.75" y="-96.875" type="curve" smooth="yes"/>
      <point x="1292.625" y="-96.875"/>
      <point x="1379.875" y="-95.5"/>
      <point x="1438.0" y="-92.5" type="curve"/>
      <point x="1442.25" y="-69.625"/>
      <point x="1446.0" y="-32.625"/>
      <point x="1446.0" y="24.75" type="curve"/>
      <point x="1240.5" y="18.125"/>
      <point x="892.125" y="8.125"/>
    </contour>
  </outline>
</glyph>
<glyph name="a" format="2">
  <advance width="1295.0"/>
  <unicode hex="0061"/>
  <anchor x="617.5" y="0.0" name="bottom"/>
  <anchor x="1171.0" y="6.125" name="ogonek"/>
  <anchor x="617.5" y="1063.0" name="top"/>
  <outline>
    <contour>
      <point x="543.375" y="-22.875" type="curve" smooth="yes"/>
      <point x="737.875" y="-22.875"/>
      <point x="911.25" y="73.125"/>
      <point x="957.5" y="144.25" type="curve"/>
      <point x="965.125" y="81.75"/>
      <point x="1020.875" y="-1.375"/>
      <point x="1128.5" y="-1.375" type="curve" smooth="yes"/>
      <point x="1216.75" y="-1.375"/>
      <point x="1304.5" y="67.25"/>
      <point x="1307.0" y="213.375" type="curve"/>
      <point x="1215.5" y="257.375" type="line"/>
      <point x="1214.125" y="168.5"/>
      <point x="1180.875" y="117.625"/>
      <point x="1133.25" y="117.625" type="curve" smooth="yes"/>
      <point x="1096.375" y="117.625"/>
      <point x="1077.0" y="131.0"/>
      <point x="1069.125" y="208.75" type="curve" smooth="yes"/>
      <point x="1062.125" y="271.25"/>
      <point x="1060.0" y="369.0"/>
      <point x="1059.125" y="528.0" type="curve" smooth="yes"/>
      <point x="1057.75" y="665.375"/>
      <point x="1036.75" y="742.375"/>
      <point x="1002.0" y="816.75" type="curve" smooth="yes"/>
      <point x="936.75" y="955.0"/>
      <point x="786.375" y="1057.625"/>
      <point x="569.5" y="1057.625" type="curve" smooth="yes"/>
      <point x="353.75" y="1057.625"/>
      <point x="181.125" y="960.5"/>
      <point x="97.0" y="827.875" type="curve"/>
      <point x="203.5" y="755.75" type="line"/>
      <point x="263.375" y="861.5"/>
      <point x="382.625" y="950.0"/>
      <point x="563.25" y="950.0" type="curve" smooth="yes"/>
      <point x="730.25" y="950.0"/>
      <point x="848.625" y="869.75"/>
      <point x="905.25" y="756.5" type="curve" smooth="yes"/>
      <point x="926.625" y="716.125"/>
      <point x="936.25" y="664.875"/>
      <point x="942.375" y="613.25" type="curve"/>
      <point x="910.375" y="624.875"/>
      <point x="750.75" y="666.25"/>
      <point x="599.5" y="666.25" type="curve" smooth="yes"/>
      <point x="304.875" y="666.25"/>
      <point x="95.25" y="546.0"/>
      <point x="95.25" y="314.25" type="curve" smooth="yes"/>
      <point x="95.25" y="69.125"/>
      <point x="292.125" y="-22.875"/>
    </contour>
    <contour>
      <point x="558.625" y="82.125" type="curve" smooth="yes"/>
      <point x="362.375" y="82.125"/>
      <point x="219.375" y="130.625"/>
      <point x="219.375" y="318.5" type="curve" smooth="yes"/>
      <point x="219.375" y="468.5"/>
      <point x="379.0" y="565.625"/>
      <point x="595.75" y="565.625" type="curve" smooth="yes"/>
      <point x="764.0" y="565.625"/>
      <point x="902.875" y="528.5"/>
      <point x="947.0" y="514.0" type="curve"/>
      <point x="942.625" y="443.0"/>
      <point x="939.625" y="369.25"/>
      <point x="940.125" y="260.625" type="curve"/>
      <point x="854.625" y="157.25"/>
      <point x="711.125" y="82.125"/>
    </contour>
  </outline>
</glyph>
<glyph name="b" format="2">
  <advance width="1200.0"/>
  <unicode hex="0062"/>
  <anchor x="602.5" y="0.0" name="bottom"/>
  <anchor x="602.5" y="1470.0" name="top"/>
  <outline>
    <contour>
      <point x="201.375" y="-19.5" type="curve"/>
      <point x="233.625" y="-21.125"/>
      <point x="307.0" y="-20.0"/>
      <point x="338.625" y="-19.0" type="curve"/>
      <point x="338.5" y="9.375"/>
      <point x="336.125" y="74.125"/>
      <point x="333.25" y="113.125" type="curve"/>
      <point x="375.25" y="75.625"/>
      <point x="468.625" y="5.25"/>
      <point x="631.0" y="5.25" type="curve" smooth="yes"/>
      <point x="889.125" y="5.25"/>
      <point x="1033.125" y="164.25"/>
      <point x="1033.125" y="429.5" type="curve" smooth="yes"/>
      <point x="1033.125" y="707.25"/>
      <point x="902.25" y="922.375"/>
      <point x="648.25" y="922.375" type="curve" smooth="yes"/>
      <point x="467.0" y="922.375"/>
      <point x="323.625" y="776.125"/>
      <point x="299.0" y="749.25" type="curve"/>
      <point x="287.375" y="989.0"/>
      <point x="276.75" y="1281.625"/>
      <point x="276.75" y="1439.5" type="curve"/>
      <point x="231.875" y="1435.5"/>
      <point x="175.875" y="1430.125"/>
      <point x="157.875" y="1427.0" type="curve"/>
      <point x="157.875" y="1215.0"/>
      <point x="189.375" y="144.5"/>
    </contour>
    <contour>
      <point x="330.125" y="238.875" type="curve"/>
      <point x="328.125" y="275.75"/>
      <point x="308.375" y="570.0"/>
      <point x="305.75" y="610.375" type="curve"/>
      <point x="368.75" y="687.75"/>
      <point x="476.625" y="813.875"/>
      <point x="634.0" y="813.875" type="curve" smooth="yes"/>
      <point x="825.75" y="813.875"/>
      <point x="915.5" y="635.375"/>
      <point x="915.5" y="426.5" type="curve" smooth="yes"/>
      <point x="915.5" y="239.875"/>
      <point x="825.5" y="119.75"/>
      <point x="628.375" y="119.75" type="curve" smooth="yes"/>
      <point x="468.0" y="119.75"/>
      <point x="361.125" y="205.25"/>
    </contour>
  </outline>
</glyph>
<glyph name="c" format="2">
  <advance width="1026.0"/>
  <unicode hex="0063"/>
  <anchor x="513.0" y="0.0" name="bottom"/>
  <anchor x="513.0" y="1063.0" name="top"/>
  <outline>
    <contour>
      <point x="934.375" y="204.5" type="curve"/>
      <point x="846.375" y="277.875" type="line"/>
      <point x="834.125" y="257.625"/>
      <point x="740.75" y="113.0"/>
      <point x="547.75" y="113.0" type="curve" smooth="yes"/>
      <point x="306.5" y="113.0"/>
      <point x="205.875" y="328.0"/>
      <point x="205.875" y="575.25" type="curve" smooth="yes"/>
      <point x="205.875" y="818.625"/>
      <point x="327.125" y="993.375"/>
      <point x="541.375" y="993.375" type="curve" smooth="yes"/>
      <point x="752.375" y="993.375"/>
      <point x="814.375" y="844.25"/>
      <point x="828.375" y="807.25" type="curve"/>
      <point x="914.625" y="876.875" type="line"/>
      <point x="864.875" y="983.875"/>
      <point x="733.75" y="1094.25"/>
      <point x="549.25" y="1094.25" type="curve" smooth="yes"/>
      <point x="237.25" y="1094.25"/>
      <point x="82.0" y="868.625"/>
      <point x="82.0" y="538.625" type="curve" smooth="yes"/>
      <point x="82.0" y="244.375"/>
      <point x="251.375" y="-5.0"/>
      <point x="539.5" y="-5.0" type="curve" smooth="yes"/>
      <point x="745.875" y="-5.0"/>
      <point x="892.625" y="112.0"/>
    </contour>
  </outline>
</glyph>
<glyph name="d" format="2">
  <advance width="1195.0"/>
  <unicode hex="0064"/>
  <anchor x="598.0" y="0.0" name="bottom"/>
  <anchor x="876.875" y="1216.375" name="center"/>
  <anchor x="598.0" y="1470.0" name="top"/>
  <anchor x="1075.0" y="1012.25" name="topright"/>
  <outline>
    <contour>
      <point x="899.75" y="3.0" type="curve"/>
      <point x="916.875" y="1.125"/>
      <point x="991.875" y="-0.125"/>
      <point x="1013.75" y="-0.125" type="curve"/>
      <point x="1013.75" y="466.0"/>
      <point x="1016.25" y="932.25"/>
      <point x="1054.5" y="1403.875" type="curve"/>
      <point x="1027.125" y="1407.875"/>
      <point x="978.375" y="1411.0"/>
      <point x="941.375" y="1411.0" type="curve"/>
      <point x="932.75" y="1329.375"/>
      <point x="908.75" y="958.5"/>
      <point x="904.875" y="839.625" type="curve"/>
      <point x="861.125" y="876.5"/>
      <point x="730.25" y="959.0"/>
      <point x="529.5" y="959.0" type="curve" smooth="yes"/>
      <point x="230.375" y="959.0"/>
      <point x="79.125" y="727.375"/>
      <point x="79.125" y="471.625" type="curve" smooth="yes"/>
      <point x="79.125" y="186.0"/>
      <point x="232.125" y="6.625"/>
      <point x="511.875" y="6.625" type="curve" smooth="yes"/>
      <point x="783.875" y="6.625"/>
      <point x="887.75" y="169.375"/>
      <point x="899.0" y="192.625" type="curve"/>
      <point x="899.0" y="162.75"/>
      <point x="899.25" y="41.0"/>
    </contour>
    <contour>
      <point x="536.5" y="119.25" type="curve" smooth="yes"/>
      <point x="319.0" y="119.25"/>
      <point x="198.625" y="238.375"/>
      <point x="198.625" y="472.75" type="curve" smooth="yes"/>
      <point x="198.625" y="705.125"/>
      <point x="319.0" y="848.625"/>
      <point x="550.625" y="848.625" type="curve" smooth="yes"/>
      <point x="718.875" y="848.625"/>
      <point x="852.625" y="767.875"/>
      <point x="900.75" y="726.875" type="curve"/>
      <point x="898.75" y="662.5"/>
      <point x="896.125" y="404.5"/>
      <point x="896.125" y="335.5" type="curve"/>
      <point x="875.75" y="294.625"/>
      <point x="769.875" y="119.25"/>
    </contour>
  </outline>
</glyph>
<glyph name="e" format="2">
  <advance width="1095.875"/>
  <unicode hex="0065"/>
  <anchor x="558.0" y="10.0" name="bottom"/>
  <anchor x="741.875" y="48.125" name="ogonek"/>
  <anchor x="603.875" y="1069.125" name="top"/>
  <outline>
    <contour>
      <point x="1033.75" y="251.5" type="curve"/>
      <point x="1020.75" y="281.125"/>
      <point x="964.375" y="332.75"/>
      <point x="947.375" y="346.625" type="curve"/>
      <point x="931.375" y="325.125"/>
      <point x="825.75" y="132.0"/>
      <point x="581.0" y="132.0" type="curve" smooth="yes"/>
      <point x="417.25" y="132.0"/>
      <point x="263.625" y="225.75"/>
      <point x="224.25" y="375.375" type="curve" smooth="yes"/>
      <point x="214.875" y="412.125"/>
      <point x="207.625" y="452.0"/>
      <point x="206.75" y="495.125" type="curve"/>
      <point x="340.625" y="514.625"/>
      <point x="515.0" y="532.625"/>
      <point x="662.625" y="532.625" type="curve" smooth="yes"/>
      <point x="792.5" y="532.625"/>
      <point x="967.875" y="523.25"/>
      <point x="998.625" y="521.25" type="curve"/>
      <point x="999.875" y="561.375"/>
      <point x="998.625" y="599.125"/>
      <point x="995.125" y="637.25" type="curve" smooth="yes"/>
      <point x="971.5" y="895.5"/>
      <point x="837.75" y="1069.125"/>
      <point x="593.875" y="1069.125" type="curve" smooth="yes"/>
      <point x="302.875" y="1069.125"/>
      <point x="83.25" y="871.375"/>
      <point x="83.25" y="557.625" type="curve" smooth="yes"/>
      <point x="83.25" y="218.125"/>
      <point x="272.875" y="21.625"/>
      <point x="572.625" y="21.625" type="curve" smooth="yes"/>
      <point x="837.25" y="21.625"/>
      <point x="991.5" y="187.125"/>
    </contour>
    <contour>
      <point x="203.625" y="593.75" type="curve"/>
      <point x="209.5" y="836.375"/>
      <point x="381.125" y="964.875"/>
      <point x="585.125" y="964.875" type="curve" smooth="yes"/>
      <point x="765.25" y="964.875"/>
      <point x="844.5" y="828.0"/>
      <point x="870.0" y="710.75" type="curve" smooth="yes"/>
      <point x="876.5" y="679.75"/>
      <point x="879.375" y="649.625"/>
      <point x="879.375" y="624.75" type="curve"/>
      <point x="851.0" y="626.625"/>
      <point x="783.0" y="630.375"/>
      <point x="680.125" y="630.375" type="curve" smooth="yes"/>
      <point x="480.0" y="630.375"/>
      <point x="322.875" y="612.875"/>
    </contour>
  </outline>
</glyph>
<glyph name="f" format="2">
  <advance width="896.0"/>
  <unicode hex="0066"/>
  <anchor x="448.0" y="0.0" name="bottom"/>
  <anchor x="448.0" y="1470.0" name="top"/>
  <outline>
    <contour>
      <point x="327.875" y="-0.125" type="curve"/>
      <point x="358.75" y="0.75"/>
      <point x="425.75" y="9.0"/>
      <point x="459.875" y="17.125" type="curve"/>
      <point x="447.25" y="50.625"/>
      <point x="377.375" y="398.25"/>
      <point x="352.25" y="569.5" type="curve"/>
      <point x="470.25" y="584.875"/>
      <point x="645.875" y="597.5"/>
      <point x="664.875" y="597.5" type="curve"/>
      <point x="664.875" y="631.125"/>
      <point x="661.875" y="676.625"/>
      <point x="657.125" y="704.125" type="curve"/>
      <point x="588.375" y="704.875"/>
      <point x="405.0" y="687.375"/>
      <point x="337.125" y="678.625" type="curve"/>
      <point x="329.125" y="741.0"/>
      <point x="320.25" y="841.125"/>
      <point x="320.25" y="906.5" type="curve" smooth="yes"/>
      <point x="320.25" y="1085.75"/>
      <point x="365.25" y="1252.875"/>
      <point x="537.875" y="1252.875" type="curve" smooth="yes"/>
      <point x="702.5" y="1252.875"/>
      <point x="780.375" y="1064.0"/>
      <point x="796.125" y="1027.5" type="curve"/>
      <point x="815.0" y="1043.75"/>
      <point x="862.125" y="1094.875"/>
      <point x="878.375" y="1119.375" type="curve"/>
      <point x="854.625" y="1179.25"/>
      <point x="743.125" y="1366.625"/>
      <point x="531.375" y="1366.625" type="curve" smooth="yes"/>
      <point x="303.125" y="1366.625"/>
      <point x="200.5" y="1165.375"/>
      <point x="200.5" y="919.875" type="curve" smooth="yes"/>
      <point x="200.5" y="840.375"/>
      <point x="208.875" y="745.0"/>
      <point x="219.375" y="659.25" type="curve"/>
      <point x="192.625" y="654.25"/>
      <point x="45.375" y="618.875"/>
      <point x="20.5" y="609.0" type="curve"/>
      <point x="23.125" y="576.75"/>
      <point x="31.0" y="532.125"/>
      <point x="41.0" y="503.125" type="curve"/>
      <point x="82.0" y="518.125"/>
      <point x="173.0" y="540.875"/>
      <point x="230.25" y="551.75" type="curve"/>
      <point x="258.375" y="350.125"/>
      <point x="323.375" y="22.875"/>
    </contour>
  </outline>
</glyph>
<glyph name="g" format="2">
  <advance width="1231.0"/>
  <unicode hex="0067"/>
  <anchor x="616.0" y="-530.0" name="bottom"/>
  <anchor x="616.0" y="1063.0" name="top"/>
  <outline>
    <contour>
      <point x="631.5" y="213.625" type="curve" smooth="yes"/>
      <point x="874.25" y="213.625"/>
      <point x="1061.5" y="376.375"/>
      <point x="1061.5" y="647.25" type="curve" smooth="yes"/>
      <point x="1061.5" y="754.125"/>
      <point x="1032.0" y="842.75"/>
      <point x="978.0" y="909.375" type="curve"/>
      <point x="1025.125" y="960.25"/>
      <point x="1094.75" y="1026.625"/>
      <point x="1118.75" y="1044.375" type="curve"/>
      <point x="1102.25" y="1059.875"/>
      <point x="1054.75" y="1116.75"/>
      <point x="1041.75" y="1136.125" type="curve"/>
      <point x="1001.375" y="1100.25"/>
      <point x="944.875" y="1036.875"/>
      <point x="904.5" y="975.125" type="curve"/>
      <point x="831.625" y="1027.5"/>
      <point x="732.75" y="1056.0"/>
      <point x="614.75" y="1056.0" type="curve" smooth="yes"/>
      <point x="367.5" y="1056.0"/>
      <point x="168.125" y="899.5"/>
      <point x="168.125" y="638.625" type="curve" smooth="yes"/>
      <point x="168.125" y="532.0"/>
      <point x="198.125" y="426.375"/>
      <point x="270.375" y="347.5" type="curve"/>
      <point x="207.875" y="319.75"/>
      <point x="166.125" y="260.375"/>
      <point x="166.125" y="199.875" type="curve" smooth="yes"/>
      <point x="166.125" y="147.25"/>
      <point x="197.875" y="91.25"/>
      <point x="260.625" y="54.75" type="curve"/>
      <point x="141.875" y="8.375"/>
      <point x="72.75" y="-87.5"/>
      <point x="72.75" y="-199.5" type="curve" smooth="yes"/>
      <point x="72.75" y="-431.0"/>
      <point x="287.0" y="-499.0"/>
      <point x="577.25" y="-499.0" type="curve" smooth="yes"/>
      <point x="896.25" y="-499.0"/>
      <point x="1086.125" y="-400.25"/>
      <point x="1086.125" y="-166.375" type="curve" smooth="yes"/>
      <point x="1086.125" y="9.75"/>
      <point x="928.625" y="88.875"/>
      <point x="716.625" y="88.875" type="curve" smooth="yes"/>
      <point x="630.625" y="88.875"/>
      <point x="520.375" y="88.375"/>
      <point x="420.125" y="87.625" type="curve"/>
      <point x="333.875" y="93.75"/>
      <point x="275.5" y="149.75"/>
      <point x="275.5" y="203.375" type="curve" smooth="yes"/>
      <point x="275.5" y="235.625"/>
      <point x="295.625" y="268.875"/>
      <point x="343.75" y="292.375" type="curve"/>
      <point x="413.0" y="243.375"/>
      <point x="507.125" y="213.625"/>
    </contour>
    <contour>
      <point x="593.875" y="-408.375" type="curve" smooth="yes"/>
      <point x="388.5" y="-408.375"/>
      <point x="200.875" y="-371.5"/>
      <point x="200.875" y="-201.875" type="curve" smooth="yes"/>
      <point x="200.875" y="-47.25"/>
      <point x="334.125" y="-5.25"/>
      <point x="425.625" y="-5.25" type="curve" smooth="yes"/>
      <point x="703.25" y="-5.25" type="line" smooth="yes"/>
      <point x="813.25" y="-5.25"/>
      <point x="963.125" y="-35.375"/>
      <point x="963.125" y="-183.875" type="curve" smooth="yes"/>
      <point x="963.125" y="-359.25"/>
      <point x="791.25" y="-408.375"/>
    </contour>
    <contour>
      <point x="613.625" y="317.5" type="curve" smooth="yes"/>
      <point x="419.75" y="317.5"/>
      <point x="294.0" y="449.125"/>
      <point x="294.0" y="644.125" type="curve" smooth="yes"/>
      <point x="294.0" y="861.25"/>
      <point x="432.5" y="949.0"/>
      <point x="632.5" y="949.0" type="curve" smooth="yes"/>
      <point x="822.375" y="949.0"/>
      <point x="947.25" y="821.0"/>
      <point x="947.25" y="653.125" type="curve" smooth="yes"/>
      <point x="947.25" y="465.25"/>
      <point x="852.5" y="317.5"/>
    </contour>
  </outline>
</glyph>
<glyph name="h" format="2">
  <advance width="1123.0"/>
  <unicode hex="0068"/>
  <anchor x="563.25" y="0.0" name="bottom"/>
  <anchor x="335.375" y="1255.5" name="center"/>
  <anchor x="197.0" y="1407.125" name="top"/>
  <outline>
    <contour>
      <point x="275.875" y="-26.0" type="curve"/>
      <point x="290.375" y="64.625"/>
      <point x="304.125" y="342.25"/>
      <point x="304.125" y="573.375" type="curve"/>
      <point x="315.25" y="601.25"/>
      <point x="467.5" y="796.125"/>
      <point x="647.75" y="796.125" type="curve" smooth="yes"/>
      <point x="809.5" y="796.125"/>
      <point x="839.875" y="665.75"/>
      <point x="839.875" y="480.5" type="curve" smooth="yes"/>
      <point x="839.875" y="320.0"/>
      <point x="813.625" y="125.75"/>
      <point x="794.625" y="-8.5" type="curve"/>
      <point x="809.375" y="-10.75"/>
      <point x="835.875" y="-13.25"/>
      <point x="860.75" y="-13.25" type="curve" smooth="yes"/>
      <point x="884.875" y="-13.25"/>
      <point x="909.125" y="-12.625"/>
      <point x="928.5" y="-11.375" type="curve"/>
      <point x="946.5" y="153.875"/>
      <point x="966.75" y="358.25"/>
      <point x="966.75" y="504.125" type="curve" smooth="yes"/>
      <point x="966.75" y="742.25"/>
      <point x="888.375" y="909.5"/>
      <point x="683.875" y="909.5" type="curve" smooth="yes"/>
      <point x="525.875" y="909.5"/>
      <point x="371.5" y="810.5"/>
      <point x="303.5" y="718.0" type="curve"/>
      <point x="302.375" y="989.75"/>
      <point x="289.625" y="1292.0"/>
      <point x="259.5" y="1443.0" type="curve"/>
      <point x="236.5" y="1441.25"/>
      <point x="170.375" y="1427.75"/>
      <point x="151.25" y="1420.75" type="curve"/>
      <point x="163.5" y="1226.5"/>
      <point x="173.625" y="966.0"/>
      <point x="173.625" y="714.25" type="curve" smooth="yes"/>
      <point x="173.625" y="415.375"/>
      <point x="161.125" y="131.125"/>
      <point x="142.875" y="-22.375" type="curve"/>
      <point x="154.25" y="-25.0"/>
      <point x="184.25" y="-27.375"/>
      <point x="208.25" y="-27.375" type="curve" smooth="yes"/>
      <point x="233.125" y="-27.375"/>
      <point x="258.875" y="-26.875"/>
    </contour>
  </outline>
</glyph>
<glyph name="i" format="2">
  <advance width="610.0"/>
  <unicode hex="0069"/>
  <anchor x="279.125" y="0.0" name="bottom"/>
  <outline>
    <contour>
      <point x="338.125" y="-2.25" type="curve"/>
      <point x="349.125" y="91.75"/>
      <point x="357.375" y="506.0"/>
      <point x="357.375" y="757.375" type="curve" smooth="yes"/>
      <point x="357.375" y="836.25"/>
      <point x="355.75" y="901.75"/>
      <point x="353.75" y="934.625" type="curve"/>
      <point x="333.125" y="934.625"/>
      <point x="258.0" y="930.125"/>
      <point x="244.0" y="928.625" type="curve"/>
      <point x="244.0" y="725.0"/>
      <point x="218.875" y="85.875"/>
      <point x="203.875" y="-1.125" type="curve"/>
      <point x="221.5" y="-3.875"/>
      <point x="243.75" y="-6.0"/>
      <point x="271.5" y="-6.0" type="curve" smooth="yes"/>
      <point x="294.0" y="-6.0"/>
      <point x="319.375" y="-4.25"/>
    </contour>
    <contour>
      <point x="311.125" y="1108.625" type="curve" smooth="yes"/>
      <point x="372.75" y="1108.625"/>
      <point x="405.875" y="1158.0"/>
      <point x="405.875" y="1213.75" type="curve" smooth="yes"/>
      <point x="405.875" y="1280.125"/>
      <point x="370.625" y="1334.375"/>
      <point x="308.75" y="1334.375" type="curve" smooth="yes"/>
      <point x="251.375" y="1334.375"/>
      <point x="205.0" y="1295.875"/>
      <point x="205.0" y="1222.125" type="curve" smooth="yes"/>
      <point x="205.0" y="1160.5"/>
      <point x="240.25" y="1108.625"/>
    </contour>
  </outline>
</glyph>
<glyph name="j" format="2">
  <advance width="623.375"/>
  <unicode hex="006A"/>
  <outline>
    <contour>
      <point x="457.625" y="165.5" type="curve" smooth="yes"/>
      <point x="457.625" y="419.125"/>
      <point x="424.75" y="742.75"/>
      <point x="374.875" y="984.25" type="curve"/>
      <point x="255.125" y="974.875" type="line"/>
      <point x="299.375" y="708.25"/>
      <point x="331.25" y="415.125"/>
      <point x="331.25" y="178.875" type="curve" smooth="yes"/>
      <point x="331.25" y="-63.0"/>
      <point x="304.125" y="-354.375"/>
      <point x="125.25" y="-354.375" type="curve" smooth="yes"/>
      <point x="-15.375" y="-354.375"/>
      <point x="-110.75" y="-209.625"/>
      <point x="-152.625" y="-98.375" type="curve"/>
      <point x="-184.75" y="-115.875"/>
      <point x="-240.5" y="-146.75"/>
      <point x="-268.375" y="-171.5" type="curve"/>
      <point x="-201.75" y="-347.0"/>
      <point x="-51.625" y="-464.0"/>
      <point x="130.375" y="-464.0" type="curve" smooth="yes"/>
      <point x="400.375" y="-464.0"/>
      <point x="457.625" y="-184.375"/>
    </contour>
    <contour>
      <point x="287.0" y="1353.5" type="curve" smooth="yes"/>
      <point x="225.25" y="1353.5"/>
      <point x="180.0" y="1310.5"/>
      <point x="180.0" y="1251.375" type="curve" smooth="yes"/>
      <point x="180.0" y="1192.5"/>
      <point x="227.75" y="1157.625"/>
      <point x="281.5" y="1157.625" type="curve" smooth="yes"/>
      <point x="340.375" y="1157.625"/>
      <point x="384.625" y="1194.75"/>
      <point x="384.625" y="1252.5" type="curve" smooth="yes"/>
      <point x="384.625" y="1304.125"/>
      <point x="346.625" y="1353.5"/>
    </contour>
  </outline>
</glyph>
<glyph name="k" format="2">
  <advance width="1156.0"/>
  <unicode hex="006B"/>
  <anchor x="595.5" y="0.0" name="bottom"/>
  <anchor x="595.5" y="1470.0" name="top"/>
  <outline>
    <contour>
      <point x="944.875" y="-37.0" type="curve"/>
      <point x="968.25" y="-28.75"/>
      <point x="1039.0" y="2.25"/>
      <point x="1051.375" y="10.5" type="curve"/>
      <point x="914.25" y="230.875"/>
      <point x="628.875" y="577.25"/>
      <point x="566.125" y="632.0" type="curve"/>
      <point x="663.25" y="708.625"/>
      <point x="945.0" y="867.375"/>
      <point x="1027.625" y="908.5" type="curve"/>
      <point x="1017.75" y="926.625"/>
      <point x="986.875" y="970.5"/>
      <point x="962.375" y="999.875" type="curve"/>
      <point x="839.25" y="934.625"/>
      <point x="479.125" y="735.75"/>
      <point x="311.25" y="565.5" type="curve"/>
      <point x="317.125" y="681.75"/>
      <point x="331.875" y="1201.125"/>
      <point x="331.875" y="1443.75" type="curve"/>
      <point x="317.5" y="1447.125"/>
      <point x="295.0" y="1449.0"/>
      <point x="271.125" y="1449.0" type="curve" smooth="yes"/>
      <point x="249.625" y="1449.0"/>
      <point x="227.875" y="1448.5"/>
      <point x="214.0" y="1447.875" type="curve"/>
      <point x="214.0" y="1238.25"/>
      <point x="168.625" y="80.5"/>
      <point x="160.0" y="-29.5" type="curve"/>
      <point x="180.375" y="-32.875"/>
      <point x="204.375" y="-35.375"/>
      <point x="226.875" y="-35.375" type="curve" smooth="yes"/>
      <point x="249.0" y="-35.375"/>
      <point x="269.125" y="-33.25"/>
      <point x="284.875" y="-30.625" type="curve"/>
      <point x="289.0" y="25.5"/>
      <point x="303.75" y="305.125"/>
      <point x="306.625" y="421.0" type="curve"/>
      <point x="324.625" y="440.625"/>
      <point x="434.25" y="529.25"/>
      <point x="479.75" y="565.0" type="curve"/>
      <point x="579.25" y="471.25"/>
      <point x="858.375" y="104.75"/>
    </contour>
  </outline>
</glyph>
<glyph name="l" format="2">
  <advance width="645.0"/>
  <unicode hex="006C"/>
  <anchor x="325.5" y="0.0" name="bottom"/>
  <anchor x="325.5" y="735.0" name="center"/>
  <anchor x="325.5" y="1470.0" name="top"/>
  <anchor x="372.5" y="1026.125" name="topright"/>
  <outline>
    <contour>
      <point x="602.0" y="76.125" type="curve"/>
      <point x="595.375" y="88.75"/>
      <point x="550.0" y="151.375"/>
      <point x="534.625" y="165.0" type="curve"/>
      <point x="512.25" y="117.0"/>
      <point x="486.25" y="82.5"/>
      <point x="427.75" y="82.5" type="curve" smooth="yes"/>
      <point x="304.375" y="82.5"/>
      <point x="286.75" y="265.125"/>
      <point x="286.75" y="431.625" type="curve" smooth="yes"/>
      <point x="286.75" y="696.5"/>
      <point x="311.125" y="1222.375"/>
      <point x="321.625" y="1426.0" type="curve"/>
      <point x="301.5" y="1429.375"/>
      <point x="278.375" y="1431.5"/>
      <point x="254.0" y="1431.5" type="curve" smooth="yes"/>
      <point x="238.625" y="1431.5"/>
      <point x="217.375" y="1430.375"/>
      <point x="201.25" y="1429.0" type="curve"/>
      <point x="191.375" y="1206.625"/>
      <point x="171.5" y="689.0"/>
      <point x="171.5" y="446.125" type="curve" smooth="yes"/>
      <point x="171.5" y="172.125"/>
      <point x="193.625" y="-33.375"/>
      <point x="412.875" y="-33.375" type="curve" smooth="yes"/>
      <point x="512.875" y="-33.375"/>
      <point x="576.5" y="28.75"/>
    </contour>
  </outline>
</glyph>
<glyph name="m" format="2">
  <advance width="1858.0"/>
  <unicode hex="006D"/>
  <anchor x="929.0" y="0.0" name="bottom"/>
  <anchor x="929.0" y="1063.0" name="top"/>
  <outline>
    <contour>
      <point x="211.5" y="-9.625" type="curve"/>
      <point x="230.5" y="-13.75"/>
      <point x="259.5" y="-16.125"/>
      <point x="288.625" y="-16.125" type="curve" smooth="yes"/>
      <point x="304.375" y="-16.125"/>
      <point x="329.875" y="-14.125"/>
      <point x="339.75" y="-13.125" type="curve"/>
      <point x="332.5" y="40.5"/>
      <point x="305.25" y="260.0"/>
      <point x="293.25" y="579.875" type="curve"/>
      <point x="296.75" y="687.25"/>
      <point x="447.0" y="916.5"/>
      <point x="627.125" y="916.5" type="curve" smooth="yes"/>
      <point x="858.375" y="916.5"/>
      <point x="887.75" y="560.5"/>
      <point x="887.75" y="248.125" type="curve" smooth="yes"/>
      <point x="887.75" y="165.75"/>
      <point x="886.0" y="81.25"/>
      <point x="883.75" y="-7.0" type="curve"/>
      <point x="899.75" y="-11.0"/>
      <point x="929.0" y="-13.0"/>
      <point x="952.0" y="-13.0" type="curve" smooth="yes"/>
      <point x="971.625" y="-13.0"/>
      <point x="995.5" y="-11.0"/>
      <point x="1011.625" y="-9.0" type="curve"/>
      <point x="1011.625" y="59.125"/>
      <point x="1012.125" y="132.75"/>
      <point x="1012.625" y="200.25" type="curve" smooth="yes"/>
      <point x="1014.25" y="555.5"/>
      <point x="1051.75" y="930.875"/>
      <point x="1342.375" y="930.875" type="curve" smooth="yes"/>
      <point x="1504.125" y="930.875"/>
      <point x="1570.5" y="775.75"/>
      <point x="1570.5" y="480.75" type="curve" smooth="yes"/>
      <point x="1570.5" y="343.75"/>
      <point x="1555.625" y="174.75"/>
      <point x="1530.375" y="-21.625" type="curve"/>
      <point x="1553.5" y="-24.125"/>
      <point x="1577.5" y="-25.25"/>
      <point x="1596.375" y="-25.25" type="curve" smooth="yes"/>
      <point x="1618.125" y="-25.25"/>
      <point x="1638.75" y="-23.25"/>
      <point x="1658.5" y="-19.375" type="curve"/>
      <point x="1672.375" y="94.125"/>
      <point x="1688.75" y="298.5"/>
      <point x="1688.75" y="458.375" type="curve" smooth="yes"/>
      <point x="1688.75" y="781.5"/>
      <point x="1624.75" y="1046.625"/>
      <point x="1354.625" y="1046.625" type="curve" smooth="yes"/>
      <point x="1093.0" y="1046.625"/>
      <point x="978.875" y="832.25"/>
      <point x="952.25" y="609.875" type="curve"/>
      <point x="951.5" y="662.625"/>
      <point x="946.25" y="719.125"/>
      <point x="932.625" y="774.5" type="curve" smooth="yes"/>
      <point x="898.875" y="909.875"/>
      <point x="817.625" y="1031.125"/>
      <point x="654.875" y="1031.125" type="curve" smooth="yes"/>
      <point x="409.5" y="1031.125"/>
      <point x="307.75" y="849.625"/>
      <point x="285.0" y="787.875" type="curve"/>
      <point x="285.0" y="815.875"/>
      <point x="278.0" y="987.125"/>
      <point x="276.0" y="1027.0" type="curve"/>
      <point x="250.0" y="1026.125"/>
      <point x="189.0" y="1015.25"/>
      <point x="164.25" y="1005.75" type="curve"/>
      <point x="164.25" y="713.5"/>
      <point x="183.5" y="247.875"/>
    </contour>
  </outline>
</glyph>
<glyph name="n" format="2">
  <advance width="1330.0"/>
  <unicode hex="006E"/>
  <anchor x="676.25" y="0.0" name="bottom"/>
  <anchor x="676.25" y="1063.0" name="top"/>
  <outline>
    <contour>
      <point x="277.0" y="-12.25" type="curve"/>
      <point x="289.375" y="102.5"/>
      <point x="315.5" y="390.5"/>
      <point x="326.0" y="741.5" type="curve"/>
      <point x="399.0" y="808.625"/>
      <point x="558.0" y="945.125"/>
      <point x="783.0" y="945.125" type="curve" smooth="yes"/>
      <point x="978.875" y="945.125"/>
      <point x="1017.125" y="787.625"/>
      <point x="1017.125" y="551.5" type="curve" smooth="yes"/>
      <point x="1017.125" y="398.875"/>
      <point x="999.875" y="206.375"/>
      <point x="970.5" y="-3.0" type="curve"/>
      <point x="989.5" y="-6.875"/>
      <point x="1015.0" y="-8.0"/>
      <point x="1039.625" y="-8.0" type="curve" smooth="yes"/>
      <point x="1067.75" y="-8.0"/>
      <point x="1095.0" y="-6.0"/>
      <point x="1108.0" y="-3.0" type="curve"/>
      <point x="1130.75" y="208.875"/>
      <point x="1143.375" y="397.5"/>
      <point x="1143.375" y="542.125" type="curve" smooth="yes"/>
      <point x="1143.375" y="876.75"/>
      <point x="1084.875" y="1060.0"/>
      <point x="781.625" y="1060.0" type="curve" smooth="yes"/>
      <point x="608.25" y="1060.0"/>
      <point x="417.25" y="954.375"/>
      <point x="327.0" y="870.125" type="curve"/>
      <point x="327.25" y="925.375"/>
      <point x="327.25" y="1018.75"/>
      <point x="324.625" y="1041.875" type="curve"/>
      <point x="311.25" y="1044.5"/>
      <point x="290.625" y="1044.875"/>
      <point x="273.25" y="1044.875" type="curve" smooth="yes"/>
      <point x="241.5" y="1044.875"/>
      <point x="213.375" y="1041.625"/>
      <point x="193.25" y="1038.0" type="curve"/>
      <point x="193.25" y="459.0"/>
      <point x="174.125" y="214.625"/>
      <point x="147.625" y="-9.125" type="curve"/>
      <point x="165.125" y="-12.125"/>
      <point x="195.625" y="-13.5"/>
      <point x="219.625" y="-13.75" type="curve" smooth="yes"/>
      <point x="239.75" y="-14.0"/>
      <point x="261.0" y="-13.125"/>
    </contour>
  </outline>
</glyph>
<glyph name="o" format="2">
  <advance width="1171.75"/>
  <unicode hex="006F"/>
  <anchor x="602.5" y="0.0" name="bottom"/>
  <anchor x="602.5" y="532.0" name="center"/>
  <anchor x="780.0" y="0.0" name="ogonek"/>
  <anchor x="602.5" y="1063.0" name="top"/>
  <anchor x="896.5" y="941.0" name="topright"/>
  <outline>
    <contour>
      <point x="600.875" y="-36.25" type="curve" smooth="yes"/>
      <point x="891.75" y="-36.25"/>
      <point x="1067.5" y="162.25"/>
      <point x="1067.5" y="469.25" type="curve" smooth="yes"/>
      <point x="1067.5" y="831.0"/>
      <point x="923.75" y="1074.625"/>
      <point x="597.625" y="1074.625" type="curve" smooth="yes"/>
      <point x="299.75" y="1074.625"/>
      <point x="103.625" y="878.875"/>
      <point x="103.625" y="539.5" type="curve" smooth="yes"/>
      <point x="103.625" y="169.125"/>
      <point x="253.625" y="-36.25"/>
    </contour>
    <contour>
      <point x="594.875" y="70.75" type="curve" smooth="yes"/>
      <point x="355.0" y="70.75"/>
      <point x="227.375" y="255.625"/>
      <point x="227.375" y="526.375" type="curve" smooth="yes"/>
      <point x="227.375" y="797.375"/>
      <point x="355.25" y="973.375"/>
      <point x="591.625" y="973.375" type="curve" smooth="yes"/>
      <point x="839.875" y="973.375"/>
      <point x="948.875" y="765.875"/>
      <point x="948.875" y="482.875" type="curve" smooth="yes"/>
      <point x="948.875" y="290.75"/>
      <point x="860.125" y="70.75"/>
    </contour>
  </outline>
</glyph>
<glyph name="p" format="2">
  <advance width="1202.75"/>
  <unicode hex="0070"/>
  <anchor x="600.0" y="0.0" name="bottom"/>
  <anchor x="600.0" y="1063.0" name="top"/>
  <outline>
    <contour>
      <point x="92.25" y="-432.25" type="curve"/>
      <point x="116.875" y="-432.25"/>
      <point x="182.375" y="-429.625"/>
      <point x="226.0" y="-420.25" type="curve"/>
      <point x="246.5" y="-294.625"/>
      <point x="278.625" y="152.375"/>
      <point x="282.125" y="221.0" type="curve"/>
      <point x="329.0" y="172.5"/>
      <point x="518.0" y="97.625"/>
      <point x="654.75" y="97.625" type="curve" smooth="yes"/>
      <point x="943.875" y="97.625"/>
      <point x="1089.25" y="304.75"/>
      <point x="1089.25" y="615.125" type="curve" smooth="yes"/>
      <point x="1089.25" y="907.625"/>
      <point x="938.0" y="1082.875"/>
      <point x="682.125" y="1082.875" type="curve" smooth="yes"/>
      <point x="504.75" y="1082.875"/>
      <point x="364.75" y="988.875"/>
      <point x="309.25" y="932.125" type="curve"/>
      <point x="309.25" y="980.125"/>
      <point x="310.375" y="1057.375"/>
      <point x="310.625" y="1085.5" type="curve"/>
      <point x="270.5" y="1085.5"/>
      <point x="217.0" y="1080.375"/>
      <point x="184.0" y="1071.875" type="curve"/>
      <point x="184.0" y="728.625"/>
      <point x="154.875" y="42.75"/>
    </contour>
    <contour>
      <point x="641.75" y="219.375" type="curve" smooth="yes"/>
      <point x="465.0" y="219.375"/>
      <point x="335.875" y="310.875"/>
      <point x="291.75" y="347.5" type="curve"/>
      <point x="292.0" y="446.125"/>
      <point x="303.625" y="754.5"/>
      <point x="305.375" y="802.5" type="curve"/>
      <point x="339.5" y="847.5"/>
      <point x="487.625" y="974.875"/>
      <point x="660.875" y="974.875" type="curve" smooth="yes"/>
      <point x="851.5" y="974.875"/>
      <point x="960.375" y="849.25"/>
      <point x="960.375" y="631.625" type="curve" smooth="yes"/>
      <point x="960.375" y="374.625"/>
      <point x="883.25" y="219.375"/>
    </contour>
  </outline>
</glyph>
<glyph name="q" format="2">
  <advance width="1207.0"/>
  <unicode hex="0071"/>
  <anchor x="604.0" y="0.0" name="bottom"/>
  <anchor x="604.0" y="1063.0" name="top"/>
  <outline>
    <contour>
      <point x="985.625" y="-454.125" type="curve"/>
      <point x="972.5" y="-343.75"/>
      <point x="950.125" y="-123.25"/>
      <point x="950.125" y="103.625" type="curve" smooth="yes"/>
      <point x="950.125" y="399.75"/>
      <point x="980.375" y="774.125"/>
      <point x="1020.75" y="1068.375" type="curve"/>
      <point x="995.125" y="1076.75"/>
      <point x="942.125" y="1089.0"/>
      <point x="908.625" y="1090.75" type="curve"/>
      <point x="903.75" y="1073.0"/>
      <point x="893.375" y="997.5"/>
      <point x="891.625" y="971.75" type="curve"/>
      <point x="835.25" y="1020.125"/>
      <point x="702.75" y="1085.75"/>
      <point x="540.5" y="1085.75" type="curve" smooth="yes"/>
      <point x="231.5" y="1085.75"/>
      <point x="102.625" y="872.875"/>
      <point x="102.625" y="550.75" type="curve" smooth="yes"/>
      <point x="102.625" y="253.625"/>
      <point x="234.25" y="42.5"/>
      <point x="512.875" y="42.5" type="curve" smooth="yes"/>
      <point x="684.875" y="42.5"/>
      <point x="800.125" y="125.125"/>
      <point x="832.5" y="174.375" type="curve"/>
      <point x="832.5" y="-34.875"/>
      <point x="841.125" y="-295.375"/>
      <point x="858.5" y="-445.875" type="curve"/>
      <point x="896.75" y="-450.375"/>
      <point x="951.0" y="-454.125"/>
    </contour>
    <contour>
      <point x="516.25" y="159.0" type="curve" smooth="yes"/>
      <point x="314.625" y="159.0"/>
      <point x="222.375" y="346.25"/>
      <point x="222.375" y="560.125" type="curve" smooth="yes"/>
      <point x="222.375" y="796.375"/>
      <point x="307.75" y="974.0"/>
      <point x="554.5" y="974.0" type="curve" smooth="yes"/>
      <point x="716.75" y="974.0"/>
      <point x="853.375" y="886.75"/>
      <point x="877.375" y="868.125" type="curve"/>
      <point x="864.75" y="769.125"/>
      <point x="837.25" y="397.5"/>
      <point x="832.5" y="304.125" type="curve"/>
      <point x="797.625" y="255.5"/>
      <point x="674.5" y="159.0"/>
    </contour>
  </outline>
</glyph>
<glyph name="r" format="2">
  <advance width="853.0"/>
  <unicode hex="0072"/>
  <anchor x="427.0" y="0.0" name="bottom"/>
  <anchor x="427.0" y="1063.0" name="top"/>
  <outline>
    <contour>
      <point x="226.5" y="880.125" type="curve"/>
      <point x="220.375" y="922.25"/>
      <point x="197.875" y="1007.75"/>
      <point x="181.0" y="1056.5" type="curve"/>
      <point x="162.375" y="1055.375"/>
      <point x="98.375" y="1040.375"/>
      <point x="73.375" y="1030.875" type="curve"/>
      <point x="160.625" y="679.75"/>
      <point x="192.125" y="331.625"/>
      <point x="192.125" y="0.75" type="curve"/>
      <point x="231.75" y="-1.875"/>
      <point x="297.125" y="-2.25"/>
      <point x="329.5" y="-0.25" type="curve"/>
      <point x="329.5" y="129.25"/>
      <point x="292.25" y="549.5"/>
      <point x="250.125" y="757.375" type="curve"/>
      <point x="318.625" y="866.75"/>
      <point x="468.75" y="948.25"/>
      <point x="604.375" y="948.25" type="curve" smooth="yes"/>
      <point x="686.0" y="948.25"/>
      <point x="736.375" y="928.5"/>
      <point x="769.625" y="914.0" type="curve"/>
      <point x="795.0" y="1037.0" type="line"/>
      <point x="754.375" y="1057.625"/>
      <point x="681.25" y="1068.375"/>
      <point x="617.75" y="1068.375" type="curve" smooth="yes"/>
      <point x="470.625" y="1068.375"/>
      <point x="296.5" y="986.75"/>
    </contour>
  </outline>
</glyph>
<glyph name="s" format="2">
  <advance width="994.125"/>
  <unicode hex="0073"/>
  <anchor x="498.75" y="-61.25" name="bottom"/>
  <anchor x="516.25" y="1096.875" name="top"/>
  <outline>
    <contour>
      <point x="503.0" y="-83.125" type="curve" smooth="yes"/>
      <point x="749.0" y="-83.125"/>
      <point x="937.375" y="33.5"/>
      <point x="937.375" y="249.875" type="curve" smooth="yes"/>
      <point x="937.375" y="438.125"/>
      <point x="791.75" y="539.5"/>
      <point x="534.375" y="622.25" type="curve" smooth="yes"/>
      <point x="389.0" y="669.625"/>
      <point x="266.75" y="732.25"/>
      <point x="266.75" y="839.75" type="curve" smooth="yes"/>
      <point x="266.75" y="963.5"/>
      <point x="399.375" y="1005.875"/>
      <point x="533.25" y="1005.875" type="curve" smooth="yes"/>
      <point x="653.25" y="1005.875"/>
      <point x="753.875" y="961.25"/>
      <point x="823.75" y="922.625" type="curve"/>
      <point x="841.5" y="947.375"/>
      <point x="863.625" y="994.125"/>
      <point x="873.125" y="1024.875" type="curve"/>
      <point x="815.625" y="1064.75"/>
      <point x="688.25" y="1115.625"/>
      <point x="522.75" y="1115.625" type="curve" smooth="yes"/>
      <point x="320.0" y="1115.625"/>
      <point x="146.5" y="1021.25"/>
      <point x="146.5" y="837.125" type="curve" smooth="yes"/>
      <point x="146.5" y="652.75"/>
      <point x="300.625" y="588.125"/>
      <point x="503.5" y="518.625" type="curve" smooth="yes"/>
      <point x="683.875" y="457.375"/>
      <point x="816.125" y="391.125"/>
      <point x="816.125" y="240.0" type="curve" smooth="yes"/>
      <point x="816.125" y="108.5"/>
      <point x="681.0" y="26.875"/>
      <point x="516.0" y="26.875" type="curve" smooth="yes"/>
      <point x="355.375" y="26.875"/>
      <point x="197.75" y="127.875"/>
      <point x="118.625" y="234.375" type="curve"/>
      <point x="92.875" y="213.75"/>
      <point x="51.125" y="157.5"/>
      <point x="31.875" y="126.875" type="curve"/>
      <point x="142.5" y="-6.25"/>
      <point x="350.375" y="-83.125"/>
    </contour>
  </outline>
</glyph>
<glyph name="t" format="2">
  <advance width="964.0"/>
  <unicode hex="0074"/>
  <anchor x="579.25" y="-6.625" name="bottom"/>
  <anchor x="454.5" y="532.0" name="center"/>
  <anchor x="393.5" y="1429.75" name="top"/>
  <anchor x="548.0" y="1204.25" name="topright"/>
  <outline>
    <contour>
      <point x="827.375" y="222.625" type="curve"/>
      <point x="817.25" y="228.375"/>
      <point x="745.875" y="264.625"/>
      <point x="731.75" y="276.0" type="curve"/>
      <point x="720.0" y="213.625"/>
      <point x="688.875" y="72.0"/>
      <point x="591.0" y="72.0" type="curve" smooth="yes"/>
      <point x="447.625" y="72.0"/>
      <point x="436.875" y="213.625"/>
      <point x="436.875" y="334.75" type="curve" smooth="yes"/>
      <point x="436.875" y="452.625"/>
      <point x="451.5" y="854.375"/>
      <point x="456.375" y="951.875" type="curve"/>
      <point x="509.625" y="955.75"/>
      <point x="585.375" y="959.0"/>
      <point x="643.5" y="959.375" type="curve" smooth="yes"/>
      <point x="724.375" y="959.875"/>
      <point x="821.0" y="956.125"/>
      <point x="834.875" y="954.375" type="curve"/>
      <point x="834.875" y="975.0"/>
      <point x="832.875" y="1028.375"/>
      <point x="829.75" y="1047.375" type="curve"/>
      <point x="813.875" y="1049.125"/>
      <point x="700.875" y="1052.625"/>
      <point x="601.0" y="1052.0" type="curve" smooth="yes"/>
      <point x="564.375" y="1051.75"/>
      <point x="495.375" y="1048.625"/>
      <point x="457.25" y="1046.625" type="curve"/>
      <point x="458.625" y="1083.75"/>
      <point x="459.375" y="1152.375"/>
      <point x="459.375" y="1192.625" type="curve" smooth="yes"/>
      <point x="459.375" y="1314.75"/>
      <point x="452.5" y="1407.875"/>
      <point x="449.125" y="1431.375" type="curve"/>
      <point x="331.5" y="1431.125" type="line"/>
      <point x="335.375" y="1389.5"/>
      <point x="340.25" y="1330.25"/>
      <point x="340.5" y="1268.625" type="curve" smooth="yes"/>
      <point x="340.75" y="1192.0"/>
      <point x="338.625" y="1103.75"/>
      <point x="336.375" y="1037.5" type="curve"/>
      <point x="239.375" y="1030.875"/>
      <point x="121.25" y="1013.5"/>
      <point x="48.375" y="1001.875" type="curve"/>
      <point x="48.375" y="983.375"/>
      <point x="51.625" y="927.375"/>
      <point x="57.5" y="897.125" type="curve"/>
      <point x="79.75" y="903.375"/>
      <point x="186.5" y="924.25"/>
      <point x="334.75" y="938.5" type="curve"/>
      <point x="330.625" y="852.5"/>
      <point x="317.625" y="455.75"/>
      <point x="317.625" y="302.5" type="curve" smooth="yes"/>
      <point x="317.625" y="127.0"/>
      <point x="370.875" y="-35.5"/>
      <point x="583.875" y="-35.5" type="curve" smooth="yes"/>
      <point x="752.0" y="-35.5"/>
      <point x="801.75" y="112.0"/>
    </contour>
  </outline>
</glyph>
<glyph name="v" format="2">
  <advance width="1007.0"/>
  <unicode hex="0076"/>
  <anchor x="504.0" y="0.0" name="bottom"/>
  <anchor x="504.0" y="1063.0" name="top"/>
  <outline>
    <contour>
      <point x="826.5" y="1091.0" type="curve"/>
      <point x="772.125" y="874.25"/>
      <point x="590.25" y="357.875"/>
      <point x="490.5" y="130.75" type="curve"/>
      <point x="399.75" y="336.625"/>
      <point x="202.25" y="873.0"/>
      <point x="149.25" y="1092.0" type="curve"/>
      <point x="117.875" y="1084.5"/>
      <point x="69.625" y="1072.125"/>
      <point x="33.875" y="1061.0" type="curve"/>
      <point x="123.5" y="765.25"/>
      <point x="275.5" y="305.75"/>
      <point x="434.5" y="-22.625" type="curve"/>
      <point x="448.375" y="-25.0"/>
      <point x="468.375" y="-26.625"/>
      <point x="489.25" y="-26.625" type="curve" smooth="yes"/>
      <point x="513.125" y="-26.625"/>
      <point x="537.0" y="-25.25"/>
      <point x="550.125" y="-22.625" type="curve"/>
      <point x="663.375" y="232.0"/>
      <point x="897.625" y="859.5"/>
      <point x="949.25" y="1054.875" type="curve"/>
      <point x="940.375" y="1060.125"/>
      <point x="884.25" y="1079.375"/>
    </contour>
  </outline>
</glyph>
<glyph name="w" format="2">
  <advance width="1520.0"/>
  <unicode hex="0077"/>
  <anchor x="760.0" y="0.0" name="bottom"/>
  <anchor x="760.0" y="1063.0" name="top"/>
  <outline>
    <contour>
      <point x="420.375" y="7.0" type="curve" smooth="yes"/>
      <point x="577.875" y="7.0"/>
      <point x="687.625" y="156.875"/>
      <point x="714.75" y="360.375" type="curve"/>
      <point x="737.125" y="157.375"/>
      <point x="798.75" y="14.125"/>
      <point x="979.75" y="14.125" type="curve" smooth="yes"/>
      <point x="1259.75" y="14.125"/>
      <point x="1338.5" y="475.75"/>
      <point x="1338.5" y="832.0" type="curve" smooth="yes"/>
      <point x="1338.5" y="896.375"/>
      <point x="1335.625" y="973.75"/>
      <point x="1331.25" y="1038.25" type="curve"/>
      <point x="1312.375" y="1040.375"/>
      <point x="1287.375" y="1041.875"/>
      <point x="1267.75" y="1041.875" type="curve" smooth="yes"/>
      <point x="1251.25" y="1041.875"/>
      <point x="1234.875" y="1041.875"/>
      <point x="1217.5" y="1041.0" type="curve"/>
      <point x="1219.75" y="993.0"/>
      <point x="1222.375" y="894.25"/>
      <point x="1222.375" y="847.125" type="curve" smooth="yes"/>
      <point x="1222.375" y="479.125"/>
      <point x="1160.375" y="120.625"/>
      <point x="977.625" y="120.625" type="curve" smooth="yes"/>
      <point x="794.875" y="120.625"/>
      <point x="780.375" y="433.625"/>
      <point x="780.375" y="812.375" type="curve" smooth="yes"/>
      <point x="780.375" y="1036.0" type="line"/>
      <point x="755.5" y="1039.0"/>
      <point x="691.5" y="1040.125"/>
      <point x="662.625" y="1040.125" type="curve"/>
      <point x="664.875" y="984.5"/>
      <point x="666.75" y="891.625"/>
      <point x="666.75" y="836.5" type="curve" smooth="yes"/>
      <point x="666.75" y="442.375"/>
      <point x="601.375" y="127.125"/>
      <point x="431.625" y="127.125" type="curve" smooth="yes"/>
      <point x="289.25" y="127.125"/>
      <point x="245.0" y="331.875"/>
      <point x="245.0" y="588.75" type="curve" smooth="yes"/>
      <point x="245.0" y="736.25"/>
      <point x="255.625" y="900.875"/>
      <point x="274.625" y="1054.5" type="curve"/>
      <point x="243.375" y="1057.25"/>
      <point x="182.125" y="1058.25"/>
      <point x="152.25" y="1058.25" type="curve"/>
      <point x="137.5" y="909.5"/>
      <point x="124.625" y="750.75"/>
      <point x="124.625" y="603.75" type="curve" smooth="yes"/>
      <point x="124.625" y="278.875"/>
      <point x="185.875" y="7.0"/>
    </contour>
  </outline>
</glyph>
<glyph name="x" format="2">
  <advance width="1142.0"/>
  <unicode hex="0078"/>
  <anchor x="588.5" y="0.0" name="bottom"/>
  <anchor x="588.5" y="1063.0" name="top"/>
  <outline>
    <contour>
      <point x="133.75" y="-25.5" type="curve"/>
      <point x="207.875" y="46.0"/>
      <point x="457.75" y="363.375"/>
      <point x="578.25" y="528.75" type="curve"/>
      <point x="673.375" y="420.5"/>
      <point x="859.75" y="89.25"/>
      <point x="917.25" y="-15.75" type="curve"/>
      <point x="949.75" y="-0.125"/>
      <point x="1001.75" y="32.75"/>
      <point x="1018.75" y="50.0" type="curve"/>
      <point x="941.125" y="182.5"/>
      <point x="761.5" y="495.875"/>
      <point x="655.5" y="616.125" type="curve"/>
      <point x="780.25" y="759.25"/>
      <point x="927.25" y="983.75"/>
      <point x="990.75" y="1104.375" type="curve"/>
      <point x="967.75" y="1119.25"/>
      <point x="911.125" y="1143.125"/>
      <point x="881.25" y="1153.5" type="curve"/>
      <point x="810.75" y="1020.125"/>
      <point x="702.875" y="844.25"/>
      <point x="587.25" y="695.625" type="curve"/>
      <point x="511.875" y="802.125"/>
      <point x="229.75" y="1060.75"/>
      <point x="132.25" y="1145.375" type="curve"/>
      <point x="102.25" y="1126.25"/>
      <point x="59.625" y="1090.625"/>
      <point x="42.875" y="1069.5" type="curve"/>
      <point x="156.375" y="974.25"/>
      <point x="378.25" y="784.125"/>
      <point x="517.5" y="612.625" type="curve"/>
      <point x="397.75" y="464.0"/>
      <point x="93.875" y="107.0"/>
      <point x="44.625" y="56.25" type="curve"/>
      <point x="56.75" y="37.875"/>
      <point x="101.125" y="-0.875"/>
    </contour>
  </outline>
</glyph>
<glyph name="y" format="2">
  <advance width="1079.0"/>
  <unicode hex="0079"/>
  <anchor x="540.0" y="0.0" name="bottom"/>
  <anchor x="540.0" y="1063.0" name="top"/>
  <outline>
    <contour>
      <point x="393.625" y="-528.625" type="curve" smooth="yes"/>
      <point x="703.75" y="-528.625"/>
      <point x="854.5" y="-278.625"/>
      <point x="872.5" y="56.0" type="curve" smooth="yes"/>
      <point x="886.125" y="306.375"/>
      <point x="899.0" y="595.75"/>
      <point x="899.0" y="793.125" type="curve" smooth="yes"/>
      <point x="899.0" y="855.75"/>
      <point x="897.875" y="910.25"/>
      <point x="895.625" y="953.625" type="curve"/>
      <point x="878.75" y="958.375"/>
      <point x="855.625" y="960.25"/>
      <point x="832.0" y="960.25" type="curve" smooth="yes"/>
      <point x="814.375" y="960.25"/>
      <point x="796.625" y="959.125"/>
      <point x="783.125" y="957.0" type="curve"/>
      <point x="783.5" y="936.5"/>
      <point x="776.125" y="659.625"/>
      <point x="761.25" y="515.5" type="curve" smooth="yes"/>
      <point x="736.75" y="270.75"/>
      <point x="624.75" y="156.5"/>
      <point x="466.875" y="156.5" type="curve" smooth="yes"/>
      <point x="253.125" y="156.5"/>
      <point x="228.375" y="443.625"/>
      <point x="228.375" y="686.625" type="curve" smooth="yes"/>
      <point x="228.375" y="826.625"/>
      <point x="240.375" y="967.125"/>
      <point x="243.125" y="986.75" type="curve"/>
      <point x="233.875" y="989.375"/>
      <point x="210.375" y="990.125"/>
      <point x="186.5" y="990.125" type="curve" smooth="yes"/>
      <point x="161.0" y="990.125"/>
      <point x="132.75" y="988.875"/>
      <point x="119.75" y="986.375" type="curve"/>
      <point x="113.75" y="880.875"/>
      <point x="109.75" y="780.875"/>
      <point x="109.75" y="686.375" type="curve" smooth="yes"/>
      <point x="109.75" y="313.0"/>
      <point x="177.0" y="42.125"/>
      <point x="448.375" y="42.125" type="curve" smooth="yes"/>
      <point x="654.0" y="42.125"/>
      <point x="740.25" y="150.5"/>
      <point x="766.0" y="225.625" type="curve"/>
      <point x="765.25" y="-110.0"/>
      <point x="669.125" y="-417.0"/>
      <point x="399.5" y="-417.0" type="curve" smooth="yes"/>
      <point x="261.25" y="-417.0"/>
      <point x="117.875" y="-337.875"/>
      <point x="73.875" y="-302.75" type="curve"/>
      <point x="53.875" y="-327.375"/>
      <point x="18.625" y="-385.625"/>
      <point x="10.625" y="-407.125" type="curve"/>
      <point x="77.875" y="-456.125"/>
      <point x="218.875" y="-528.625"/>
    </contour>
  </outline>
</glyph>
<glyph name="z" format="2">
  <advance width="1074.0"/>
  <unicode hex="007A"/>
  <anchor x="537.0" y="0.0" name="bottom"/>
  <anchor x="537.0" y="532.0" name="center"/>
  <anchor x="537.0" y="1063.0" name="top"/>
  <outline>
    <contour>
      <point x="968.75" y="6.375" type="curve"/>
      <point x="974.875" y="24.625"/>
      <point x="979.25" y="109.875"/>
      <point x="979.25" y="132.75" type="curve"/>
      <point x="899.25" y="123.125"/>
      <point x="715.375" y="117.25"/>
      <point x="547.875" y="117.25" type="curve" smooth="yes"/>
      <point x="397.875" y="117.25"/>
      <point x="256.75" y="120.75"/>
      <point x="217.625" y="128.75" type="curve"/>
      <point x="307.75" y="249.25"/>
      <point x="840.25" y="821.875"/>
      <point x="966.0" y="935.375" type="curve"/>
      <point x="966.0" y="952.0"/>
      <point x="959.375" y="1028.25"/>
      <point x="957.0" y="1037.125" type="curve"/>
      <point x="828.875" y="1042.375"/>
      <point x="701.375" y="1044.125"/>
      <point x="588.75" y="1044.125" type="curve" smooth="yes"/>
      <point x="332.375" y="1044.125"/>
      <point x="141.25" y="1032.25"/>
      <point x="92.0" y="1028.5" type="curve"/>
      <point x="87.375" y="921.5" type="line"/>
      <point x="108.375" y="926.625"/>
      <point x="358.5" y="933.625"/>
      <point x="551.875" y="933.625" type="curve" smooth="yes"/>
      <point x="668.25" y="933.625"/>
      <point x="772.375" y="931.5"/>
      <point x="801.25" y="926.75" type="curve"/>
      <point x="741.875" y="868.0"/>
      <point x="176.125" y="269.625"/>
      <point x="70.0" y="135.625" type="curve"/>
      <point x="64.375" y="12.0" type="line"/>
      <point x="194.25" y="0.25"/>
      <point x="371.125" y="-4.0"/>
      <point x="546.625" y="-4.0" type="curve" smooth="yes"/>
      <point x="698.625" y="-4.0"/>
      <point x="853.75" y="1.125"/>
    </contour>
  </outline>
</glyph>
<glyph name="braceleft" format="2">
  <advance width="665.0"/>
  <unicode hex="007B"/>
  <outline>
    <contour>
      <point x="513.625" y="-369.625" type="curve"/>
      <point x="532.25" y="-342.75"/>
      <point x="539.125" y="-312.875"/>
      <point x="544.875" y="-287.5" type="curve"/>
      <point x="419.625" y="-262.75"/>
      <point x="350.25" y="-106.25"/>
      <point x="350.25" y="37.625" type="curve" smooth="yes"/>
      <point x="350.25" y="89.375"/>
      <point x="358.125" y="127.25"/>
      <point x="369.0" y="167.0" type="curve" smooth="yes"/>
      <point x="380.75" y="209.625"/>
      <point x="390.375" y="252.375"/>
      <point x="390.375" y="314.625" type="curve" smooth="yes"/>
      <point x="390.375" y="520.5"/>
      <point x="230.125" y="595.5"/>
      <point x="112.375" y="610.625" type="curve"/>
      <point x="109.75" y="597.875" type="line"/>
      <point x="231.75" y="610.375"/>
      <point x="334.75" y="731.75"/>
      <point x="334.75" y="892.375" type="curve" smooth="yes"/>
      <point x="334.75" y="949.125"/>
      <point x="325.125" y="987.25"/>
      <point x="314.25" y="1025.375" type="curve" smooth="yes"/>
      <point x="304.25" y="1060.75"/>
      <point x="296.375" y="1096.25"/>
      <point x="296.375" y="1144.75" type="curve" smooth="yes"/>
      <point x="296.375" y="1290.0"/>
      <point x="383.0" y="1443.625"/>
      <point x="561.875" y="1459.75" type="curve"/>
      <point x="559.25" y="1486.125"/>
      <point x="544.125" y="1526.75"/>
      <point x="530.5" y="1542.25" type="curve"/>
      <point x="299.0" y="1526.375"/>
      <point x="189.5" y="1336.625"/>
      <point x="189.5" y="1143.25" type="curve" smooth="yes"/>
      <point x="189.5" y="1085.875"/>
      <point x="197.25" y="1047.375"/>
      <point x="208.0" y="1010.0" type="curve" smooth="yes"/>
      <point x="218.75" y="971.75"/>
      <point x="227.5" y="934.5"/>
      <point x="227.5" y="878.625" type="curve" smooth="yes"/>
      <point x="227.5" y="757.875"/>
      <point x="165.25" y="673.125"/>
      <point x="45.125" y="651.375" type="curve"/>
      <point x="42.5" y="641.125"/>
      <point x="41.25" y="624.75"/>
      <point x="41.25" y="608.0" type="curve" smooth="yes"/>
      <point x="41.25" y="590.0"/>
      <point x="42.625" y="569.875"/>
      <point x="47.125" y="555.625" type="curve"/>
      <point x="193.625" y="520.875"/>
      <point x="286.875" y="443.125"/>
      <point x="286.875" y="305.375" type="curve" smooth="yes"/>
      <point x="286.875" y="255.0"/>
      <point x="280.0" y="219.875"/>
      <point x="269.25" y="185.875" type="curve" smooth="yes"/>
      <point x="257.25" y="146.75"/>
      <point x="247.875" y="106.625"/>
      <point x="247.875" y="45.125" type="curve" smooth="yes"/>
      <point x="247.875" y="-148.125"/>
      <point x="351.625" y="-351.625"/>
    </contour>
  </outline>
</glyph>
<glyph name="bar" format="2">
  <advance width="487.0"/>
  <unicode hex="007C"/>
  <outline>
    <contour>
      <point x="266.625" y="-559.25" type="curve"/>
      <point x="276.125" y="-479.375"/>
      <point x="279.5" y="-270.875"/>
      <point x="279.5" y="-9.75" type="curve" smooth="yes"/>
      <point x="279.5" y="469.75"/>
      <point x="269.5" y="1148.5"/>
      <point x="255.25" y="1531.25" type="curve"/>
      <point x="222.875" y="1531.25"/>
      <point x="179.375" y="1529.25"/>
      <point x="161.125" y="1526.25" type="curve"/>
      <point x="149.5" y="1192.375"/>
      <point x="148.0" y="771.375"/>
      <point x="148.0" y="458.5" type="curve" smooth="yes"/>
      <point x="148.0" y="19.875"/>
      <point x="155.625" y="-327.25"/>
      <point x="166.625" y="-551.875" type="curve"/>
      <point x="191.0" y="-556.375"/>
      <point x="243.5" y="-559.25"/>
    </contour>
  </outline>
</glyph>
<glyph name="braceright" format="2">
  <advance width="614.0"/>
  <unicode hex="007D"/>
  <outline>
    <contour>
      <point x="79.0" y="-368.25" type="curve"/>
      <point x="292.375" y="-347.125"/>
      <point x="390.625" y="-179.125"/>
      <point x="390.625" y="5.0" type="curve" smooth="yes"/>
      <point x="390.625" y="66.5"/>
      <point x="381.875" y="109.0"/>
      <point x="370.875" y="150.75" type="curve" smooth="yes"/>
      <point x="359.875" y="191.75"/>
      <point x="351.75" y="231.25"/>
      <point x="351.75" y="288.375" type="curve" smooth="yes"/>
      <point x="351.75" y="417.375"/>
      <point x="413.125" y="535.125"/>
      <point x="530.125" y="551.875" type="curve"/>
      <point x="535.0" y="561.875"/>
      <point x="539.625" y="579.5"/>
      <point x="539.625" y="599.375" type="curve" smooth="yes"/>
      <point x="539.625" y="621.125"/>
      <point x="535.75" y="644.5"/>
      <point x="530.625" y="653.875" type="curve"/>
      <point x="400.625" y="674.0"/>
      <point x="297.125" y="727.125"/>
      <point x="297.125" y="848.375" type="curve" smooth="yes"/>
      <point x="297.125" y="886.375"/>
      <point x="305.125" y="938.625"/>
      <point x="319.375" y="987.0" type="curve" smooth="yes"/>
      <point x="336.0" y="1045.0"/>
      <point x="348.75" y="1101.0"/>
      <point x="348.75" y="1166.25" type="curve" smooth="yes"/>
      <point x="348.75" y="1356.375"/>
      <point x="265.125" y="1542.0"/>
      <point x="83.125" y="1558.375" type="curve"/>
      <point x="72.125" y="1533.375"/>
      <point x="59.625" y="1502.25"/>
      <point x="52.625" y="1476.625" type="curve"/>
      <point x="194.25" y="1453.625"/>
      <point x="247.125" y="1302.5"/>
      <point x="247.125" y="1160.125" type="curve" smooth="yes"/>
      <point x="247.125" y="1089.875"/>
      <point x="234.875" y="1040.375"/>
      <point x="221.625" y="996.25" type="curve" smooth="yes"/>
      <point x="208.375" y="953.0"/>
      <point x="197.875" y="915.875"/>
      <point x="197.875" y="850.0" type="curve" smooth="yes"/>
      <point x="197.875" y="653.25"/>
      <point x="368.625" y="602.375"/>
      <point x="469.25" y="590.125" type="curve"/>
      <point x="472.25" y="601.25" type="line"/>
      <point x="352.0" y="596.875"/>
      <point x="249.75" y="461.125"/>
      <point x="249.75" y="289.125" type="curve" smooth="yes"/>
      <point x="249.75" y="228.5"/>
      <point x="259.75" y="184.5"/>
      <point x="271.0" y="141.375" type="curve" smooth="yes"/>
      <point x="282.125" y="99.375"/>
      <point x="292.125" y="58.375"/>
      <point x="292.125" y="1.875" type="curve" smooth="yes"/>
      <point x="292.125" y="-147.25"/>
      <point x="197.25" y="-266.875"/>
      <point x="47.375" y="-290.625" type="curve"/>
      <point x="50.0" y="-316.625"/>
      <point x="63.375" y="-349.125"/>
    </contour>
  </outline>
</glyph>
<glyph name="asciitilde" format="2">
  <advance width="1050.0"/>
  <unicode hex="007E"/>
  <outline>
    <contour>
      <point x="126.5" y="727.0" type="curve"/>
      <point x="207.25" y="672.875" type="line"/>
      <point x="236.125" y="745.625"/>
      <point x="293.625" y="818.0"/>
      <point x="375.0" y="818.0" type="curve" smooth="yes"/>
      <point x="421.5" y="818.0"/>
      <point x="460.375" y="777.25"/>
      <point x="502.125" y="732.375" type="curve" smooth="yes"/>
      <point x="553.625" y="676.25"/>
      <point x="612.25" y="613.625"/>
      <point x="700.0" y="613.625" type="curve" smooth="yes"/>
      <point x="822.625" y="613.625"/>
      <point x="893.0" y="735.25"/>
      <point x="909.375" y="789.875" type="curve"/>
      <point x="819.375" y="830.0" type="line"/>
      <point x="798.875" y="762.375"/>
      <point x="758.25" y="707.375"/>
      <point x="696.75" y="707.375" type="curve" smooth="yes"/>
      <point x="632.875" y="707.375"/>
      <point x="589.25" y="753.375"/>
      <point x="546.25" y="801.625" type="curve" smooth="yes"/>
      <point x="499.625" y="854.125"/>
      <point x="448.625" y="906.0"/>
      <point x="369.125" y="906.0" type="curve" smooth="yes"/>
      <point x="248.875" y="906.0"/>
      <point x="154.375" y="804.75"/>
    </contour>
  </outline>
</glyph>
<glyph name="exclamdown" format="2">
  <advance width="708.0"/>
  <unicode hex="00A1"/>
  <outline>
    <contour>
      <point x="261.375" y="709.0" type="curve"/>
      <point x="260.0" y="428.0"/>
      <point x="240.5" y="-200.125"/>
      <point x="214.375" y="-399.375" type="curve"/>
      <point x="342.5" y="-406.125" type="line"/>
      <point x="361.75" y="-228.25"/>
      <point x="367.375" y="383.25"/>
      <point x="364.0" y="703.375" type="curve"/>
      <point x="347.25" y="706.375"/>
      <point x="281.25" y="709.0"/>
    </contour>
    <contour>
      <point x="305.25" y="1092.875" type="curve" smooth="yes"/>
      <point x="233.25" y="1092.875"/>
      <point x="176.75" y="1044.0"/>
      <point x="176.75" y="972.625" type="curve" smooth="yes"/>
      <point x="176.75" y="901.75"/>
      <point x="234.875" y="851.375"/>
      <point x="307.5" y="851.375" type="curve" smooth="yes"/>
      <point x="373.375" y="851.375"/>
      <point x="441.0" y="893.0"/>
      <point x="441.0" y="968.0" type="curve" smooth="yes"/>
      <point x="441.0" y="1039.875"/>
      <point x="391.625" y="1092.875"/>
    </contour>
  </outline>
</glyph>
<glyph name="cent" format="2">
  <advance width="1026.0"/>
  <unicode hex="00A2"/>
  <anchor x="513.0" y="138.625" name="bottom"/>
  <anchor x="513.0" y="1201.625" name="top"/>
  <outline>
    <contour>
      <point x="597.5" y="1333.375" type="curve"/>
      <point x="570.5" y="1010.375"/>
      <point x="436.375" y="373.25"/>
      <point x="344.375" y="15.25" type="curve"/>
      <point x="366.125" y="3.875"/>
      <point x="416.5" y="-11.25"/>
      <point x="448.75" y="-17.375" type="curve"/>
      <point x="512.625" y="211.0"/>
      <point x="658.625" y="1044.5"/>
      <point x="676.625" y="1317.5" type="curve"/>
      <point x="661.0" y="1327.5"/>
      <point x="631.875" y="1333.375"/>
    </contour>
    <component base="c" yOffset="138.625"/>
  </outline>
</glyph>
<glyph name="sterling" format="2">
  <advance width="1140.0"/>
  <unicode hex="00A3"/>
  <outline>
    <contour>
      <point x="169.875" y="603.125" type="curve" smooth="yes"/>
      <point x="350.625" y="603.125"/>
      <point x="659.625" y="621.875"/>
      <point x="747.5" y="647.875" type="curve"/>
      <point x="747.5" y="681.0"/>
      <point x="740.625" y="733.625"/>
      <point x="734.125" y="750.0" type="curve"/>
      <point x="642.125" y="730.25"/>
      <point x="333.25" y="709.5"/>
      <point x="147.125" y="709.5" type="curve" smooth="yes"/>
      <point x="106.25" y="709.5"/>
      <point x="72.625" y="710.5"/>
      <point x="47.125" y="712.625" type="curve"/>
      <point x="45.875" y="609.125" type="line"/>
      <point x="69.0" y="605.125"/>
      <point x="112.625" y="603.125"/>
    </contour>
    <component base="sterlira"/>
  </outline>
</glyph>
<glyph name="currency" format="2">
  <advance width="974.0"/>
  <unicode hex="00A4"/>
  <outline>
    <contour>
      <point x="123.625" y="97.0" type="curve"/>
      <point x="197.25" y="171.5"/>
      <point x="301.75" y="292.125"/>
      <point x="343.5" y="341.875" type="curve"/>
      <point x="264.75" y="400.5" type="line"/>
      <point x="192.0" y="331.0"/>
      <point x="106.875" y="248.875"/>
      <point x="34.875" y="178.875" type="curve"/>
      <point x="60.875" y="152.5"/>
      <point x="96.5" y="120.375"/>
    </contour>
    <contour>
      <point x="805.0" y="125.25" type="curve"/>
      <point x="830.125" y="146.125"/>
      <point x="857.625" y="174.875"/>
      <point x="868.75" y="200.0" type="curve"/>
      <point x="816.375" y="248.0"/>
      <point x="746.0" y="310.125"/>
      <point x="683.875" y="363.875" type="curve"/>
      <point x="614.375" y="310.375" type="line"/>
      <point x="656.0" y="275.125"/>
      <point x="733.0" y="197.25"/>
    </contour>
    <contour>
      <point x="260.375" y="695.75" type="curve"/>
      <point x="330.0" y="767.0" type="line"/>
      <point x="270.125" y="843.875"/>
      <point x="199.75" y="922.375"/>
      <point x="137.875" y="977.375" type="curve"/>
      <point x="98.0" y="951.375"/>
      <point x="63.375" y="920.875"/>
      <point x="47.5" y="906.375" type="curve"/>
      <point x="113.0" y="836.375"/>
      <point x="183.375" y="762.625"/>
    </contour>
    <contour>
      <point x="680.5" y="703.625" type="line"/>
      <point x="742.625" y="751.25"/>
      <point x="828.875" y="821.875"/>
      <point x="899.625" y="891.875" type="curve"/>
      <point x="874.5" y="917.75"/>
      <point x="844.25" y="947.25"/>
      <point x="819.5" y="973.25" type="curve"/>
      <point x="748.25" y="902.5"/>
      <point x="670.375" y="824.375"/>
      <point x="614.25" y="771.75" type="curve"/>
    </contour>
    <component base="degree" xOffset="106.0" yOffset="-656.0"/>
  </outline>
</glyph>
<glyph name="yen" format="2">
  <advance width="1065.0"/>
  <unicode hex="00A5"/>
  <anchor x="595.5" y="0.0" name="bottom"/>
  <anchor x="595.5" y="1291.0" name="top"/>
  <anchor x="82.5" y="1291.0" name="topleft"/>
  <outline>
    <contour>
      <point x="181.5" y="480.0" type="curve"/>
      <point x="298.5" y="482.875"/>
      <point x="853.625" y="491.875"/>
      <point x="947.625" y="491.875" type="curve"/>
      <point x="947.625" y="513.5"/>
      <point x="945.25" y="542.375"/>
      <point x="936.75" y="572.625" type="curve"/>
      <point x="861.625" y="582.625"/>
      <point x="746.875" y="586.75"/>
      <point x="620.0" y="586.75" type="curve" smooth="yes"/>
      <point x="440.25" y="586.75"/>
      <point x="341.25" y="581.75"/>
      <point x="197.75" y="571.625" type="curve"/>
      <point x="192.5" y="552.25"/>
      <point x="182.375" y="506.75"/>
    </contour>
    <contour>
      <point x="950.125" y="273.5" type="curve"/>
      <point x="952.75" y="295.0"/>
      <point x="952.125" y="325.25"/>
      <point x="951.125" y="355.75" type="curve"/>
      <point x="880.375" y="358.625"/>
      <point x="787.5" y="360.25"/>
      <point x="687.875" y="360.25" type="curve" smooth="yes"/>
      <point x="480.625" y="360.25"/>
      <point x="342.625" y="357.625"/>
      <point x="182.75" y="347.875" type="curve"/>
      <point x="175.125" y="322.875"/>
      <point x="169.5" y="292.625"/>
      <point x="169.5" y="269.25" type="curve"/>
      <point x="263.5" y="271.0"/>
      <point x="849.75" y="273.875"/>
    </contour>
    <component base="Y" xOffset="21.25"/>
  </outline>
</glyph>
<glyph name="brokenbar" format="2">
  <advance width="432.0"/>
  <unicode hex="00A6"/>
  <outline>
    <contour>
      <point x="134.0" y="267.375" type="curve"/>
      <point x="134.0" y="96.75"/>
      <point x="146.375" y="-387.625"/>
      <point x="151.25" y="-487.125" type="curve"/>
      <point x="174.875" y="-487.125"/>
      <point x="229.0" y="-483.5"/>
      <point x="246.5" y="-479.125" type="curve"/>
      <point x="242.875" y="-380.875"/>
      <point x="238.0" y="158.0"/>
      <point x="238.0" y="269.0" type="curve"/>
      <point x="208.125" y="269.0"/>
      <point x="166.375" y="268.625"/>
    </contour>
    <contour>
      <point x="138.75" y="678.375" type="curve"/>
      <point x="155.875" y="677.875"/>
      <point x="209.5" y="679.0"/>
      <point x="246.25" y="681.625" type="curve"/>
      <point x="245.75" y="824.0"/>
      <point x="252.625" y="1327.0"/>
      <point x="261.375" y="1491.75" type="curve"/>
      <point x="242.125" y="1498.875"/>
      <point x="204.875" y="1502.0"/>
      <point x="175.625" y="1502.0" type="curve"/>
      <point x="161.0" y="1348.5"/>
      <point x="138.75" y="962.0"/>
    </contour>
  </outline>
</glyph>
<glyph name="section" format="2">
  <advance width="1000.0"/>
  <unicode hex="00A7"/>
  <outline>
    <contour>
      <point x="485.5" y="764.375" type="curve"/>
      <point x="396.75" y="840.75" type="line"/>
      <point x="243.75" y="813.375"/>
      <point x="119.625" y="723.25"/>
      <point x="119.625" y="573.5" type="curve" smooth="yes"/>
      <point x="119.625" y="392.625"/>
      <point x="283.375" y="333.75"/>
      <point x="487.375" y="266.75" type="curve" smooth="yes"/>
      <point x="673.5" y="205.875"/>
      <point x="787.625" y="145.375"/>
      <point x="787.625" y="11.75" type="curve" smooth="yes"/>
      <point x="787.625" y="-138.5"/>
      <point x="659.875" y="-238.0"/>
      <point x="500.75" y="-238.0" type="curve" smooth="yes"/>
      <point x="339.5" y="-238.0"/>
      <point x="163.625" y="-148.25"/>
      <point x="82.5" y="-43.0" type="curve"/>
      <point x="56.875" y="-62.25"/>
      <point x="16.625" y="-107.5"/>
      <point x="-4.375" y="-144.25" type="curve"/>
      <point x="123.125" y="-277.375"/>
      <point x="333.125" y="-346.75"/>
      <point x="487.75" y="-346.75" type="curve" smooth="yes"/>
      <point x="726.75" y="-346.75"/>
      <point x="905.25" y="-210.125"/>
      <point x="905.25" y="20.0" type="curve" smooth="yes"/>
      <point x="905.25" y="190.75"/>
      <point x="778.25" y="283.375"/>
      <point x="520.0" y="366.125" type="curve" smooth="yes"/>
      <point x="373.75" y="413.5"/>
      <point x="238.625" y="470.25"/>
      <point x="238.625" y="579.0" type="curve" smooth="yes"/>
      <point x="238.625" y="698.375"/>
      <point x="364.625" y="757.5"/>
    </contour>
    <contour>
      <point x="647.5" y="287.125" type="curve"/>
      <point x="725.25" y="206.875" type="line"/>
      <point x="845.375" y="266.0"/>
      <point x="932.75" y="375.625"/>
      <point x="932.75" y="522.625" type="curve" smooth="yes"/>
      <point x="932.75" y="693.375"/>
      <point x="778.25" y="777.25"/>
      <point x="520.0" y="860.0" type="curve" smooth="yes"/>
      <point x="373.75" y="907.375"/>
      <point x="257.375" y="971.25"/>
      <point x="257.375" y="1078.75" type="curve" smooth="yes"/>
      <point x="257.375" y="1202.5"/>
      <point x="382.875" y="1244.875"/>
      <point x="517.0" y="1244.875" type="curve" smooth="yes"/>
      <point x="636.25" y="1244.875"/>
      <point x="741.375" y="1201.5"/>
      <point x="811.625" y="1162.875" type="curve"/>
      <point x="830.0" y="1187.75"/>
      <point x="851.125" y="1236.375"/>
      <point x="859.625" y="1263.875" type="curve"/>
      <point x="800.0" y="1303.75"/>
      <point x="672.625" y="1354.625"/>
      <point x="506.25" y="1354.625" type="curve" smooth="yes"/>
      <point x="305.625" y="1354.625"/>
      <point x="140.875" y="1260.25"/>
      <point x="140.875" y="1076.125" type="curve" smooth="yes"/>
      <point x="140.875" y="891.75"/>
      <point x="283.375" y="829.375"/>
      <point x="487.375" y="760.625" type="curve" smooth="yes"/>
      <point x="673.5" y="698.0"/>
      <point x="815.125" y="646.625"/>
      <point x="815.125" y="514.375" type="curve" smooth="yes"/>
      <point x="815.125" y="408.875"/>
      <point x="741.75" y="326.75"/>
    </contour>
  </outline>
</glyph>
<glyph name="copyright" format="2">
  <advance width="1745.0"/>
  <unicode hex="00A9"/>
  <outline>
    <contour>
      <point x="838.125" y="-68.0" type="curve" smooth="yes"/>
      <point x="1298.625" y="-68.0"/>
      <point x="1579.0" y="206.875"/>
      <point x="1579.0" y="657.625" type="curve" smooth="yes"/>
      <point x="1579.0" y="1093.25"/>
      <point x="1307.25" y="1350.0"/>
      <point x="859.75" y="1350.0" type="curve" smooth="yes"/>
      <point x="367.625" y="1350.0"/>
      <point x="71.625" y="1085.625"/>
      <point x="71.625" y="585.0" type="curve" smooth="yes"/>
      <point x="71.625" y="175.125"/>
      <point x="341.625" y="-68.0"/>
    </contour>
    <contour>
      <point x="828.75" y="28.375" type="curve" smooth="yes"/>
      <point x="478.625" y="28.375"/>
      <point x="187.5" y="210.125"/>
      <point x="187.5" y="602.75" type="curve" smooth="yes"/>
      <point x="187.5" y="996.25"/>
      <point x="440.75" y="1259.0"/>
      <point x="835.5" y="1259.0" type="curve" smooth="yes"/>
      <point x="1230.5" y="1259.0"/>
      <point x="1461.25" y="1049.125"/>
      <point x="1461.25" y="619.875" type="curve" smooth="yes"/>
      <point x="1461.25" y="251.625"/>
      <point x="1185.5" y="28.375"/>
    </contour>
    <contour>
      <point x="813.625" y="281.25" type="curve" smooth="yes"/>
      <point x="966.625" y="281.25"/>
      <point x="1126.625" y="355.25"/>
      <point x="1193.5" y="492.25" type="curve"/>
      <point x="1176.875" y="510.625"/>
      <point x="1136.875" y="540.375"/>
      <point x="1109.875" y="555.0" type="curve"/>
      <point x="1062.875" y="485.0"/>
      <point x="981.0" y="386.375"/>
      <point x="837.5" y="386.375" type="curve" smooth="yes"/>
      <point x="745.25" y="386.375"/>
      <point x="582.75" y="408.75"/>
      <point x="582.75" y="610.75" type="curve" smooth="yes"/>
      <point x="582.75" y="788.875"/>
      <point x="721.0" y="886.25"/>
      <point x="854.875" y="886.25" type="curve" smooth="yes"/>
      <point x="967.125" y="886.25"/>
      <point x="1048.125" y="849.875"/>
      <point x="1070.75" y="816.25" type="curve"/>
      <point x="1089.125" y="838.875"/>
      <point x="1112.875" y="869.875"/>
      <point x="1129.625" y="898.25" type="curve"/>
      <point x="1078.5" y="957.25"/>
      <point x="996.5" y="986.25"/>
      <point x="883.625" y="986.25" type="curve" smooth="yes"/>
      <point x="645.5" y="986.25"/>
      <point x="475.5" y="824.375"/>
      <point x="475.5" y="604.375" type="curve" smooth="yes"/>
      <point x="475.5" y="405.0"/>
      <point x="603.5" y="281.25"/>
    </contour>
  </outline>
</glyph>
<glyph name="ordfeminine" format="2">
  <advance width="750.0"/>
  <unicode hex="00AA"/>
  <outline>
    <contour>
      <point x="582.5" y="709.25" type="curve"/>
      <point x="596.5" y="706.75"/>
      <point x="628.625" y="704.75"/>
      <point x="651.625" y="704.75" type="curve" smooth="yes"/>
      <point x="661.0" y="704.75"/>
      <point x="681.0" y="705.625"/>
      <point x="684.5" y="706.625" type="curve"/>
      <point x="698.5" y="815.125"/>
      <point x="706.625" y="915.875"/>
      <point x="706.625" y="1002.0" type="curve" smooth="yes"/>
      <point x="706.625" y="1255.875"/>
      <point x="619.25" y="1418.125"/>
      <point x="363.0" y="1418.125" type="curve" smooth="yes"/>
      <point x="214.5" y="1418.125"/>
      <point x="100.5" y="1357.375"/>
      <point x="41.875" y="1280.25" type="curve"/>
      <point x="116.5" y="1218.875" type="line"/>
      <point x="158.5" y="1280.875"/>
      <point x="241.75" y="1330.375"/>
      <point x="357.375" y="1330.375" type="curve" smooth="yes"/>
      <point x="464.625" y="1330.375"/>
      <point x="543.0" y="1285.5"/>
      <point x="580.5" y="1203.5" type="curve" smooth="yes"/>
      <point x="592.5" y="1178.5"/>
      <point x="601.25" y="1149.0"/>
      <point x="604.75" y="1118.25" type="curve"/>
      <point x="584.0" y="1127.375"/>
      <point x="433.125" y="1146.375"/>
      <point x="370.375" y="1146.375" type="curve" smooth="yes"/>
      <point x="194.875" y="1146.375"/>
      <point x="40.0" y="1075.125"/>
      <point x="40.0" y="927.625" type="curve" smooth="yes"/>
      <point x="40.0" y="776.625"/>
      <point x="169.625" y="717.625"/>
      <point x="339.125" y="717.625" type="curve" smooth="yes"/>
      <point x="433.375" y="717.625"/>
      <point x="559.25" y="765.875"/>
      <point x="598.125" y="807.125" type="curve"/>
      <point x="594.5" y="784.625"/>
      <point x="584.5" y="724.75"/>
    </contour>
    <contour>
      <point x="358.625" y="798.875" type="curve" smooth="yes"/>
      <point x="232.875" y="798.875"/>
      <point x="143.625" y="827.375"/>
      <point x="143.625" y="934.25" type="curve" smooth="yes"/>
      <point x="143.625" y="1020.625"/>
      <point x="256.25" y="1071.375"/>
      <point x="372.0" y="1071.375" type="curve" smooth="yes"/>
      <point x="458.625" y="1071.375"/>
      <point x="580.375" y="1053.375"/>
      <point x="606.375" y="1046.5" type="curve"/>
      <point x="608.25" y="1027.5"/>
      <point x="609.125" y="1008.75"/>
      <point x="609.125" y="989.875" type="curve" smooth="yes"/>
      <point x="609.125" y="965.125"/>
      <point x="607.375" y="939.0"/>
      <point x="604.75" y="901.0" type="curve"/>
      <point x="549.375" y="842.125"/>
      <point x="457.75" y="798.875"/>
    </contour>
  </outline>
</glyph>
<glyph name="guillemetleft" format="2">
  <advance width="1214.0"/>
  <unicode hex="00AB"/>
  <outline>
    <contour>
      <point x="1023.875" y="1135.0" type="curve"/>
      <point x="830.75" y="971.25"/>
      <point x="654.375" y="777.125"/>
      <point x="481.875" y="574.0" type="curve"/>
      <point x="1041.875" y="173.375" type="line"/>
      <point x="1056.75" y="197.0"/>
      <point x="1075.875" y="236.0"/>
      <point x="1076.75" y="267.25" type="curve"/>
      <point x="1022.875" y="312.25"/>
      <point x="779.5" y="480.0"/>
      <point x="611.375" y="594.5" type="curve"/>
      <point x="1097.5" y="1059.125" type="line"/>
      <point x="1083.5" y="1078.75"/>
      <point x="1053.375" y="1113.125"/>
    </contour>
    <contour>
      <point x="532.875" y="1120.0" type="curve"/>
      <point x="353.875" y="928.0"/>
      <point x="187.875" y="727.5"/>
      <point x="26.875" y="521.625" type="curve"/>
      <point x="219.875" y="329.125"/>
      <point x="429.75" y="157.25"/>
      <point x="653.875" y="0.0" type="curve"/>
      <point x="670.0" y="26.875"/>
      <point x="693.25" y="71.75"/>
      <point x="696.75" y="97.5" type="curve"/>
      <point x="666.75" y="114.5"/>
      <point x="365.375" y="354.0"/>
      <point x="146.75" y="530.125" type="curve"/>
      <point x="631.0" y="1053.5" type="line"/>
      <point x="600.75" y="1075.25"/>
      <point x="553.5" y="1107.5"/>
    </contour>
  </outline>
</glyph>
<glyph name="logicalnot" format="2">
  <advance width="1000.0"/>
  <unicode hex="00AC"/>
  <outline>
    <contour>
      <point x="864.25" y="754.125" type="curve"/>
      <point x="770.375" y="754.125"/>
      <point x="218.0" y="739.875"/>
      <point x="85.25" y="734.25" type="curve"/>
      <point x="85.75" y="707.875"/>
      <point x="88.375" y="666.375"/>
      <point x="91.0" y="641.5" type="curve"/>
      <point x="193.125" y="645.5"/>
      <point x="588.75" y="656.625"/>
      <point x="776.75" y="658.5" type="curve"/>
      <point x="776.0" y="602.5"/>
      <point x="767.0" y="378.875"/>
      <point x="760.0" y="310.0" type="curve"/>
      <point x="784.75" y="309.625"/>
      <point x="824.0" y="310.375"/>
      <point x="844.75" y="314.75" type="curve"/>
      <point x="857.0" y="506.875"/>
      <point x="862.5" y="717.5"/>
    </contour>
  </outline>
</glyph>
<glyph name="softhyphen" format="2">
  <advance width="678.375"/>
  <unicode hex="00AD"/>
  <outline>
    <contour>
      <point x="620.0" y="744.25" type="curve"/>
      <point x="577.0" y="747.75"/>
      <point x="497.0" y="748.375"/>
      <point x="399.5" y="748.375" type="curve" smooth="yes"/>
      <point x="255.125" y="748.375"/>
      <point x="140.375" y="736.375"/>
      <point x="58.125" y="726.25" type="curve"/>
      <point x="56.875" y="701.0"/>
      <point x="55.875" y="655.125"/>
      <point x="58.5" y="628.625" type="curve"/>
      <point x="180.875" y="639.75"/>
      <point x="447.125" y="648.125"/>
      <point x="621.25" y="648.125" type="curve"/>
      <point x="622.125" y="672.75"/>
      <point x="622.0" y="714.625"/>
    </contour>
  </outline>
</glyph>
<glyph name="registered" format="2">
  <advance width="1400.0"/>
  <unicode hex="00AE"/>
  <outline>
    <contour>
      <point x="733.625" y="268.5" type="curve" smooth="yes"/>
      <point x="1016.375" y="268.5"/>
      <point x="1253.625" y="392.75"/>
      <point x="1253.625" y="794.5" type="curve" smooth="yes"/>
      <point x="1253.625" y="1145.625"/>
      <point x="1040.625" y="1321.0"/>
      <point x="731.875" y="1321.0" type="curve" smooth="yes"/>
      <point x="405.375" y="1321.0"/>
      <point x="169.25" y="1113.625"/>
      <point x="169.25" y="763.125" type="curve" smooth="yes"/>
      <point x="169.25" y="505.75"/>
      <point x="330.875" y="268.5"/>
    </contour>
    <contour>
      <point x="724.5" y="350.75" type="curve" smooth="yes"/>
      <point x="479.75" y="350.75"/>
      <point x="267.5" y="486.75"/>
      <point x="267.5" y="771.5" type="curve" smooth="yes"/>
      <point x="267.5" y="1053.0"/>
      <point x="457.5" y="1240.375"/>
      <point x="727.625" y="1240.375" type="curve" smooth="yes"/>
      <point x="1049.25" y="1240.375"/>
      <point x="1155.875" y="1008.75"/>
      <point x="1155.875" y="786.375" type="curve" smooth="yes"/>
      <point x="1155.875" y="468.125"/>
      <point x="963.625" y="350.75"/>
    </contour>
    <contour>
      <point x="666.625" y="509.625" type="curve"/>
      <point x="666.625" y="562.25"/>
      <point x="666.5" y="750.125"/>
      <point x="666.25" y="789.5" type="curve"/>
      <point x="672.375" y="789.625"/>
      <point x="686.625" y="791.5"/>
      <point x="698.125" y="794.125" type="curve"/>
      <point x="752.5" y="693.375"/>
      <point x="802.375" y="602.0"/>
      <point x="861.875" y="509.625" type="curve"/>
      <point x="899.125" y="509.625"/>
      <point x="934.75" y="517.625"/>
      <point x="954.875" y="526.0" type="curve"/>
      <point x="927.75" y="568.0"/>
      <point x="821.5" y="738.5"/>
      <point x="774.75" y="808.625" type="curve"/>
      <point x="859.0" y="829.125"/>
      <point x="910.875" y="879.625"/>
      <point x="910.875" y="969.0" type="curve" smooth="yes"/>
      <point x="910.875" y="1065.125"/>
      <point x="810.75" y="1083.75"/>
      <point x="716.5" y="1083.75" type="curve" smooth="yes"/>
      <point x="651.625" y="1083.75"/>
      <point x="590.625" y="1070.875"/>
      <point x="569.75" y="1060.125" type="curve"/>
      <point x="573.375" y="952.0"/>
      <point x="575.75" y="650.25"/>
      <point x="575.75" y="524.125" type="curve"/>
      <point x="603.375" y="513.375"/>
      <point x="633.625" y="509.625"/>
    </contour>
    <contour>
      <point x="662.875" y="854.125" type="curve"/>
      <point x="662.875" y="871.75"/>
      <point x="655.75" y="988.375"/>
      <point x="653.875" y="1004.5" type="curve"/>
      <point x="671.875" y="1007.375"/>
      <point x="702.25" y="1010.125"/>
      <point x="732.375" y="1010.125" type="curve" smooth="yes"/>
      <point x="782.0" y="1010.125"/>
      <point x="831.875" y="1000.875"/>
      <point x="831.875" y="959.625" type="curve" smooth="yes"/>
      <point x="831.875" y="884.25"/>
      <point x="767.875" y="854.125"/>
    </contour>
  </outline>
</glyph>
<glyph name="degree" format="2">
  <advance width="814.0"/>
  <unicode hex="00B0"/>
  <outline>
    <contour>
      <point x="368.125" y="908.125" type="curve" smooth="yes"/>
      <point x="548.5" y="908.125"/>
      <point x="700.375" y="1049.25"/>
      <point x="700.375" y="1223.75" type="curve" smooth="yes"/>
      <point x="700.375" y="1380.125"/>
      <point x="560.625" y="1491.875"/>
      <point x="385.25" y="1491.875" type="curve" smooth="yes"/>
      <point x="211.0" y="1491.875"/>
      <point x="56.75" y="1369.25"/>
      <point x="56.75" y="1202.25" type="curve" smooth="yes"/>
      <point x="56.75" y="1037.625"/>
      <point x="191.0" y="908.125"/>
    </contour>
    <contour>
      <point x="368.75" y="1001.375" type="curve" smooth="yes"/>
      <point x="241.875" y="1001.375"/>
      <point x="166.625" y="1083.25"/>
      <point x="166.625" y="1213.125" type="curve" smooth="yes"/>
      <point x="166.625" y="1317.75"/>
      <point x="274.375" y="1398.625"/>
      <point x="370.375" y="1398.625" type="curve" smooth="yes"/>
      <point x="523.25" y="1398.625"/>
      <point x="589.75" y="1308.875"/>
      <point x="589.75" y="1198.0" type="curve" smooth="yes"/>
      <point x="589.75" y="1091.625"/>
      <point x="486.125" y="1001.375"/>
    </contour>
  </outline>
</glyph>
<glyph name="twosuperior" format="2">
  <advance width="743.125"/>
  <unicode hex="00B2"/>
  <outline>
    <contour>
      <point x="623.25" y="612.0" type="curve"/>
      <point x="529.5" y="608.5"/>
      <point x="265.875" y="592.5"/>
      <point x="201.5" y="585.375" type="curve"/>
      <point x="225.625" y="607.25"/>
      <point x="364.375" y="751.0"/>
      <point x="441.625" y="842.375" type="curve" smooth="yes"/>
      <point x="531.375" y="948.5"/>
      <point x="596.875" y="1053.75"/>
      <point x="596.875" y="1144.75" type="curve" smooth="yes"/>
      <point x="596.875" y="1246.25"/>
      <point x="507.5" y="1313.375"/>
      <point x="382.0" y="1313.375" type="curve" smooth="yes"/>
      <point x="228.75" y="1313.375"/>
      <point x="103.0" y="1231.5"/>
      <point x="41.25" y="1107.375" type="curve"/>
      <point x="59.25" y="1091.0"/>
      <point x="99.625" y="1062.25"/>
      <point x="120.125" y="1053.0" type="curve"/>
      <point x="165.25" y="1147.5"/>
      <point x="245.0" y="1220.25"/>
      <point x="370.125" y="1220.25" type="curve" smooth="yes"/>
      <point x="440.875" y="1220.25"/>
      <point x="504.0" y="1191.375"/>
      <point x="504.0" y="1122.625" type="curve" smooth="yes"/>
      <point x="504.0" y="1034.25"/>
      <point x="384.625" y="901.375"/>
      <point x="293.75" y="806.25" type="curve" smooth="yes"/>
      <point x="212.625" y="722.625"/>
      <point x="118.0" y="625.125"/>
      <point x="60.5" y="574.5" type="curve"/>
      <point x="62.625" y="543.375"/>
      <point x="72.125" y="502.375"/>
      <point x="75.25" y="490.0" type="curve"/>
      <point x="622.125" y="516.0" type="line"/>
      <point x="624.75" y="531.25"/>
      <point x="624.625" y="584.125"/>
    </contour>
  </outline>
</glyph>
<glyph name="threesuperior" format="2">
  <advance width="782.75"/>
  <unicode hex="00B3"/>
  <outline>
    <contour>
      <point x="348.875" y="498.0" type="curve" smooth="yes"/>
      <point x="528.375" y="498.0"/>
      <point x="661.875" y="587.5"/>
      <point x="661.875" y="733.75" type="curve" smooth="yes"/>
      <point x="661.875" y="868.0"/>
      <point x="537.75" y="914.75"/>
      <point x="411.25" y="920.875" type="curve"/>
      <point x="499.375" y="936.75"/>
      <point x="611.5" y="998.625"/>
      <point x="611.5" y="1099.625" type="curve" smooth="yes"/>
      <point x="611.5" y="1218.75"/>
      <point x="503.75" y="1284.375"/>
      <point x="360.875" y="1284.375" type="curve" smooth="yes"/>
      <point x="201.5" y="1284.375"/>
      <point x="81.875" y="1207.125"/>
      <point x="26.0" y="1160.625" type="curve"/>
      <point x="39.5" y="1147.75"/>
      <point x="82.625" y="1113.25"/>
      <point x="100.0" y="1099.5" type="curve"/>
      <point x="151.875" y="1152.375"/>
      <point x="246.75" y="1197.75"/>
      <point x="355.75" y="1197.75" type="curve" smooth="yes"/>
      <point x="461.0" y="1197.75"/>
      <point x="512.25" y="1148.875"/>
      <point x="512.25" y="1086.0" type="curve" smooth="yes"/>
      <point x="512.25" y="990.5"/>
      <point x="350.25" y="943.125"/>
      <point x="192.0" y="943.125" type="curve"/>
      <point x="192.0" y="921.875"/>
      <point x="196.0" y="882.875"/>
      <point x="200.875" y="867.75" type="curve"/>
      <point x="431.125" y="867.75"/>
      <point x="564.875" y="853.375"/>
      <point x="564.875" y="727.125" type="curve" smooth="yes"/>
      <point x="564.875" y="634.75"/>
      <point x="472.875" y="579.75"/>
      <point x="345.375" y="579.75" type="curve" smooth="yes"/>
      <point x="235.0" y="579.75"/>
      <point x="148.875" y="625.375"/>
      <point x="127.0" y="692.5" type="curve"/>
      <point x="99.0" y="681.0"/>
      <point x="62.375" y="658.625"/>
      <point x="39.0" y="641.875" type="curve"/>
      <point x="69.5" y="557.875"/>
      <point x="201.25" y="498.0"/>
    </contour>
  </outline>
</glyph>
<glyph name="micro" format="2">
  <advance width="1178.0"/>
  <unicode hex="00B5"/>
  <anchor x="586.5" y="0.0" name="bottom"/>
  <anchor x="754.75" y="0.0" name="ogonek"/>
  <anchor x="586.5" y="1063.0" name="top"/>
  <anchor x="932.125" y="935.25" name="topright"/>
  <outline>
    <contour>
      <point x="153.25" y="-376.75" type="curve"/>
      <point x="191.0" y="-376.75"/>
      <point x="238.25" y="-373.875"/>
      <point x="275.375" y="-366.375" type="curve"/>
      <point x="270.25" y="-314.375"/>
      <point x="259.25" y="-120.0"/>
      <point x="254.875" y="21.0" type="curve" smooth="yes"/>
      <point x="247.875" y="253.0"/>
      <point x="243.875" y="410.0"/>
      <point x="245.25" y="662.125" type="curve"/>
      <point x="122.5" y="642.375" type="line"/>
      <point x="122.5" y="252.5"/>
      <point x="143.0" y="-218.875"/>
    </contour>
    <component base="u"/>
  </outline>
</glyph>
